<svg xmlns="http://www.w3.org/2000/svg" xmlns:xlink="http://www.w3.org/1999/xlink" viewBox="0 0 150.57 295.75"><defs><style>.\35 cccdbeb-2f3d-4085-b905-b61487de10d6{fill:none;}.b56f960b-6415-422a-8a10-2010e640f004{fill:#81c88a;}.\39 578f86f-3280-48b2-b603-7149b985ae6d{fill:#7faa77;}.\31 4a5f30a-4055-471d-a965-2a06c3b68c44{fill:#416048;}.ad24f1c4-541e-4671-8f63-0c10c4cf46db{fill:#231f20;}.\32 f4b0992-df81-4334-8a99-7bf3da213a8b{fill:#3d6b4e;}.\36 6301543-9056-4c80-85dc-315dd29e0e17{fill:url(#8886046f-a879-474c-aa8f-f25af853a85e);}.c2cae13a-23ce-4739-aafb-ab6f63fa3ced{fill:#c38a6b;}.\38 6be4f41-a49d-4cad-80a1-b9b04afd4b84{fill:#dbbbad;}.b11a7bbc-8380-4e25-a5fe-5d241c10fead{fill:#e0a58c;}.\33 08fce6d-bc18-4bbc-a47d-5c2db84441d5{fill:#fff;}</style><pattern id="8886046f-a879-474c-aa8f-f25af853a85e" data-name="New Pattern 2" width="23.1" height="23.1" patternTransform="translate(-41.72 -11.95)" patternUnits="userSpaceOnUse" viewBox="0 0 23.1 23.1"><rect class="5cccdbeb-2f3d-4085-b905-b61487de10d6" width="23.1" height="23.1"/><circle class="b56f960b-6415-422a-8a10-2010e640f004" cx="17.32" cy="23.1" r="2.17"/><circle class="b56f960b-6415-422a-8a10-2010e640f004" cx="5.77" cy="23.1" r="2.17"/><circle class="b56f960b-6415-422a-8a10-2010e640f004" cx="23.1" cy="11.55" r="2.17"/><circle class="b56f960b-6415-422a-8a10-2010e640f004" cx="11.55" cy="11.55" r="2.17"/><circle class="b56f960b-6415-422a-8a10-2010e640f004" cy="11.55" r="2.17"/><circle class="b56f960b-6415-422a-8a10-2010e640f004" cx="17.32" r="2.17"/><circle class="b56f960b-6415-422a-8a10-2010e640f004" cx="5.77" r="2.17"/></pattern></defs><title>cactus</title><g id="2b5e3fd5-fb5e-4d3d-8669-8a31300b8ac1" data-name="little plant"><path class="9578f86f-3280-48b2-b603-7149b985ae6d" d="M49.18,76.14S72.12,53.2,58.87,35.86,43.57,45,43.57,45Z"/><path class="9578f86f-3280-48b2-b603-7149b985ae6d" d="M39.49,76.14S9.41,41.47,22.16,33.31,43.57,76.14,43.57,76.14Z"/><path class="14a5f30a-4055-471d-a965-2a06c3b68c44" d="M68.09,156.7l7.65-2.86S71.61,65.94,45.1,68,40,124.58,40,124.58Z"/><path class="9578f86f-3280-48b2-b603-7149b985ae6d" d="M79.27,151s-1.93-100.76,28.8-91.72,0,55.45,0,55.45l-22.3,39.14Z"/><path class="9578f86f-3280-48b2-b603-7149b985ae6d" d="M110.57,35l-3.62,33h-6s-6.63-43.2,0-45S110.57,35,110.57,35Z"/><path class="9578f86f-3280-48b2-b603-7149b985ae6d" d="M110.57,73s8.89-55.24,13.26-56.65c8.72-2.82,17.48,10.85,10.85,22.3S114.9,76.14,114.9,76.14Z"/><ellipse class="ad24f1c4-541e-4671-8f63-0c10c4cf46db" cx="66.58" cy="202.82" rx="57.08" ry="8.25"/><ellipse class="2f4b0992-df81-4334-8a99-7bf3da213a8b" cx="72.45" cy="183.08" rx="39.53" ry="23.81" transform="translate(-123.36 203.7) rotate(-74.42)"/><path class="66301543-9056-4c80-85dc-315dd29e0e17" d="M123.83,16.31c-3.06,1-8.35,28.45-11.24,44.77a24,24,0,0,0-4.52-1.83l-.16,0L110.57,35s-3-13.86-9.64-12.05c-4.77,1.3-2.67,24-1.12,36.7-18.29,8-20.37,65.31-20.55,84.84a16.51,16.51,0,0,0-4.14.5C73.53,126,68.32,82.41,53.69,70.83c5.91-7.8,14.5-22.77,5.18-35C45.61,18.53,43.57,45,43.57,45l4.16,23A11.38,11.38,0,0,0,45.1,68a16.17,16.17,0,0,0-3,.52c-3-13.89-10.3-41.34-19.9-35.19-10.06,6.44,6.57,29.4,14,38.79C24.54,85.18,40,124.58,40,124.58l23.7,27.1c-6.05,5.73-11.26,14.52-14.18,25-5.86,21-.35,40.94,12.32,44.47s27.69-10.65,33.55-31.68c4.85-17.39,1.91-34-6.42-41.24l19.11-33.54s20.52-31,11.25-47.25c4.44-8.65,11.18-21.64,15.35-28.84C141.31,27.16,132.55,13.49,123.83,16.31Z"/><path class="c2cae13a-23ce-4739-aafb-ab6f63fa3ced" d="M9.5,202.48c-4,6.9,2.3,8.35,2.3,8.35L15,255.39s-5,11.5,16.65,24.73a38.47,38.47,0,0,0,4.36,2.28V210.07C16,207.93,9.5,202.48,9.5,202.48Z"/><path class="c2cae13a-23ce-4739-aafb-ab6f63fa3ced" d="M54.91,210.91v76c15.55,1.41,32.56-1.37,44.2-4.39V206.95A306.26,306.26,0,0,1,54.91,210.91Z"/><path class="c2cae13a-23ce-4739-aafb-ab6f63fa3ced" d="M48.14,210.85V286c1.14.21,2.29.38,3.45.54V210.91C50.41,210.9,49.26,210.88,48.14,210.85Z"/><path class="c2cae13a-23ce-4739-aafb-ab6f63fa3ced" d="M123.66,202.48q-6.19,1.28-12,2.33v73.25c10.39-6.26,9.91-18.07,9.91-18.07V210.83C128.45,208.26,123.66,202.48,123.66,202.48Z"/><path class="86be4f41-a49d-4cad-80a1-b9b04afd4b84" d="M48.14,286a53,53,0,0,1-12.08-3.63"/><path class="86be4f41-a49d-4cad-80a1-b9b04afd4b84" d="M36.06,210.07v72.34A53,53,0,0,0,48.14,286V210.85C43.65,210.73,39.64,210.45,36.06,210.07Z"/><path class="b11a7bbc-8380-4e25-a5fe-5d241c10fead" d="M99.11,206.95v75.61c3.16-.82,5.94-1.66,8.17-2.43a23.26,23.26,0,0,0,4.42-2.06V204.82Q105.14,206,99.11,206.95Z"/><path class="308fce6d-bc18-4bbc-a47d-5c2db84441d5" d="M54.91,286.94q-1.67-.15-3.32-.37"/><path class="308fce6d-bc18-4bbc-a47d-5c2db84441d5" d="M51.59,210.91v75.66q1.65.22,3.32.37v-76Z"/></g></svg>