<svg xmlns="http://www.w3.org/2000/svg" xmlns:xlink="http://www.w3.org/1999/xlink" viewBox="0 0 865.29 434.95"><defs><style>.a{isolation:isolate;}.b{fill:#5aadc5;}.c{opacity:0.75;}.c,.f{mix-blend-mode:multiply;}.d{opacity:0.6;mix-blend-mode:luminosity;}.e{fill:#2c5146;}.g{mix-blend-mode:darken;}.h{fill:url(#a);}.i{fill:url(#b);}.j{fill:#f3eabf;}.k{opacity:0.3;mix-blend-mode:lighten;}.l{fill:#fffffa;}.m{fill:#fff;}.n{fill:#bbc268;}</style><radialGradient id="a" cx="224.54" cy="-1003.89" r="325.7" gradientTransform="translate(1441 443.48) rotate(-90)" gradientUnits="userSpaceOnUse"><stop offset="0.57" stop-color="#130c0e" stop-opacity="0"/><stop offset="0.65" stop-color="#132016" stop-opacity="0.18"/><stop offset="0.79" stop-color="#12542a" stop-opacity="0.63"/><stop offset="0.8" stop-color="#12562b" stop-opacity="0.65"/><stop offset="0.81" stop-color="#0f5f2f" stop-opacity="0.69"/><stop offset="0.86" stop-color="#097638" stop-opacity="0.8"/><stop offset="0.91" stop-color="#04873f" stop-opacity="0.89"/><stop offset="0.96" stop-color="#019143" stop-opacity="0.93"/><stop offset="1" stop-color="#009444" stop-opacity="0.95"/></radialGradient><radialGradient id="b" cx="224.54" cy="-1003.89" r="325.7" gradientTransform="translate(1441 443.48) rotate(-90)" gradientUnits="userSpaceOnUse"><stop offset="0" stop-color="#004415" stop-opacity="0.95"/><stop offset="0.48" stop-color="#12562b" stop-opacity="0.65"/></radialGradient></defs><title>Artboard 8</title><g class="a"><path class="b" d="M313.7,151.07l2.34-2.74a2.5,2.5,0,1,0-3.54-3.54l-2.34,2.74a2.5,2.5,0,1,0,3.54,3.54Z"/><image class="c" width="13762" height="8452" transform="translate(-2429.7 -1586.04) scale(0.24)" xlink:href="Artboard 81.png"/><path class="b" d="M851.19,210.28c-28.45-30.53-62.2-46.14-99.87-60.88-20.14-7.88-41.61-14-58.29-27.8-11.2-9.25-19.8-21.62-32.13-29.3-32.9-20.47-75.51-.11-114.15-3.05a93.88,93.88,0,0,1-54.41-22.91c-3.76-3.31-7.56-7.08-12.48-8-4.31-.84-8.73.67-12.64,2.64-11.8,5.94-21,16.06-32.29,22.86s-27.12,9.57-37,.75c-3.9-3.5-6.29-8.33-8.94-12.85-16.72-28.51-48-47.93-81-50.26-31.68-2.24-63.93,10.24-94.8,2.8-11.45-2.76-22.72-8.24-34.41-6.82-20.23,2.45-32.12,23.62-49.42,34.4-16.91,10.53-40.82,12.4-50.57,29.77C74.16,90,74.06,100.15,70.42,109c-7.23,17.6-27,27.27-35.25,44.41-9.4,19.54,1.16,46,21.43,53.77,3.68,1.4,8.7,1.81,10.73-1.56,1.22-2,.8-4.69,1.83-6.81,1.91-3.94,7.37-4.1,11.73-3.68l78.74,7.58c-.5,9.11-9.3,15.18-17.17,19.8L36.63,284.67c-4.92,2.89-10.15,6.11-12.42,11.35-4.79,11.08,6,22.27,15.7,29.51l75,56.26c7.08,5.31,17.25,10.62,24,4.86,3.21-2.75,4.34-7.26,7.19-10.38,7.07-7.75,20.87-2.9,26.64,5.86s6.62,19.77,10,29.71c1.08,3.2,2.67,6.57,5.71,8,3.85,1.87,8.39,0,12.22-1.91,31-15.53,62.46-36.68,96.9-32.81,14.8,1.66,29.22,8,44,6.42,20.54-2.18,36.58-19.14,46.34-37.35,4.08-7.61,7.63-15.88,14.28-21.39C417.67,320,440.78,328,459.24,336s42.47,14.62,56.57.28c9.7-9.87,10.23-26.1,19.63-36.26,6.41-6.93,15.9-9.93,24.93-12.66,22.63-6.82,46.12-13.72,69.53-10.47,23.89,3.32,47.73,17,70.74,9.81,12.86-4,20.07-19.18,33.07-22.71,66.13-18,95.28-79.39,117.48-53.72"/><g class="d"><path class="e" d="M851.19,210.28c-28.45-30.53-62.2-46.14-99.87-60.88-20.14-7.88-41.61-14-58.29-27.8-11.2-9.25-19.8-21.62-32.13-29.3-32.9-20.47-75.51-.11-114.15-3.05a93.88,93.88,0,0,1-54.41-22.91c-3.76-3.31-7.56-7.08-12.48-8-4.31-.84-8.73.67-12.64,2.64-11.8,5.94-21,16.06-32.29,22.86s-27.12,9.57-37,.75c-3.9-3.5-6.29-8.33-8.94-12.85-16.72-28.51-48-47.93-81-50.26-31.68-2.24-63.93,10.24-94.8,2.8-11.45-2.76-22.72-8.24-34.41-6.82-20.23,2.45-32.12,23.62-49.42,34.4-16.91,10.53-40.82,12.4-50.57,29.77C74.16,90,74.06,100.15,70.42,109c-7.23,17.6-27,27.27-35.25,44.41-9.4,19.54,1.16,46,21.43,53.77,3.68,1.4,8.7,1.81,10.73-1.56,1.22-2,.8-4.69,1.83-6.81,1.91-3.94,7.37-4.1,11.73-3.68l78.74,7.58c-.5,9.11-9.3,15.18-17.17,19.8L36.63,284.67c-4.92,2.89-10.15,6.11-12.42,11.35-4.79,11.08,6,22.27,15.7,29.51l75,56.26c7.08,5.31,17.25,10.62,24,4.86,3.21-2.75,4.34-7.26,7.19-10.38,7.07-7.75,20.87-2.9,26.64,5.86s6.62,19.77,10,29.71c1.08,3.2,2.67,6.57,5.71,8,3.85,1.87,8.39,0,12.22-1.91,31-15.53,62.46-36.68,96.9-32.81,14.8,1.66,29.22,8,44,6.42,20.54-2.18,36.58-19.14,46.34-37.35,4.08-7.61,7.63-15.88,14.28-21.39C417.67,320,440.78,328,459.24,336s42.47,14.62,56.57.28c9.7-9.87,10.23-26.1,19.63-36.26,6.41-6.93,15.9-9.93,24.93-12.66,22.63-6.82,46.12-13.72,69.53-10.47,23.89,3.32,47.73,17,70.74,9.81,12.86-4,20.07-19.18,33.07-22.71,66.13-18,95.28-79.39,117.48-53.72"/></g><g class="f"><g class="g"><path class="h" d="M851.19,210.28c-28.45-30.53-62.2-46.14-99.87-60.88-20.14-7.88-41.61-14-58.29-27.8-11.2-9.25-19.8-21.62-32.13-29.3-32.9-20.47-75.51-.11-114.15-3.05a93.88,93.88,0,0,1-54.41-22.91c-3.76-3.31-7.56-7.08-12.48-8-4.31-.84-8.73.67-12.64,2.64-11.8,5.94-21,16.06-32.29,22.86s-27.12,9.57-37,.75c-3.9-3.5-6.29-8.33-8.94-12.85-16.72-28.51-48-47.93-81-50.26-31.68-2.24-63.93,10.24-94.8,2.8-11.45-2.76-22.72-8.24-34.41-6.82-20.23,2.45-32.12,23.62-49.42,34.4-16.91,10.53-40.82,12.4-50.57,29.77C74.16,90,74.06,100.15,70.42,109c-7.23,17.6-27,27.27-35.25,44.41-9.4,19.54,1.16,46,21.43,53.77,3.68,1.4,8.7,1.81,10.73-1.56,1.22-2,.8-4.69,1.83-6.81,1.91-3.94,7.37-4.1,11.73-3.68l78.74,7.58c-.5,9.11-9.3,15.18-17.17,19.8L36.63,284.67c-4.92,2.89-10.15,6.11-12.42,11.35-4.79,11.08,6,22.27,15.7,29.51l75,56.26c7.08,5.31,17.25,10.62,24,4.86,3.21-2.75,4.34-7.26,7.19-10.38,7.07-7.75,20.87-2.9,26.64,5.86s6.62,19.77,10,29.71c1.08,3.2,2.67,6.57,5.71,8,3.85,1.87,8.39,0,12.22-1.91,31-15.53,62.46-36.68,96.9-32.81,14.8,1.66,29.22,8,44,6.42,20.54-2.18,36.58-19.14,46.34-37.35,4.08-7.61,7.63-15.88,14.28-21.39C417.67,320,440.78,328,459.24,336s42.47,14.62,56.57.28c9.7-9.87,10.23-26.1,19.63-36.26,6.41-6.93,15.9-9.93,24.93-12.66,22.63-6.82,46.12-13.72,69.53-10.47,23.89,3.32,47.73,17,70.74,9.81,12.86-4,20.07-19.18,33.07-22.71,66.13-18,95.28-79.39,117.48-53.72"/></g></g><g class="f"><g class="g"><path class="i" d="M851.19,210.28c-28.45-30.53-62.2-46.14-99.87-60.88-20.14-7.88-41.61-14-58.29-27.8-11.2-9.25-19.8-21.62-32.13-29.3-32.9-20.47-75.51-.11-114.15-3.05a93.88,93.88,0,0,1-54.41-22.91c-3.76-3.31-7.56-7.08-12.48-8-4.31-.84-8.73.67-12.64,2.64-11.8,5.94-21,16.06-32.29,22.86s-27.12,9.57-37,.75c-3.9-3.5-6.29-8.33-8.94-12.85-16.72-28.51-48-47.93-81-50.26-31.68-2.24-63.93,10.24-94.8,2.8-11.45-2.76-22.72-8.24-34.41-6.82-20.23,2.45-32.12,23.62-49.42,34.4-16.91,10.53-40.82,12.4-50.57,29.77C74.16,90,74.06,100.15,70.42,109c-7.23,17.6-27,27.27-35.25,44.41-9.4,19.54,1.16,46,21.43,53.77,3.68,1.4,8.7,1.81,10.73-1.56,1.22-2,.8-4.69,1.83-6.81,1.91-3.94,7.37-4.1,11.73-3.68l78.74,7.58c-.5,9.11-9.3,15.18-17.17,19.8L36.63,284.67c-4.92,2.89-10.15,6.11-12.42,11.35-4.79,11.08,6,22.27,15.7,29.51l75,56.26c7.08,5.31,17.25,10.62,24,4.86,3.21-2.75,4.34-7.26,7.19-10.38,7.07-7.75,20.87-2.9,26.64,5.86s6.62,19.77,10,29.71c1.08,3.2,2.67,6.57,5.71,8,3.85,1.87,8.39,0,12.22-1.91,31-15.53,62.46-36.68,96.9-32.81,14.8,1.66,29.22,8,44,6.42,20.54-2.18,36.58-19.14,46.34-37.35,4.08-7.61,7.63-15.88,14.28-21.39C417.67,320,440.78,328,459.24,336s42.47,14.62,56.57.28c9.7-9.87,10.23-26.1,19.63-36.26,6.41-6.93,15.9-9.93,24.93-12.66,22.63-6.82,46.12-13.72,69.53-10.47,23.89,3.32,47.73,17,70.74,9.81,12.86-4,20.07-19.18,33.07-22.71,66.13-18,95.28-79.39,117.48-53.72"/></g></g><path class="j" d="M34.29,285.52s10.16,1.26,28.23-4.77,72.26-28.1,86.31-30.11,106.81-43.16,108.23-48.85-2.84-10-16.36-15.65-70.41-19.91-70.41-19.91-16.36-6.4-19.2-5S87.8,164.1,85,169.79s-8,13.67-8.67,17.94-3.52,5.71-2.81-1.4,6.23-13.59,3.39-17.15-11.11-3.65-16.8-2.23-9.25,0-9.25-2.13-1.42-4.27,10.67-3.56,22,2.84,29.16.71,59-8.53,59-8.53S117.74,119,113.4,115c-1.57-1.43-3.68-4.17-11.64-14.73-3.42-4.54-3.54-4.48-5.72-8.08a74.83,74.83,0,0,1-4.68-8.48c-2.84-5.69-3.72-6.11-2.47-7.18C89.8,75.76,92.78,78,97,83s21.34,20.62,26.31,27,28.45,38.4,35.56,40.54,86.76,27,88.9,27.74-53.34-80.36-59-106S187.36,19,187.36,19s.89-3.24,3-2.53a19.42,19.42,0,0,1,4,1.91s-4.14,7.74.13,39,68.27,125.17,78.23,124.46,15.65,3.56,21.34-4.27,19.2-64.72,27-77.52,26-44.36,34.51-50.76,4.21-.11,4.21-.11-18.81,10.34-38,69.37c-13.21,40.62-18,57-19.71,63.25a2.84,2.84,0,0,0,2.75,3.59c13.76,0,62.42-.2,78.84-1.42,19.2-1.42,30.58.71,32-5s4.27-19.91,8.53-27.74a132.53,132.53,0,0,1,14.93-22c5-5.69,27.61-54.27,34.85-61.87,5.72-6,7.11-4.27,7.11-4.27s-10,11.38-12.09,22-27.74,52.63-27.74,52.63-13.51,17.07-12.8,24.89-10,18.49-5.69,22S579.22,184,579.22,184s14.93-.71,16.36-20.62,49.78-66.85,64-65.43,10.67,0,10.67,0-16.36,3.56-24.18,14.22-22.06,17.16-39.83,54c-8.88,18.45-.71,18.49-.71,18.49s161,3.91,227.17,13c13.27,1.83,2.65,6.51,2.65,6.51s-137.86-9.64-152-10.29c-27-1.23-63.58.71-63.58,5s5,19.91,12.09,29.87,61.87,54,66.85,53.34-.71,6.4-15.65-1.42-52.63-38.4-57.61-46.23-8.53-27-12.09-30.58-9.25-13.51-51.2-8.53-111.66,3.56-111.66,3.56-17.78-1.42-11.38,21.34,32,52.63,32,54.76,29.16,50.43,36.8,58.28c3,3.1-4.68-1.44-7.6-4.34-12.91-12.85-34.19-49-34.19-49s-22-35.56-24.89-38.4-16.36-29.16-11.38-36.27-43.38-4.27-43.38-4.27l-67.14,2.1a8.28,8.28,0,0,1-1.95-.16c-3.59-.75-17.59-2.38-12,19.4,6.4,24.89,14.22,65.43,14.22,65.43l16.36,54s5.69,24.18,22,32.71,10.67,4.27,10.67,4.27-1.42,12.8-15.65,0S322.49,344,320.35,334.78,305.42,274.33,304,263.66s-7.82-44.09-10-52.63-25.6-3.56-32.71,17.07-19.91,25.6-31.29,80.36-29.16,76.1-29.16,76.1-8.25,17.08-12.09,21.34c-4.79,5.31-2.23-3.46-2.23-3.46a120.59,120.59,0,0,0,13.61-30c5-17.07,19.91-46.94,19.2-58.32s17.78-68.27,23.47-76.1,15.65-19.91,15.65-19.91l-85.34,38.4s-14.22,1.42-18.49,22-36.27,94.59-36.27,94.59-7.82,6.4-3.56-14.22,14.89-29.88,15.65-33.43c1.47-6.88,25.6-56.89,20.62-59s-74,12.8-80.36,22.76-14.22,27-14.22,37S53,333.36,53,333.36s8.53-34.14,8.53-38.4S34.29,285.52,34.29,285.52Z"/><image width="3656" height="1932" transform="translate(-1.82 -19.81) scale(0.24)" xlink:href="Artboard 82.png"/><g class="k"><path class="l" d="M748.23,251.27c-10.13-6.38-18-12.83-19.11-25.49a83.2,83.2,0,0,0-6.95-27.48c-7.34-16.7-19.82-40.93-3.12-56.43l-1.54-.64,0,2.44a.9.9,0,0,0,1.8,0l0-2.44a.91.91,0,0,0-1.54-.64c-15.77,14.64-6.69,37.69.76,54,2.74,6,5.47,12.06,7.1,18.48s1,13,2.6,19.25c2.48,9.69,11.11,15.47,19.09,20.49,1,.62,1.89-.94.91-1.55Z"/><path class="l" d="M776.73,233.65c-10.09.08-13.06-11.14-16.93-18.31a23,23,0,0,0-5.67-7.26c-3-2.4-6.48-3.73-8.32-7.39-3.42-6.8-2-16.91-.87-24.17a49.26,49.26,0,0,1,2.5-10.08c.85-2.26,5-12.06,8.31-11.05a.9.9,0,0,0,.48-1.74c-5.87-1.77-10.53,11.81-11.64,15.81-2.35,8.46-3.64,19.23-1.76,27.88a14.85,14.85,0,0,0,5.38,8.92c2.29,1.78,4.87,2.95,6.85,5.17a31.34,31.34,0,0,1,4.57,7.59c3.49,7.35,7.63,16.51,17.12,16.44a.9.9,0,0,0,0-1.8Z"/><path class="l" d="M780.85,166.41a16.26,16.26,0,0,0-7.36,12.35c-.39,6.05,3.06,11.31,6,16.31a35.4,35.4,0,0,1,4.5,10.41c.62,2.89.82,6,2.44,8.53,2.86,4.56,8.51,5.83,13.42,6.79,1.13.22,1.62-1.51.48-1.74-5.81-1.13-11.74-2.69-13.61-9.06-1.21-4.13-1.56-8.1-3.53-12-2.14-4.24-5.14-8.08-6.78-12.57-2.4-6.59-.47-13.44,5.37-17.46.95-.65,0-2.21-.91-1.55Z"/><path class="l" d="M815,213.14c-6.25,2-12.24-2.86-14-8.75-1.87-6.32.21-13.12,2-19.2a.9.9,0,0,0-1.74-.48c-2.21,7.58-4.8,16.81-.23,24.06,3.1,4.91,8.73,7.91,14.44,6.11,1.1-.35.63-2.09-.48-1.74Z"/><path class="l" d="M727.3,264.09c-8.43.11-15-5.18-22.27-8.56a32.66,32.66,0,0,0-8.78-2.67c-5.05-.79-11.46-1.1-12.81-7.3-.15-.68-1.19-.39-1,.29,1.94,8.91,13.51,7.2,20.08,9.78,8.36,3.28,15.41,9.68,24.82,9.55a.54.54,0,0,0,0-1.08Z"/><path class="l" d="M665.81,287c-.8.79-2.74,0-3.19-.86-.66-1.29,0-2.72.7-3.77a36,36,0,0,1,2.74-3.25,7.55,7.55,0,0,0,1.95-4.58c0-.69-1-.69-1.08,0-.19,4.24-6.87,6.91-5.53,11.49.64,2.18,3.47,3.42,5.17,1.73a.54.54,0,0,0-.76-.76Z"/><path class="l" d="M644.14,253.42c-3.25-3.61-8.76-3.5-12.43-.49a15.69,15.69,0,0,0-4.63,7.51c-1.58,5-.74,14.58-7.93,15.33-.68.07-.69,1.15,0,1.08,4.83-.51,6.67-4.51,7.52-8.85.75-3.84,1-7.68,3.13-11.14,2.85-4.68,9.39-7.34,13.57-2.68.47.52,1.23-.25.76-.76Z"/><path class="l" d="M604.2,274.53a8.6,8.6,0,0,1-4.25-8c0-.69-1-.69-1.08,0a9.67,9.67,0,0,0,4.78,8.92.54.54,0,0,0,.55-.93Z"/><path class="l" d="M592.61,277.95a7.55,7.55,0,0,1-8.16-8.42c.11-.68-.93-1-1-.29a8.63,8.63,0,0,0,9.2,9.78c.68-.08.69-1.16,0-1.08Z"/><path class="l" d="M568.64,285.28c-18.5-10.92,2.1-35.13,4-49.51.09-.69-1-.68-1.08,0-1.89,14.36-22.67,39.1-3.46,50.44a.54.54,0,0,0,.55-.93Z"/><path class="l" d="M613.12,140.53c-3.62-8.54-9.76-12.86-16.21-19.05-8.52-8.18-7.05-19.49-5-30.07.13-.68-.91-1-1-.29-1.65,8.42-3.43,18.17,1.1,26,2.37,4.13,6.31,6.85,9.87,9.87a37,37,0,0,1,10.33,14c.27.64,1.2.09.93-.55Z"/><path class="l" d="M568.76,192.06c-7.44.47-10.63,8.46-10,15.06.57,6,3.32,11.54,3.49,17.56a21.13,21.13,0,0,1-9.64,17.94c-.57.39,0,1.32.55.93a22.18,22.18,0,0,0,10.12-19.72c-.31-4.92-2.2-9.51-3.08-14.33-1.16-6.35.49-15.86,8.56-16.37.69,0,.7-1.12,0-1.08Z"/><path class="l" d="M568.56,191.38c-11.14,3.13-12.25-14.05-15-20.8-3.15-7.72-7.77-15-6.65-23.64.09-.69-1-.68-1.08,0-1.43,11.12,6.32,20.4,8.94,30.74,1.71,6.74,4.81,17.34,14.08,14.74a.54.54,0,0,0-.29-1Z"/><path class="l" d="M550.48,189.33c-5.63.44-11.76.79-16.81-2.2-6.54-3.88-5.55-10.36-6.39-16.86a34.6,34.6,0,0,0-3-10.21c-2-4.26-9.67-11.32-6.69-16.25a.54.54,0,0,0-.93-.55c-2.45,4.07.59,7.85,3,11.19,5.14,7.16,6.2,14,6.88,22.59,1,12.61,13.63,14.19,23.95,13.38.69-.05.69-1.13,0-1.08Z"/><path class="l" d="M525.76,195.07c-15.19-4-11.77-25.73-23.75-33.74-.58-.39-1.12.55-.55.93,12,8,8.35,29.75,24,33.85a.54.54,0,0,0,.29-1Z"/><path class="l" d="M422.24,326.12c-6.87-.09-4.11-14.6-3-18.21A33.45,33.45,0,0,1,428,293.58c4.26-4.11,9.11-6,14.5-8.11,3.46-1.35,6.45-3,8.43-6.21.36-.59-.57-1.14-.93-.55-3.86,6.32-13.16,6.85-19,10.95a33.94,33.94,0,0,0-10.75,12.71c-2.28,4.64-8,24.7,2,24.84a.54.54,0,0,0,0-1.08Z"/><path class="l" d="M475.75,297.86c-15.54,1-28,15.05-27.08,30.63,0,.69,1.12.7,1.08,0-.89-15,11-28.56,26-29.55.69,0,.7-1.13,0-1.08Z"/><path class="l" d="M488.78,313.6a17.57,17.57,0,0,0-12.19,4.69c-4.23,4-4.33,11.12-9,14.38-.57.39,0,1.33.55.93,3.49-2.43,4.08-6.32,5.86-9.94a16.29,16.29,0,0,1,14.82-9,.54.54,0,0,0,0-1.08Z"/><path class="l" d="M496.05,312.83c3.81-.55,5.92-3.16,7.68-6.4,1.49-2.74,2.61-5.48,5.13-7.48a11.67,11.67,0,0,1,12-1.29c.63.27,1.18-.66.55-.93a13.09,13.09,0,0,0-12.07.53c-6,3.52-6,13.45-13.55,14.53-.69.1-.39,1.14.29,1Z"/><path class="l" d="M542.33,204c-6.13,2.09-9.83,7.26-11.57,13.34-2.66,9.31-2.42,19.88-2.73,29.48-.54,16.76-2.9,37.65,8.84,51.29.45.53,1.22-.24.76-.76-10.77-12.51-9-31.13-8.63-46.58.17-7.86.56-15.72,1.27-23.55.8-8.79,2.89-19,12.34-22.17.65-.22.37-1.27-.29-1Z"/><path class="l" d="M398.59,337.48a24.87,24.87,0,0,0-4.82-10c-2.92-3.59-7.42-5.45-10.14-9.12-7-9.46,1.35-23.57,6.07-32.21a165.78,165.78,0,0,1,40-48.22c.54-.44-.23-1.2-.76-.76a166.41,166.41,0,0,0-41.73,51.34c-3.91,7.5-8.76,16.66-6.82,25.42a14.13,14.13,0,0,0,5.54,8.26c5.69,4.41,9.84,8.35,11.6,15.61.16.67,1.21.39,1-.29Z"/><path class="l" d="M425,156.92c-16.85,4.55-25.86-13.51-29.62-26.68-2.32-8.13-3.32-15.37.5-23.23,1.1-2.27,2.4-4.46,3.3-6.82.71-1.87.64-5.84,1.83-7.31-.43.53.33,1.3.76.76l.35-.43a.56.56,0,0,0,.08-.65c-.5-.84-.45-.86-1.43-1a.57.57,0,0,0-.61.25c-1.14,1.71-.4.54-.84,2.6-.66,3.08-.94,5.15-2.33,8.06-1.52,3.17-3.41,6.2-4.32,9.63-2.08,7.85.84,16.61,3.39,24,4.26,12.32,14.41,25.87,29.22,21.87a.54.54,0,0,0-.29-1Z"/><path class="l" d="M437.79,135.27a49.35,49.35,0,0,0,14.27-28.35c.53-4,.44-7,2.72-10.56,1.85-2.92,4-5.68,6-8.49l13.26-18.66c.4-.57-.53-1.11-.93-.55L461,85.77c-3.22,4.53-8.42,9.63-9.45,15.25s-1.18,11.07-3.3,16.55A48.8,48.8,0,0,1,437,134.51a.54.54,0,0,0,.76.76Z"/><path class="l" d="M282.58,379.36c4.19-17.26,20.6-25.59,36-31.12.65-.23.37-1.28-.29-1-15.74,5.67-32.45,14.24-36.73,31.88-.16.68.88,1,1,.29Z"/><path class="l" d="M338.61,345.13a46.81,46.81,0,0,1,13.59-7.07c4.12-1.41,9.74-3.84,14.14-3.73,4,.1,6.51,3.8,8,7.1a22.78,22.78,0,0,0,2.22,3.93,23.52,23.52,0,0,0,7.83,6.87l.27-1-2.84,0a.54.54,0,0,0,0,1.08l2.84,0a.54.54,0,0,0,.27-1,22.64,22.64,0,0,1-7.44-6.48c-1.8-2.52-2.35-5.54-3.85-8.16-1.6-2.79-4.15-3.62-7.27-3.41-9.48.65-20.79,5.19-28.28,10.95-.54.42,0,1.36.55.93Z"/><path class="l" d="M224.85,318.84a19.54,19.54,0,0,0-20.84-5.5c-.66.22-.38,1.26.29,1a18.43,18.43,0,0,1,19.79,5.23c.47.52,1.23-.25.76-.76Z"/><path class="l" d="M226.69,319.49a39,39,0,0,0,11.47-2.9c2-.75,3.91-1.53,5.91-2.15.63-.19,11.45-2,10.28.23-.32.62.61,1.16.93.55l.33-.64a.54.54,0,0,0,0-.55c-2-2.9-6.65-1.92-9.61-1.25-6.62,1.51-12.41,5.19-19.31,5.63-.69,0-.7,1.12,0,1.08Z"/><path class="l" d="M220.29,340.5a69,69,0,0,0,22.36,8.33c.68.13,1-.91.29-1a68.24,68.24,0,0,1-22.1-8.22.54.54,0,0,0-.55.93Z"/><path class="l" d="M212.29,352.9c2.67-8.78-9.16-12.13-12.32-18.53-.31-.62-1.24-.08-.93.55,3,6.08,14.66,9.64,12.21,17.7-.2.67.84,1,1,.29Z"/><path class="l" d="M210.55,362.35l-9.06-7.12c-.54-.42-1.31.33-.76.76l9.06,7.12c.54.42,1.31-.33.76-.76Z"/><path class="l" d="M322.28,103.84c-19-1.44-34.45-13.66-48.64-25.29-7.5-6.15-12.52-12.43-14.73-22.06-1.8-7.84-2.45-15.84-6.1-23.13-.31-.62-1.24-.08-.93.55,4.45,8.88,4.28,18.92,7.47,28.18,2.92,8.47,9.28,13.8,16,19.27,13.75,11.13,28.66,22.18,46.89,23.56.69.05.69-1,0-1.08Z"/><path class="l" d="M320.83,29.1c5.63,13.61,19.92,22.28,22.85,37.13.13.68,1.18.39,1-.29C341.78,51,327.51,42.43,321.87,28.81c-.26-.63-1.31-.36-1,.29Z"/><path class="l" d="M335.17,87.63l14.16,4a.54.54,0,0,0,.29-1l-14.16-4a.54.54,0,0,0-.29,1Z"/><path class="l" d="M335.3,86.72a21.76,21.76,0,0,1-11.68-5.11c-.53-.45-1.29.31-.76.76A23.06,23.06,0,0,0,335.3,87.8c.69.08.68-1,0-1.08Z"/><path class="l" d="M61.32,334.34A32.17,32.17,0,0,1,72.9,295.67c.57-.39,0-1.32-.55-.93a33.24,33.24,0,0,0-12.08,39.9c.26.63,1.31.36,1-.29Z"/><path class="l" d="M91.93,197.64c4.22-1.78,6.4-5.43,7.31-9.84a33.27,33.27,0,0,0,.35-8.28c-.08-1.73-.24-3.45-.24-5.18a31.26,31.26,0,0,1,.12-3.4,5.57,5.57,0,0,1,2.85-5.51c.48.51,1.24-.26.76-.76-2.78-3-4.38,4-4.58,5.44-1.15,8.44,3.54,22.1-6.85,26.49-.63.27-.35,1.31.29,1Z"/><path class="l" d="M181,166.66c-5-.6-11.92-.8-14,4.93-1.35,3.68.08,7.78-1,11.55a15,15,0,0,1-14.08,10.54.54.54,0,0,0,0,1.08,16.07,16.07,0,0,0,14.61-9.89c1.19-3,.84-5.73,1-8.83.37-8.32,6.9-9.09,13.51-8.3.69.08.68-1,0-1.08Z"/><path class="l" d="M199.83,87.19a7.38,7.38,0,0,0-8.71-.17c-4.16,2.84-7.58,7.81-11,11.49-.47.51.29,1.27.76.76l7-7.56c3.14-3.38,6.62-6.89,11.38-3.59.57.4,1.11-.54.55-.93Z"/><path class="l" d="M210.67,104.23c.37,6.53-8.09,6.72-12.57,7.08-3.17.26-6,.88-8.36,3.12-.51.48.26,1.24.76.76,4.45-4.22,10.84-1.89,16.09-4.08,3-1.25,5.35-3.45,5.16-6.88,0-.69-1.12-.7-1.08,0Z"/><path class="l" d="M193.94,65.89a49.73,49.73,0,0,1,19.13-4.36.54.54,0,0,0,0-1.08A51.21,51.21,0,0,0,193.39,65c-.63.28-.08,1.21.55.93Z"/><path class="l" d="M191.84,44.2a48.79,48.79,0,0,0-22.39,2.89c-.65.24-.37,1.29.29,1a48.35,48.35,0,0,1,22.11-2.85c.69.07.69-1,0-1.08Z"/><path class="l" d="M256.95,174.61c-1.08-1.33-.81-4.12-.11-5.58a14.08,14.08,0,0,1,1.08-1.8,49.48,49.48,0,0,0,2.93-4.09,6.56,6.56,0,0,0,.65-6c-.25-.64-1.3-.36-1,.29,2.51,6.35-9.43,11.55-4.27,17.9.44.54,1.2-.23.76-.76Z"/><path class="l" d="M237.28,180.49c-6.14.08-12.68.31-18.33,3a17.1,17.1,0,0,0-5.84,4.42c-2.74,3.28-3.64,7.67-7.22,10.27-.56.41,0,1.34.55.93,4.7-3.42,5.54-9.65,10.35-13.08,5.84-4.17,13.58-4.39,20.49-4.48a.54.54,0,0,0,0-1.08Z"/><path class="l" d="M208.93,174.6a18.41,18.41,0,0,0-9.38,7.75c-2.85,4.85-2.63,11.64-7.71,15-.58.38,0,1.31.55.93,3.12-2,4.36-5.11,5.46-8.56,2-6.37,4.8-11.45,11.36-14,.64-.25.36-1.3-.29-1Z"/><path class="l" d="M192.71,173.63c-8.57,4.93-4.5,17.65-12.23,23.21-.56.4,0,1.34.55.93,7.79-5.6,3.89-18.41,12.23-23.21a.54.54,0,0,0-.55-.93Z"/><path class="l" d="M149.37,161a17.77,17.77,0,0,0-10.13,9.87c-2.35,5.93,1,15.37-4.76,19.43-.56.4,0,1.33.55.93,3.35-2.36,3.85-5.91,4-9.79.33-8.48,1.84-15.82,10.64-19.4.64-.26.36-1.3-.29-1Z"/><path class="l" d="M126.06,162.51c-2.42,2.88-3,6.14-3,9.82,0,2.35.2,4.7.19,7.06a20.65,20.65,0,0,1-.4,4.7c-.21.87-2,5.93-3.64,3.06a.54.54,0,0,0-.93.55c.92,1.57.49,1.19,2.12,2a.56.56,0,0,0,.65-.08c6.9-7.4-.53-18.77,5.8-26.32.44-.53-.32-1.3-.76-.76Z"/><path class="l" d="M126.41,121.74A19.25,19.25,0,0,0,106,125.49c-.51.47.25,1.23.76.76a18.18,18.18,0,0,1,19.38-3.47c.64.26.92-.78.29-1Z"/><path class="l" d="M110.14,104.35C103.46,96.54,93,107.23,85.57,107a.54.54,0,0,0,0,1.08c7.38.19,17.61-10.25,23.8-3,.45.53,1.21-.24.76-.76Z"/><path class="l" d="M304.1,184.47c-3.64-11.72,15.89-14.25,20.27-22.68.32-.62-.61-1.16-.93-.55-4.43,8.51-24.33,10.81-20.38,23.51.21.66,1.25.38,1-.29Z"/><path class="l" d="M311.09,152.68q15.24-11.89,30.19-24.15c.54-.44-.23-1.2-.76-.76Q325.57,140,310.32,151.92c-.55.43.22,1.19.76.76Z"/><path class="l" d="M319.92,123.82c6.62-8.46,20-3.47,27-11.63.45-.53-.31-1.29-.76-.76-6.94,8.11-20.32,3.07-27,11.63-.42.54.34,1.31.76.76Z"/><path class="l" d="M315.44,127.33c-8.73-8-23.16-8.83-34.24-7.09-1.31.2-.75,2.19.55,2,10.32-1.62,24.1-.84,32.23,6.56,1,.89,2.44-.56,1.46-1.46Z"/><path class="l" d="M310.21,140.07a16,16,0,0,1-10.14-7.6.54.54,0,0,0-.93.55,17.09,17.09,0,0,0,10.79,8.09c.67.17,1-.88.29-1Z"/><path class="l" d="M306.19,160.24a13.17,13.17,0,0,1-8.79-11.52c0-.69-1.13-.69-1.08,0a14.28,14.28,0,0,0,9.58,12.56c.66.23.94-.81.29-1Z"/><path class="l" d="M147.26,368.08A40.93,40.93,0,0,0,134.75,356c-.59-.37-1.14.57-.55.93a39.61,39.61,0,0,1,12.12,11.68c.39.57,1.32,0,.93-.55Z"/><path class="l" d="M126.28,348.56l-16.1-2.45c-.68-.1-1,.94-.29,1L126,349.6c.68.1,1-.94.29-1Z"/><path class="l" d="M139.42,321c-10.28,4-22.53-8.95-31.74-.19-.5.48.26,1.24.76.76,8.71-8.27,21.14,4.43,31.26.47.64-.25.36-1.3-.29-1Z"/><path class="l" d="M141.94,312.56a38.3,38.3,0,0,0,18,6.51c.69.07.69-1,0-1.08a37.15,37.15,0,0,1-17.44-6.36c-.58-.39-1.12.54-.55.93Z"/><path class="l" d="M150.22,292.71a28.49,28.49,0,0,0,13.59,4.74c.69.06.69-1,0-1.08a27.34,27.34,0,0,1-13-4.59c-.58-.39-1.12.55-.55.93Z"/><path class="l" d="M243.8,223.91c-3.53.12-5.51,2.59-7.24,5.46-3.6,6-6.83,12.2-10.22,18.29-.34.61.59,1.15.93.55L234,236.11c2.08-3.72,4.61-10.93,9.77-11.11.69,0,.7-1.1,0-1.08Z"/><path class="l" d="M209.06,239.28a39.41,39.41,0,0,0-17.63,25.37c-.14.68.9,1,1,.29a38.32,38.32,0,0,1,17.13-24.73c.59-.37,0-1.31-.55-.93Z"/><path class="l" d="M172.9,253.78a19.74,19.74,0,0,0,4.86,11.89c.46.53,1.22-.24.76-.76A18.5,18.5,0,0,1,174,253.78c0-.69-1.12-.7-1.08,0Z"/><path class="l" d="M377.16,202.47c-6.37,3.57-9.95,9.59-13.17,15.93-4.48,8.83-8.87,16.38-17.13,22.28-12.7,9.07-31.08,16-32.76,33.89-.07.69,1,.69,1.08,0,1.82-19.28,23.47-25.25,36.16-36,5.43-4.59,8.85-10.26,12-16.53,3.61-7.15,7.06-14.58,14.35-18.67a.54.54,0,0,0-.55-.93Z"/><path class="l" d="M324.7,391.42c-4.8-2-2.51-7.16-.2-9.69a32.58,32.58,0,0,1,5-4.19,53.85,53.85,0,0,1,9.37-5.35c.63-.29.08-1.22-.55-.93-5.58,2.53-12.95,6.35-16.24,11.83-2,3.35-1.54,7.78,2.35,9.37.64.26.92-.78.29-1Z"/><path class="l" d="M306.07,382.22a35.37,35.37,0,0,1,20.65-19.71c.65-.24.37-1.28-.29-1A36.54,36.54,0,0,0,305,381.93c-.27.64.78.92,1,.29Z"/><path class="l" d="M210.54,370a14.51,14.51,0,0,1,15.1-7.76c.68.1,1-.94.29-1a15.58,15.58,0,0,0-16.32,8.25c-.32.62.61,1.16.93.55Z"/><path class="l" d="M199.75,386.89a41.76,41.76,0,0,1,30.84-11.64c.7,0,.69-1.05,0-1.08a42.85,42.85,0,0,0-31.61,12c-.5.48.26,1.24.76.76Z"/><path class="l" d="M223.37,336.56a41.73,41.73,0,0,1,33.42-8.39c.68.12,1-.92.29-1a42.93,42.93,0,0,0-34.47,8.66c-.55.43.22,1.19.76.76Z"/><path class="l" d="M229.67,307.28a51.88,51.88,0,0,1,42.6-19.75c.7,0,.69-1.06,0-1.08a52.9,52.9,0,0,0-43.37,20.07c-.43.54.33,1.31.76.76Z"/><path class="l" d="M234.73,286a49.24,49.24,0,0,1,26.54-21.63c.65-.23.37-1.27-.29-1a50.41,50.41,0,0,0-27.18,22.12.54.54,0,0,0,.93.55Z"/><path class="l" d="M242.84,262.11a42,42,0,0,1,26.49-22.38.54.54,0,0,0-.29-1,43.05,43.05,0,0,0-27.14,22.88c-.3.62.63,1.17.93.55Z"/><path class="l" d="M435,135.24a27.51,27.51,0,0,0,4.79-11.87c.33-2.31-.45-5.28.13-7.48s4-4.53,5.68-5.56c.83-.51,1.85-.85,2.7-1.32a31.59,31.59,0,0,0,15-19.6.54.54,0,0,0-1-.29,30.63,30.63,0,0,1-8.18,14.21,30,30,0,0,1-6.34,4.74c-2,1.13-4.52,1.58-6.44,2.87-2.28,1.54-2.48,3.76-2.46,6.33.05,6.46-1.06,12-4.8,17.42-.4.57.54,1.11.93.55Z"/><path class="l" d="M432,146.38c4.83-5,11.77-5.4,17.78-8.17,4.83-2.23,7.68-5.85,9.27-10.9,2.49-7.92,3.77-16.36,5.56-24.46l6-27.31c.15-.68-.89-1-1-.29-3.6,16.3-6.86,32.73-10.82,48.95-2,8.34-6.47,12.31-14.46,14.86-4.8,1.53-9.48,2.85-13.08,6.56-.48.5.28,1.26.76.76Z"/><path class="l" d="M591.26,184.79A18.05,18.05,0,0,1,571,172.4c-.2-.66-1.25-.38-1,.29a19.15,19.15,0,0,0,21.63,13.14c.68-.12.39-1.16-.29-1Z"/><path class="l" d="M563.37,189.63a19.74,19.74,0,0,1-19.19-13.76c-.21-.66-1.25-.38-1,.29a20.83,20.83,0,0,0,20.23,14.55.54.54,0,0,0,0-1.08Z"/><path class="l" d="M539.72,189A57.83,57.83,0,0,1,493.2,178.3c-.55-.42-1.09.52-.55.93A58.87,58.87,0,0,0,540,190.07c.68-.14.39-1.18-.29-1Z"/><path class="l" d="M497.89,190.89A33.58,33.58,0,0,1,474,179c-.45-.53-1.21.24-.76.76A34.66,34.66,0,0,0,497.89,192c.69,0,.69-1,0-1.08Z"/><path class="l" d="M476.68,190.64a18.06,18.06,0,0,1-22.25-20.2c.09-.68-.95-1-1-.29A19.14,19.14,0,0,0,477,191.69c.68-.16.39-1.2-.29-1Z"/><path class="l" d="M455.79,188.54a14.57,14.57,0,0,1-10-5.78c-.41-.55-1.35,0-.93.55a15.77,15.77,0,0,0,10.91,6.32c.69.08.68-1,0-1.08Z"/><path class="l" d="M568.93,191.94a18.25,18.25,0,0,0-9.38,9.26l1,.42a10.73,10.73,0,0,1,8.94-7.34l-.14-1.06a17.87,17.87,0,0,0-11,7.94l1,.13a5.93,5.93,0,0,0-4.73-5l-.29,1,6.81,1.13v-1a9.38,9.38,0,0,1-6.39-.06v1a12,12,0,0,1,6.18-.75c.68.09,1-.95.29-1a13.1,13.1,0,0,0-6.76.75.55.55,0,0,0,0,1,10.43,10.43,0,0,0,7,.06c.46-.15.56-.95,0-1l-6.81-1.13c-.67-.11-1,.88-.29,1a4.9,4.9,0,0,1,4,4.22c.09.48.76.49,1,.13a16.75,16.75,0,0,1,10.38-7.44c.58-.14.47-1.14-.14-1.06a11.84,11.84,0,0,0-10,8.13c-.19.57.73,1,1,.42a17.38,17.38,0,0,1,9-8.87c.63-.28.09-1.21-.55-.93Z"/><path class="l" d="M515.54,197.94a111.22,111.22,0,0,0-6,27.27c-.06.69,1,.69,1.08,0a109.93,109.93,0,0,1,6-27c.23-.66-.81-.94-1-.29Z"/><path class="l" d="M518.31,197.56a14.2,14.2,0,0,0-4.74,7.18l1,.29,1.85-7.71-1-.29a26.17,26.17,0,0,1-2.55,7.62l1,.27-.83-7.74c-.07-.68-1.15-.69-1.08,0l.83,7.74c.05.48.74.8,1,.27a27.13,27.13,0,0,0,2.66-7.88c.12-.67-.88-1-1-.29l-1.85,7.71a.54.54,0,0,0,1,.29,13.21,13.21,0,0,1,4.47-6.7c.54-.44-.23-1.2-.76-.76Z"/><path class="l" d="M535.07,185.87a2.9,2.9,0,0,1-3.82-2.76l-.81.47a24.45,24.45,0,0,0,9.57,3l-.14-1.06A13.2,13.2,0,0,1,527.6,182l-.76.76,4.86,3.9c.54.43,1.31-.33.76-.76L527.6,182c-.53-.42-1.27.26-.76.76a14.34,14.34,0,0,0,13.32,3.88c.64-.14.42-1-.14-1.06a23.08,23.08,0,0,1-9-2.89.54.54,0,0,0-.81.47,4,4,0,0,0,5.18,3.8.54.54,0,0,0-.29-1Z"/><path class="l" d="M309.76,150.4a3.79,3.79,0,0,1-2.59,3.95l.53.9,10.09-10.44L317,144a10.86,10.86,0,0,1-7,3.49c-.55.05-.79.95-.14,1.06a9.64,9.64,0,0,0,9.6-3.83c.42-.56-.52-1.1-.93-.55a8.5,8.5,0,0,1-8.38,3.34l-.14,1.06a11.93,11.93,0,0,0,7.78-3.8c.47-.51-.28-1.27-.76-.76l-10.09,10.44c-.35.36,0,1.1.53.9a4.92,4.92,0,0,0,3.39-5c0-.69-1.11-.7-1.08,0Z"/><path class="l" d="M322.53,99l-10.65,2.86a.55.55,0,0,0-.13,1,7.76,7.76,0,0,0,9.65-1.26l-.85-.65-5.45,9.94,1,.42c1.86-5.2-1.58-11.36-7.26-11.72v1.08l12.74,0-.38-.92a15.1,15.1,0,0,0-5.45,12h1.08A13.22,13.22,0,0,0,308,100.55l-.14,1.06a31.71,31.71,0,0,0,11.3-1,.54.54,0,0,0-.29-1,30.9,30.9,0,0,1-11,1c-.64-.06-.68.87-.14,1.06a12.09,12.09,0,0,1,8,10.21c.07.67,1.09.71,1.08,0A14.06,14.06,0,0,1,322,100.55a.55.55,0,0,0-.38-.92l-12.74,0a.54.54,0,0,0,0,1.08c5,.32,7.83,5.87,6.22,10.36-.21.58.7.95,1,.42l5.45-9.94a.54.54,0,0,0-.85-.65,6.64,6.64,0,0,1-8.34,1.09l-.13,1,10.65-2.86a.54.54,0,0,0-.29-1Z"/><path class="l" d="M316.5,102.9l2.54-1.1c.55-.24.15-1.22-.42-1l-1.66.67c-.63.26-.36,1.3.29,1l1.46-.57c.52-.2.51-1.11-.14-1.06a5,5,0,0,0-2.78,1c-.32.24-.39.91.13,1a4,4,0,0,0,3.22-.76c.38-.29.32-1-.27-1a13.36,13.36,0,0,0-3.54.66l.42,1a5.56,5.56,0,0,1,2.37-.52l-.14-1.06a18.29,18.29,0,0,0-3.83,1.91.55.55,0,0,0,0,.93,3.65,3.65,0,0,1,1.47,2.52.54.54,0,0,0,1.08,0l.12-2.77h-1.08v1.25l1.06-.14a3.79,3.79,0,0,0-1.24-2.08l-.76.76.5.87L316,104a8.42,8.42,0,0,1-2.85-1.19c-.53-.34-1.06.41-.65.85a8.45,8.45,0,0,1,2,3.61.54.54,0,0,0,1,0l.8-3.08-1,.13a1.34,1.34,0,0,0,2.12.08c1-1.13-.47-1.64-1.3-2-.63-.28-1.18.65-.55.93l.66.3q.65.21,0,.16a.55.55,0,0,0-1,.13l-.8,3.08h1a9.61,9.61,0,0,0-2.27-4.08l-.65.85a9.27,9.27,0,0,0,3.11,1.3c.3.07.73-.15.68-.52a2.29,2.29,0,0,0-.82-1.63c-.52-.46-1.29.3-.76.76a2.86,2.86,0,0,1,1,1.61.54.54,0,0,0,1.06-.14v-1.25a.54.54,0,0,0-1.08,0l-.12,2.77h1.08a4.85,4.85,0,0,0-2-3.45v.93a17.08,17.08,0,0,1,3.58-1.81.54.54,0,0,0-.14-1.06,6.89,6.89,0,0,0-2.92.66c-.55.26-.16,1.18.42,1a12.22,12.22,0,0,1,3.25-.62l-.27-1a3,3,0,0,1-2.39.65l.13,1a4,4,0,0,1,2.24-.88l-.14-1.06-1.46.57.29,1,1.66-.67-.42-1L316,102c-.64.28-.09,1.21.55.93Z"/><path class="l" d="M313.23,100.07l-10.85-2.71c-.57-.14-1,.73-.42,1l8.73,3.79c.63.27,1.18-.65.55-.93l-9-4-.55.93a73.68,73.68,0,0,0,12.06,4.18l.14-1.06-1.57,0a.54.54,0,0,0-.27,1,12.59,12.59,0,0,1,2.72,2.67.54.54,0,0,0,.9-.24,7.56,7.56,0,0,1,1-2.54l-1-.13,1,2.7a.54.54,0,0,0,1.06-.14l.1-2.39c0-.66-.84-.66-1.06-.14l-.28.68c-.27.64.78.92,1,.29l.28-.68-1.06-.14-.1,2.39,1.06-.14-1-2.7a.55.55,0,0,0-1-.13,12.11,12.11,0,0,0-1.13,2.79l.9-.24a14.24,14.24,0,0,0-2.94-2.84l-.27,1,1.57,0a.54.54,0,0,0,.14-1.06,72,72,0,0,1-11.8-4.07c-.63-.28-1.18.65-.55.93l9,4,.55-.93-8.73-3.79-.42,1,10.85,2.71a.54.54,0,0,0,.29-1Z"/><path class="l" d="M304.74,98.71c-5.76-2.52-10.89-6.11-16.11-9.56-5.71-3.77-11.57-7.34-16.27-12.37-.48-.51-1.24.26-.76.76,4.33,4.63,9.58,8,14.84,11.46,5.76,3.8,11.41,7.87,17.76,10.65.63.28,1.18-.65.55-.93Z"/><path class="l" d="M311.82,149.83a113.33,113.33,0,0,1,12.79-7.73c1-.53.12-2.09-.91-1.55a113.33,113.33,0,0,0-12.79,7.73c-.94.66,0,2.22.91,1.55Z"/><path class="l" d="M312.72,150.79l1.17-1.22-1.41-1.09a2.32,2.32,0,0,1-1,.76l.88,1.5,3.8-3.1c.9-.73-.38-2-1.27-1.27l-3.8,3.1a.91.91,0,0,0,.88,1.5,4.5,4.5,0,0,0,2.11-1.59c.62-.82-.72-1.81-1.41-1.09l-1.17,1.22c-.8.83.47,2.11,1.27,1.27Z"/><path class="l" d="M314.81,269.75c-.41-2.46,1.65-4.5,3.13-6.19,1.35-1.54,2.75-3,4.19-4.47a.9.9,0,0,0-1.27-1.27c-3.09,3.09-8.6,7.49-7.79,12.41.19,1.14,1.92.66,1.74-.48Z"/><path class="l" d="M315.88,268.65l1.13-3.08c.4-1.11-1.3-1.52-1.74-.48l-.48,1.15h1.74a3.81,3.81,0,0,1,.78-3.28l-1.5-.88a.89.89,0,0,1-1.44.48c-.95-.67-1.85.89-.91,1.55a2.69,2.69,0,0,0,4.09-1.55c.21-.81-.91-1.61-1.5-.88a5.75,5.75,0,0,0-1.24,5c.21,1,1.43.73,1.74,0l.48-1.15-1.74-.48-1.13,3.08c-.4,1.09,1.34,1.56,1.74.48Z"/><path class="l" d="M313.55,262.93a80,80,0,0,1,11.7-6.7c1-.49.14-2-.91-1.55a80,80,0,0,0-11.7,6.7c-.95.65,0,2.21.91,1.55Z"/><path class="l" d="M316.36,261.62l-2.12.73.88,1.5a16.48,16.48,0,0,1,3.36-2.82.9.9,0,0,0-.69-1.64,7.55,7.55,0,0,0-2.89,1.55l1.27,1.27a6.28,6.28,0,0,1,2-1.48l-1.23-1.23a.87.87,0,0,1-.53.31.9.9,0,0,0,.48,1.74,2.8,2.8,0,0,0,1.61-1.14c.58-.8-.51-1.58-1.23-1.23a7.61,7.61,0,0,0-2.36,1.77.9.9,0,0,0,1.27,1.27,5.46,5.46,0,0,1,2.09-1.09l-.69-1.64a18.3,18.3,0,0,0-3.72,3.1c-.57.62,0,1.82.88,1.5l2.12-.73c1.09-.38.62-2.12-.48-1.74Z"/><path class="l" d="M320.67,258.46c2.13-4.29,9.49-7.37,13.44-9.78q6.19-3.77,12.54-7.28c.4-.23,0-.85-.36-.62q-7.92,4.41-15.62,9.17c-3.51,2.18-8.69,4.28-10.61,8.14-.21.41.42.78.62.36Z"/><path class="l" d="M323.45,257.29A41.7,41.7,0,0,1,335.08,249c1-.5.13-2.06-.91-1.55a43.11,43.11,0,0,0-12,8.61c-.81.83.46,2.1,1.27,1.27Z"/><path class="l" d="M319.68,145.14c7.84-4,12.47-12.13,20.43-15.93.84-.4.11-1.64-.73-1.24-8,3.81-12.59,11.93-20.43,15.93-.83.42-.1,1.66.73,1.24Z"/><path class="l" d="M279.72,121.23l-3.5.5c-.91.13-.53,1.52.38,1.39l3.5-.5c.91-.13.53-1.52-.38-1.39Z"/><path class="l" d="M281.71,120.23l-6.28,1.43c-.9.21-.52,1.59.38,1.39l6.28-1.43c.9-.21.52-1.59-.38-1.39Z"/><path class="l" d="M283,121.24l-5.07.48c-.91.09-.92,1.53,0,1.44l5.07-.48c.91-.09.92-1.53,0-1.44Z"/><path class="l" d="M331.47,90.28h7.42a.72.72,0,0,0,0-1.44h-7.42a.72.72,0,0,0,0,1.44Z"/><path class="l" d="M332.65,89.55a29.59,29.59,0,0,1,9.59.61c.9.21,1.29-1.18.38-1.39a30.8,30.8,0,0,0-10-.66c-.91.09-.92,1.53,0,1.44Z"/><path class="l" d="M333.81,89.11a18.37,18.37,0,0,1,9,1.54c.84.38,1.57-.87.73-1.24a19.87,19.87,0,0,0-9.7-1.73c-.92.07-.93,1.51,0,1.44Z"/><path class="l" d="M336.17,89.74a93.57,93.57,0,0,1,16.54,3.4.72.72,0,0,0,.38-1.39,95.66,95.66,0,0,0-16.92-3.45c-.92-.1-.91,1.34,0,1.44Z"/><path class="l" d="M344.27,64.95A13.29,13.29,0,0,0,343,57.58c-.4-.84-1.64-.11-1.24.73a11.93,11.93,0,0,1,1.08,6.65c-.11.92,1.33.91,1.44,0Z"/><path class="l" d="M343.11,65a17.05,17.05,0,0,0-3.68-12.46c-.54-.69-1.45.19-1.13.87,1.65,3.55,3.49,7.12,7.12,9V61.08a5.61,5.61,0,0,0-3,3.57.72.72,0,0,0,1.32.55l1.71-3.2c.44-.82-.81-1.55-1.24-.73l-1.71,3.2,1.32.55a4.2,4.2,0,0,1,2.33-2.71.72.72,0,0,0,0-1.24c-3.41-1.73-5.07-5.12-6.6-8.44l-1.13.87A15.61,15.61,0,0,1,341.67,65c-.09.92,1.35.91,1.44,0Z"/><path class="l" d="M344.75,59.42a.72.72,0,0,0,0-1.44.72.72,0,0,0,0,1.44Z"/><path class="l" d="M345.17,59.72l1,.69.55-1.32c-4.54-1.51-8.29-9-11.37-12.74q-6-7.16-12-14.29c-.6-.71-1.61.31-1,1,4.7,5.61,9.52,11.13,14.08,16.85,2.94,3.68,5.15,9,9.9,10.55.82.27,1.18-.87.55-1.32l-1-.69c-.76-.54-1.48.71-.73,1.24Z"/><path class="l" d="M345.15,60l-.72.29.69.53a2,2,0,0,1,.14-1.45c.24-.66-.75-1.25-1.2-.7-.92,1.13,0,2.22,1.15,2.72V60.16a9.64,9.64,0,0,0-4.74,6.66c-.14.74.94,1.34,1.32.55a23,23,0,0,1,7-8.61c.73-.55,0-1.8-.73-1.24a24.49,24.49,0,0,0-7.53,9.13l1.32.55a8.26,8.26,0,0,1,4.08-5.8.73.73,0,0,0,0-1.24,3.41,3.41,0,0,1-.86-.46l-1.2-.7a3.8,3.8,0,0,0-.14,2.21.72.72,0,0,0,.69.53,2.75,2.75,0,0,0,1.45-.49c.76-.52,0-1.77-.73-1.24Z"/><path class="l" d="M385.32,355.14l1-2.68L385,351.9a16,16,0,0,1-1.78,3.52l1.32.17a8.61,8.61,0,0,0-2.1-4.48l-.87,1.13a6.91,6.91,0,0,0,5,.62l-.55-1.32c-5.52,3.08-11.16-11.2-12.74-14.83-.37-.85-1.61-.11-1.24.73,2,4.58,4.32,9.46,7.54,13.33,1.88,2.26,4.44,3.54,7.18,2a.72.72,0,0,0-.55-1.32l-3.89-.48a.72.72,0,0,0-.87,1.13,6.17,6.17,0,0,1,1.73,3.84c.11.65,1,.64,1.32.17a18.37,18.37,0,0,0,1.92-3.87c.3-.81-.88-1.18-1.32-.55a6.28,6.28,0,0,0-1.22,3.41c-.09.92,1.35.92,1.44,0Z"/><path class="l" d="M383.61,350.51a2.36,2.36,0,0,1-2.4-1.15.72.72,0,0,0-1.24.73,3.85,3.85,0,0,0,4,1.81c.91-.16.53-1.55-.38-1.39Z"/><path class="l" d="M414.9,324.47l1,1.52,1.39-.38-.81-3.14-1.41.19-.74,4.07c-.39.67.37,1.26,1,1l3.84-1.71a.72.72,0,0,0-.36-1.34c-2.68.27-2.89-4.91-2.89-7,0-4.06,1.72-8.78,3.43-12.38a31.49,31.49,0,0,1,14.34-15c.83-.42.1-1.66-.73-1.24a32.75,32.75,0,0,0-14.85,15.49,38.61,38.61,0,0,0-3.3,10.28c-.67,4.1.54,7.22,1.4,11.19a.72.72,0,0,0,.89.5l1.71-.41-.36-1.34-3.84,1.71,1,1a6.62,6.62,0,0,0,.89-5.18c-.15-.79-1.52-.62-1.41.19a8.4,8.4,0,0,0,.86,3.52c.33.85,1.64.53,1.39-.38-.4-1.43-.23-1.19-1.36-2.16-.7-.6-1.72.41-1,1Z"/><path class="m" d="M558.45,193l-.9.73a2.46,2.46,0,0,0-.64,2.43,2.57,2.57,0,0,0,1.75,1.75,3.1,3.1,0,0,0,3.86-2.16,2.53,2.53,0,0,0-2.41-3.16l-1.11,0a2.52,2.52,0,0,0-2.5,2.5,2.55,2.55,0,0,0,2.5,2.5l1.11,0-2.41-3.16a1.34,1.34,0,0,1,1.17-1.1,1.23,1.23,0,0,1,1.13-.24l1.1,4.18.9-.73a2.51,2.51,0,0,0,0-3.54,2.57,2.57,0,0,0-3.54,0Z"/><path class="m" d="M556.3,199.31l.31.31a2.5,2.5,0,1,0,3.54-3.54l-.31-.31a2.5,2.5,0,0,0-3.54,3.54Z"/><path class="m" d="M555,196l-1.62,0a.5.5,0,0,0-.25.93,8.53,8.53,0,0,1,4.62,9.58c-.14.63.82.89,1,.27a9.52,9.52,0,0,0-5.08-10.71l-.25.93,1.62,0a.5.5,0,0,0,0-1Z"/><path class="m" d="M557.81,200.43a8,8,0,0,0-.25,2.53.5.5,0,0,0,.93.25l.87-1.66-.93-.25,0,2.17c0,.55.87.7,1,.13A6.38,6.38,0,0,0,554,196l-.13,1a26.35,26.35,0,0,0,10.72-.81l-.39-.91c-8,4.18-6.33,14.26-4.41,21.41,1.39,5.18,3,11.06.6,16.21-1.94,4.11-6,6.8-8.64,10.43-.38.52.49,1,.86.5,2.44-3.36,6-5.84,8.1-9.44,2-3.39,2.17-7.38,1.6-11.19-1.23-8.28-7.89-21.71,2.39-27.06a.5.5,0,0,0-.39-.91,25.64,25.64,0,0,1-10.46.77c-.55-.07-.69.91-.13,1a5.41,5.41,0,0,1,4.67,6.37l1,.13,0-2.17a.5.5,0,0,0-.93-.25l-.87,1.66.93.25a5.07,5.07,0,0,1,.22-2.26.5.5,0,0,0-1-.27Z"/><path class="m" d="M559.24,211.66c.17-6.06-.29-13.82-7.13-16-.61-.2-.88.77-.27,1,6.36,2.06,6.55,9.53,6.39,15.07a.5.5,0,0,0,1,0Z"/><path class="m" d="M535.41,185.59a14.64,14.64,0,0,1-7.19-6.77c-.27-.52-1-.15-.91.39a11.24,11.24,0,0,0,8.94,8.6c.51.1.94-.68.39-.91a17.61,17.61,0,0,1-5.8-3.92l-.71.71a22.89,22.89,0,0,0,8.77,4.25l.13-1a19.31,19.31,0,0,1-7.15-.84c-1.81-.59-2.35-1.35-2.88-3.18-.33-1.14-.47-2.39-.7-3.56a.5.5,0,0,0-1,0c-.55,2.31.49,5.69-1.7,7.33l.61.79c.5-.53,2.35-3.8,3-2.84.15.22-.14,1,.18,1.49l.3-.73-1.9.52.62.62a7,7,0,0,0,.23-4.69.5.5,0,0,0-1,.27,6.13,6.13,0,0,1-.23,4.15c-.14.37.28.71.62.62l1.9-.52a.5.5,0,0,0,.3-.73l.07-.67a.51.51,0,0,0,.08-.61,1.68,1.68,0,0,0-2.14-.81c-1.49.46-1.77,2.21-2.74,3.24-.37.39.13,1.14.61.79,2.64-2,1.49-5.11,2.16-7.93h-1c.46,2.36.3,5.58,2.67,6.83,2.64,1.4,6.1,1.65,9,1.48a.5.5,0,0,0,.13-1,21.8,21.8,0,0,1-8.33-4c-.49-.38-1.17.23-.71.71a18.28,18.28,0,0,0,6,4.08l.39-.91a10.25,10.25,0,0,1-8.24-7.9l-.91.39a15.47,15.47,0,0,0,7.55,7.13c.58.26,1.09-.6.5-.86Z"/><path class="m" d="M514,201.78l1.51-1.81c.26-.31.11-.88-.35-.85l-1.58.09.13,1a19.11,19.11,0,0,0,3.59-1.94.5.5,0,0,0-.25-.93,7,7,0,0,0-2.87.55c-.58.24-.35,1.19.27,1a13.19,13.19,0,0,0,2.84-1.4.5.5,0,0,0-.39-.91,6.85,6.85,0,0,0-3.66,1.7.51.51,0,0,0,.22.84l.79.75a.51.51,0,0,0,.73.56l1.13-.57-.61-.79a20.14,20.14,0,0,0-2.5,4l.91.39a8.48,8.48,0,0,1,4.33-5.22c.47-.25.21-.9-.25-.93a5,5,0,0,0-4.51,2c-1.5,2.13-.38,4.67-1,7a.5.5,0,0,0,1,.27c.4-1.49.11-2.9.17-4.41a3.94,3.94,0,0,1,4.37-3.91l-.25-.93a9.48,9.48,0,0,0-4.79,5.81c-.16.53.67.91.91.39a19,19,0,0,1,2.34-3.78.5.5,0,0,0-.61-.79l-1.13.57.73.56c.35-1.09-.57-1.65-1.49-2l.22.84a6,6,0,0,1,3.22-1.45l-.39-.91a12,12,0,0,1-2.6,1.3l.27,1a6.37,6.37,0,0,1,2.61-.52l-.25-.93a17.88,17.88,0,0,1-3.36,1.83c-.48.2-.48,1,.13,1l1.58-.09-.35-.85-1.51,1.81c-.41.49.29,1.2.71.71Z"/><path class="m" d="M491.59,196.75c-2,4.3-1.75,8.9-1.68,13.54a26.28,26.28,0,0,1-.71,7.76c-.77,2.63-2.62,4.74-3.24,7.41-.15.63.82.89,1,.27.56-2.41,2.2-4.34,3-6.67a21.16,21.16,0,0,0,1-6.34c.14-5.2-.76-10.58,1.55-15.46.27-.58-.59-1.09-.86-.5Z"/><path class="m" d="M497.09,198.19a14.5,14.5,0,0,0-6.94,9.56l.91-.12c-1.85-3.91,2.18-6.83,5-8.63l-.61-.79a23.68,23.68,0,0,0-5.17,6.21l.91.39a28.39,28.39,0,0,1,2.6-5.28c.35-.56-.49-1-.86-.5l-1.89,2.56.91.12a3.13,3.13,0,0,1,.24-2.8l-.91-.39-.87,2.82,1,.27a4.13,4.13,0,0,1,2.83-3.1l-.49-.84a16.4,16.4,0,0,0-2,3.25c-.27.58.59,1.09.86.5a15.29,15.29,0,0,1,1.85-3c.28-.35,0-1-.49-.84a5.13,5.13,0,0,0-3.53,3.8.5.5,0,0,0,1,.27l.87-2.82a.5.5,0,0,0-.91-.39A3.9,3.9,0,0,0,491,202a.51.51,0,0,0,.91.12l1.89-2.56L493,199a29.71,29.71,0,0,0-2.7,5.52c-.2.54.64.87.91.39a22.91,22.91,0,0,1,5-6c.43-.37-.13-1.09-.61-.79-3.4,2.15-7.5,5.52-5.39,10a.5.5,0,0,0,.91-.12,13.53,13.53,0,0,1,6.48-9,.5.5,0,0,0-.5-.86Z"/><path class="m" d="M479.92,198.63c-5.9,5-4.38,13.2-2.88,19.8a35.14,35.14,0,0,1,.48,15.29,19.18,19.18,0,0,1-2.11,6.52c-1.51,2.42-4,3.36-6.59,4.21-.61.2-.35,1.17.27,1,3.45-1.14,6.36-2.57,7.9-6.06a31.83,31.83,0,0,0,2.31-13.1c-.27-8.55-6.76-20.07,1.34-26.92.49-.42-.22-1.12-.71-.71Z"/><path class="m" d="M582.57,184.61c-6.32,2.47-14.21-.33-17.17-6.58-1.8-3.8-1.57-8.19-2.08-12.27a56.3,56.3,0,0,0-1.93-9.19,59.09,59.09,0,0,0-22.31-31.11c-.53-.37-1,.49-.5.86A57.9,57.9,0,0,1,562,163.6c1.12,6.65.2,14.22,5.74,19.13a14.87,14.87,0,0,0,15.09,2.84c.59-.23.33-1.2-.27-1Z"/><path class="m" d="M589,180.88a15.48,15.48,0,0,1-12.38.41c-.52-.2-.9.68-.39.91a19.57,19.57,0,0,0,7.25,1.82l-.13-1-8.26,1.75c-.64.13-.36,1.07.27,1a3.1,3.1,0,0,0,2.55-3.93.51.51,0,0,0-.91-.12,2,2,0,0,0,.31,2.61c1.13,1.13,2.8.67,4.13.23a.5.5,0,0,0-.27-1l-3.1.44.39.91a3.43,3.43,0,0,1,3-.59c.63.11.9-.85.27-1a4.93,4.93,0,0,0-3.72.69.5.5,0,0,0,.39.91l3.1-.44-.27-1q-1.85.92-3.31-1.37l-.91-.12q.3,2.39-1.85,2.7l.27,1,8.26-1.75c.58-.12.41-1-.13-1a18.07,18.07,0,0,1-6.74-1.68l-.39.91a16.46,16.46,0,0,0,13.15-.51c.58-.27.07-1.14-.5-.86Z"/><path class="m" d="M566.22,184.67a11.78,11.78,0,0,1-8.15-4.36.5.5,0,0,0-.85.35,6.21,6.21,0,0,0,3.54,5.18l.39-.91a5.72,5.72,0,0,1-4.31-4.92l-1,.27a39.14,39.14,0,0,0,3,6l.3-.73a4.2,4.2,0,0,1-3.12-.23l-.12.91,5-.76-.39-.91c-2.51,1.11-2.86-3.85-3.48-5.2l-.86.5a20.18,20.18,0,0,0,3.73,4.78c.47.44,1.18-.26.71-.71a19.35,19.35,0,0,1-3.58-4.58c-.32-.57-1.13-.07-.86.5.93,2,1.22,7.16,4.85,5.56.56-.25.12-1-.39-.91l-5,.76a.5.5,0,0,0-.12.91,5.36,5.36,0,0,0,3.89.33.51.51,0,0,0,.3-.73,37.6,37.6,0,0,1-2.87-5.8.5.5,0,0,0-1,.27,6.66,6.66,0,0,0,5,5.62c.53.14.91-.66.39-.91a5.22,5.22,0,0,1-3-4.31l-.85.35a12.76,12.76,0,0,0,8.86,4.65c.64.06.64-.94,0-1Z"/><path class="m" d="M559.47,185l1.67,1.46.35-.85a1.28,1.28,0,0,1-1.15-1l-.84.49.8.72c.48.43,1.19-.27.71-.71l-.8-.72a.5.5,0,0,0-.84.49,2.31,2.31,0,0,0,2.11,1.69.5.5,0,0,0,.35-.85l-1.67-1.46c-.48-.42-1.19.28-.71.71Z"/><path class="m" d="M512.61,186.35a34.52,34.52,0,0,1-5-1.29c-1.32-.46-2.7-1.28-4.12-1.29-2.51,0-3.92,2.92-6.4,2.66-.56-.06-.68.86-.13,1a9.52,9.52,0,0,0,7.14-1,.5.5,0,0,0,.1-.79,2.07,2.07,0,0,0-2.13-.48.5.5,0,0,0,0,1l4.37.92a.5.5,0,0,0,.27-1,49.13,49.13,0,0,1-12.64-7l-.5.86a58.38,58.38,0,0,1,10.94,7.06l.35-.85a28.55,28.55,0,0,0-6.44,1.07c-.52.15-.44,1.05.13,1l10.92-1.36c.63-.08.64-1.08,0-1l-10.92,1.36.13,1a27.47,27.47,0,0,1,6.18-1c.39,0,.71-.56.35-.85A59.56,59.56,0,0,0,494.12,179a.5.5,0,0,0-.5.86A50,50,0,0,0,506.49,187l.27-1-4.37-.92v1l1.16.22.1-.79a8.49,8.49,0,0,1-6.37.93l-.13,1c2.2.23,3.3-1.62,5.17-2.37s3.44.39,5.08,1a34.28,34.28,0,0,0,5,1.29c.63.12.9-.84.27-1Z"/><path class="m" d="M509.26,185.32a54.57,54.57,0,0,1-17-7.93c-.53-.37-1,.5-.5.86a55.34,55.34,0,0,0,17.2,8,.5.5,0,0,0,.27-1Z"/><path class="m" d="M498.08,187.8a2.81,2.81,0,0,0,.26-5.44c-.58-.2-.8.6-.39.91l3.61,2.71c.51.39,1-.48.5-.86l-3.61-2.71-.39.91a1.81,1.81,0,0,1-.26,3.51c-.63.14-.36,1.1.27,1Z"/><path class="m" d="M502.27,185.56a6.6,6.6,0,0,1,3.11.69l.39-.91a16.19,16.19,0,0,1-5.67-2c-.47-.28-1.06.42-.61.79l2.09,1.66c.5.4,1.21-.31.71-.71l-2.09-1.66-.61.79a17,17,0,0,0,5.91,2.13c.51.08.94-.64.39-.91a7.75,7.75,0,0,0-3.62-.83.5.5,0,0,0,0,1Z"/><path class="m" d="M478,188.55a29.29,29.29,0,0,0,4.88-.15c.37,0,.73-.55.35-.85a78.3,78.3,0,0,1-14.74-15.71c-.37-.52-1.24,0-.86.5a79.23,79.23,0,0,0,14.9,15.91l.35-.85a29.29,29.29,0,0,1-4.88.15c-.64,0-.64,1,0,1Z"/><path class="m" d="M492.11,187l-12.25-3.79c-.62-.19-.88.77-.27,1l12.25,3.79c.62.19.88-.77.27-1Z"/><path class="m" d="M482.86,186.32l1.05.49.25-.93a12.29,12.29,0,0,1-3.93-.74l-.27,1a11.18,11.18,0,0,1,3.93,1.37l.39-.91a8.72,8.72,0,0,1-3.13-1.27l-.25.93a6.69,6.69,0,0,1,3.41,1l.39-.91a18,18,0,0,1-4.63-2.1l-.39.91a20.1,20.1,0,0,1,6,2.39l.39-.91a19.15,19.15,0,0,1-8.52-5.16l-.71.71a3,3,0,0,1-1.27,5.22.5.5,0,0,0,0,1,3.78,3.78,0,0,0,3.72-.68c.33-.29.57-.88.89-1.12,1-.73,3.16,0,4.31.31a.5.5,0,0,0,.27-1,28.62,28.62,0,0,1-5.9-2.26.5.5,0,0,0-.61.79l.92,1.07.71-.71a84.22,84.22,0,0,1-10.54-12.7c-.36-.53-1.23,0-.86.5A85.55,85.55,0,0,0,479.2,185.5c.46.46,1.12-.23.71-.71l-.92-1.07-.61.79a29.7,29.7,0,0,0,6.13,2.36l.27-1a22.75,22.75,0,0,0-4.82-.66.51.51,0,0,0-.48.37,2.81,2.81,0,0,1-3.63,1.78v1a4,4,0,0,0,1.71-6.89.5.5,0,0,0-.71.71,20.2,20.2,0,0,0,9,5.41.5.5,0,0,0,.39-.91,20.92,20.92,0,0,0-6.27-2.49.5.5,0,0,0-.39.91,18.67,18.67,0,0,0,4.87,2.2.5.5,0,0,0,.39-.91,7.67,7.67,0,0,0-3.91-1.17.5.5,0,0,0-.25.93,9.3,9.3,0,0,0,3.37,1.37.5.5,0,0,0,.39-.91,11.7,11.7,0,0,0-4.17-1.47.5.5,0,0,0-.27,1,13,13,0,0,0,4.2.77c.47,0,.71-.72.25-.93l-1.05-.49c-.58-.27-1.09.59-.5.86Z"/><path class="m" d="M480,185.2a.59.59,0,0,1-.42-.23.5.5,0,0,0-.79.1,3.43,3.43,0,0,1-1.38,1.61.5.5,0,0,0,.5.86,2.73,2.73,0,0,0,1.4-1.39l-.43.25a7.33,7.33,0,0,0,1.43-.22.51.51,0,0,0,.3-.73,4.58,4.58,0,0,0-1.9-2c-.56-.31-1.07.55-.5.86a3.66,3.66,0,0,1,1.54,1.61l.3-.73a5.94,5.94,0,0,1-1.16.18.5.5,0,0,0-.43.25,1.91,1.91,0,0,1-1,1l.5.86a4.32,4.32,0,0,0,1.74-2l-.79.1a1.74,1.74,0,0,0,.86.49c.62.15.89-.81.27-1Z"/><path class="m" d="M481.18,183.65c-2.72-1.28-4.94-3.69-7.06-5.77s-4.12-4.23-6-6.46c-.37-.42-1.12.14-.79.61a59.85,59.85,0,0,0,13.66,13.67c.52.38,1-.49.5-.86a58.33,58.33,0,0,1-13.3-13.31l-.79.61c2.14,2.47,4.37,4.85,6.72,7.11,2,1.93,4,4.08,6.6,5.28.58.27,1.09-.59.5-.86Z"/><path class="m" d="M474.23,179.75a49.76,49.76,0,0,1-5.25-6,38.76,38.76,0,0,0-4.1-5.3c-.46-.45-1.17.26-.71.71,1.85,1.79,3.12,4,4.68,6.07a51.33,51.33,0,0,0,4.67,5.25c.46.45,1.17-.25.71-.71Z"/><path class="m" d="M469.84,172.75a31.88,31.88,0,0,0-4.23-4.08c-.49-.39-1.16.23-.71.71,4.92,5.19,9.72,10.57,15,15.38.48.43,1.18-.27.71-.71-5.3-4.81-10.09-10.19-15-15.38l-.71.71a31.88,31.88,0,0,1,4.23,4.08c.42.49,1.13-.22.71-.71Z"/><path class="m" d="M466.53,186.54a28.53,28.53,0,0,1-9.15-3.06c-.34-.18-.91.13-.73.56a2.73,2.73,0,0,1-.69,3.27c-.39.37,0,.92.49.84a6,6,0,0,0,2.83-1.34A.5.5,0,0,0,459,186l-.72-.13.12.91.82-.44c.42-.16.53-.85,0-1l-.55-.12v1l1.13.27.25-.93-.88-.18c-.61-.21-.87.75-.27,1a15.41,15.41,0,0,1,2.35,1c.57.31,1.07-.55.5-.86a16.82,16.82,0,0,0-2.59-1.14l-.27,1a2.83,2.83,0,0,0,1.14.22c.52,0,.64-.68.25-.93a2.25,2.25,0,0,0-1.9-.37.5.5,0,0,0,0,1l.55.12v-1a3.2,3.2,0,0,0-1.06.55c-.32.22-.34.83.12.91l.72.13-.22-.84a5.07,5.07,0,0,1-2.39,1.08l.49.84a3.68,3.68,0,0,0,.95-4.24l-.73.56a29.3,29.3,0,0,0,9.39,3.16c.63.1.9-.86.27-1Z"/><path class="m" d="M445.92,188a48,48,0,0,0,5-.72.5.5,0,0,0,0-1,10.7,10.7,0,0,1-3.33-1.27.51.51,0,0,0-.61.08,8.45,8.45,0,0,1-2.14,1.82l.61.79a3.79,3.79,0,0,1,3.69-.68c.61.2.88-.77.27-1a4.81,4.81,0,0,0-4.66.94c-.44.37.13,1.07.61.79a9.32,9.32,0,0,0,2.34-2l-.61.08a11.5,11.5,0,0,0,3.57,1.38v-1a45.43,45.43,0,0,1-4.72.68c-.64.06-.64,1.06,0,1Z"/><path class="m" d="M476.37,205.69c1.25-3.3,1.62-6.71-1.44-9.12-.5-.39-1.21.31-.71.71,2.78,2.19,2.31,5.18,1.18,8.14-.23.6.74.86,1,.27Z"/><path class="m" d="M477.74,201.2l.54-.89a.5.5,0,0,0-.61-.79l-.5.23.68.68.48-1-.93-.25a2.93,2.93,0,0,1,0,1.05.5.5,0,0,0,.75.43,5,5,0,0,0,1.33-1.12c.34-.4-.12-1.15-.61-.79l-1,.73.73.56.25-.53-.91-.39c-1,2.52-2.64,5.27-2.67,8.06a.5.5,0,0,0,1,0c0-2.66,1.63-5.38,2.63-7.8.22-.54-.62-.84-.91-.39a2.3,2.3,0,0,0-.35.76c-.12.39.38.83.73.56l1-.73-.61-.79a4.29,4.29,0,0,1-1.13,1l.75.43a2.93,2.93,0,0,0,0-1.05c0-.45-.7-.74-.93-.25l-.48,1a.5.5,0,0,0,.68.68l.5-.23-.61-.79a3.41,3.41,0,0,0-.8,1.33c-.21.61.75.87,1,.27Z"/><path class="m" d="M477,199.86l.25.2.49-.84q.11.45.31.24l.24-.17.47-.34c.51-.38,0-1.24-.5-.86s-1.13.64-1.33,1.13a.74.74,0,0,0,.55,1c.45.1.9-.5.49-.84l-.25-.2c-.49-.41-1.2.3-.71.71Z"/><path class="m" d="M474.88,207.71a7.46,7.46,0,0,0,.9,3.75c.3.57,1.17.06.86-.5a6.41,6.41,0,0,1-.77-3.24.5.5,0,0,0-1,0Z"/><path class="m" d="M475.94,209c-1.08-2.47.13-3.88.7-6.08a3.85,3.85,0,0,0-.11-2.51c-.91-2.2-3.23-2.9-5.42-2.86a.5.5,0,0,0,0,1c1.9,0,3.93.54,4.5,2.55.39,1.4-.35,2.41-.79,3.7a6.09,6.09,0,0,0,.25,4.7c.26.59,1.12.08.86-.5Z"/><path class="m" d="M498.82,187c4.45-2.65-7.64-10-9.5-10.92-.57-.29-1.08.57-.5.86a31.78,31.78,0,0,1,5.23,3.33c.64.51,6,4.86,4.27,5.86a.5.5,0,0,0,.5.86Z"/><path class="m" d="M492.09,177.29a33.58,33.58,0,0,1-3.38-1.52c-.57-.3-1.08.57-.5.86a36,36,0,0,0,3.62,1.62c.6.23.86-.74.27-1Z"/><path class="m" d="M452.12,156a57.49,57.49,0,0,1,14.56,15.31c.35.54,1.22,0,.86-.5a58.85,58.85,0,0,0-14.92-15.66c-.52-.38-1,.49-.5.86Z"/><path class="m" d="M464.67,168.28q-2-3.34-4.34-6.5c-.37-.52-1.24,0-.86.5q2.3,3.17,4.34,6.5c.34.55,1.2,0,.86-.5Z"/><path class="m" d="M476,187.87c1.18-.68,2.47-1.67,2.08-3.21a7.3,7.3,0,0,0-1.45-2.32L474.12,179c-.38-.51-1.24,0-.86.5l2.47,3.37a10.73,10.73,0,0,1,1,1.35c.8,1.61-.1,2.14-1.26,2.81a.5.5,0,0,0,.5.86Z"/><path class="l" d="M416.06,325.85a80.14,80.14,0,0,1,1.79-18.33c.15-.68-.9-1-1-.29A81.32,81.32,0,0,0,415,325.85a.54.54,0,0,0,1.08,0Z"/><path class="l" d="M417.55,325.85l-.55-9.39c-.16-2.81-1-7.52,2.23-8.84.64-.26.36-1.3-.29-1-2.15.87-2.91,2.67-3.13,4.91-.47,4.66.39,9.7.66,14.36,0,.69,1.12.7,1.08,0Z"/><path class="l" d="M274.36,387.22a23.48,23.48,0,0,0,7.4-8.58c.31-.62-.62-1.17-.93-.55a22.36,22.36,0,0,1-7,8.19c-.56.4,0,1.34.55.93Z"/><path class="l" d="M271.32,386.75a35.47,35.47,0,0,0,11.57-2.59.55.55,0,0,0,.24-.9q-1.21-7.78-2.09-3.45a5.47,5.47,0,0,1-2,3.39,27.53,27.53,0,0,1-3.21,2.85l.85.65c.91-2,2.23-5.82,4-7.24,1.41-1.11-.41,1.87-.53,2.08a12.46,12.46,0,0,1-4.8,4.48l.65.85a40.26,40.26,0,0,0,3.78-5.7c.28-.51-.44-1.15-.85-.65l-2.2,2.69c-.35.43.12,1.25.65.85l1.81-1.36a.54.54,0,0,0-.55-.93,12.25,12.25,0,0,0-3,2.13.54.54,0,0,0,.65.85l1.41-.91c.49-.31.17-1.23-.42-1a17.6,17.6,0,0,0-6.18,4.19c-.41.42.14,1.21.65.85a40.73,40.73,0,0,0,8.4-7.76c3.18-4,4.83-8.67,7.55-12.89,3.18-4.94,8-7.8,13.12-10.46,2-1,15.49-9.21,16.7-6.69.3.63,1.23.08.93-.55-1.25-2.6-4.31-.83-6.16.1-5.87,2.93-12,5.78-17.54,9.32a27,27,0,0,0-9.84,11.15c-3.45,6.77-7.41,12.4-13.7,16.85l.65.85a16.47,16.47,0,0,1,5.7-3.92l-.42-1-1.41.91.65.85a8.07,8.07,0,0,1,2.82-2l-.55-.93-1.81,1.36.65.85,2.2-2.69-.85-.65a37.6,37.6,0,0,1-3.61,5.48c-.36.46.08,1.17.65.85a13.19,13.19,0,0,0,6.89-10.4.54.54,0,0,0-.92-.38,45.71,45.71,0,0,0-6.15,10,.54.54,0,0,0,.85.65c3.47-2.79,6.66-5.88,6-10.61a.54.54,0,0,0-.9-.24c-1.61,2.08-1.43,3.62-1,6,.26,1.36.85.62.33,1.75-.71,1.56-8.42,1.84-9.73,1.92-.69,0-.7,1.12,0,1.08Z"/><path class="l" d="M321.07,349.15a12.86,12.86,0,0,0-6.3-1c-.69.06-.69,1.14,0,1.08a11.77,11.77,0,0,1,5.76.87c.63.27,1.18-.66.55-.93Z"/><path class="l" d="M321.1,348.63a6.66,6.66,0,0,0-7.54.13c-.47.33-.2,1.2.42,1a8.64,8.64,0,0,1,5.44-.15l.14-1.06a32.42,32.42,0,0,0-9.28,1.22.54.54,0,0,0,.29,1,31.41,31.41,0,0,1,9-1.18.54.54,0,0,0,.14-1.06,9.66,9.66,0,0,0-6,.15l.42,1a5.62,5.62,0,0,1,6.45-.13c.59.38,1.13-.56.55-.93Z"/><path class="l" d="M305.1,379.74a9.47,9.47,0,0,1-4.83,3.18c-.45.16-.57.94,0,1,4.8.84,6.82-3,8.17-7,.2-.59-.68-.93-1-.42-2.14,3.63-4,9.3,1.38,10.91a.54.54,0,0,0,.42-1,24.38,24.38,0,0,0-11.25-3v1.08l6.77.05v-1.08l-2.95.1a.55.55,0,0,0-.38.92l.29.36a.52.52,0,0,0,.53.14,3,3,0,0,0,1.51-1.1c.87-1,1.63-3.2,2.36-4.33a48,48,0,0,1,3.41-4.5c3.81-4.61,7.92-9.87,14.06-11.16.68-.14.39-1.18-.29-1-4.83,1-8.13,4.19-11.34,7.76-1.67,1.86-3.33,3.74-4.84,5.72-1.15,1.51-6.45,8.36-2.34,8.22a.54.54,0,0,0,0-1.08l-6.77-.05a.54.54,0,0,0,0,1.08,23,23,0,0,1,10.71,2.89l.42-1c-5.33-1.59-2.12-7-.74-9.32l-1-.42c-1,2.91-2.31,7.09-6.84,6.29v1a13,13,0,0,0,5.3-3.45c.48-.5-.28-1.27-.76-.76Z"/><path class="l" d="M316.11,387.11a18,18,0,0,0,5.55-4.19l-.9-.53a6.06,6.06,0,0,0,4.67,7.11v-1a13.21,13.21,0,0,1-8.17-.77l-.14,1.06a3.68,3.68,0,0,0,3.09-1,.54.54,0,0,0-.24-.9l-2.12-.65-.14,1.06c1.36-.16,5.08-4.43,6.48-5.63q1.67-1.43,3.39-2.8,2.24-1.77,4.58-3.42c1-.72,2.83-2.86,3.27-1,.16.68,1.2.39,1-.29l-.42-1.74a.54.54,0,0,0-.79-.32c-2.9,1.9-5.73,3.9-8.45,6-2.4,1.9-5.88,4.11-7.57,6.7-1.25,1.91-.44,5.78,2.3,3.77a.55.55,0,0,0,.11-.85,4,4,0,0,0-3.94-1.5.54.54,0,0,0-.14,1.06l2.12.65-.24-.9-2.33.71c-.66,0-.66.85-.14,1.06a14.07,14.07,0,0,0,8.75.77.54.54,0,0,0,0-1,5,5,0,0,1-3.92-5.78c.07-.48-.5-1-.9-.53a17.64,17.64,0,0,1-5.33,4c-.62.31-.08,1.24.55.93Z"/><path class="l" d="M316.94,386.68h4.72V385.6l-3.47,0,.14,1.06a9.12,9.12,0,0,0,4.6-4,.54.54,0,0,0-.93-.55,7.94,7.94,0,0,1-4,3.53c-.53.22-.51,1.07.14,1.06l3.47,0a.54.54,0,0,0,0-1.08h-4.72a.54.54,0,0,0,0,1.08Z"/><path class="l" d="M221.36,343.78l-2.59.16c-.58,0-.77.92-.14,1.06a181.06,181.06,0,0,0,23.95,3.88c.69.07.69-1,0-1.08A178.88,178.88,0,0,1,218.91,344l-.14,1.06,2.59-.16c.69,0,.7-1.12,0-1.08Z"/><path class="l" d="M221.31,344.66a38.44,38.44,0,0,1,10.48,2.74c.64.27.92-.78.29-1l-11.26-4.71c-.56-.23-1,.74-.42,1l9.92,4.3c.63.27,1.18-.66.55-.93l-9.92-4.3-.42,1,11.26,4.71.29-1a39.37,39.37,0,0,0-10.77-2.78c-.69-.08-.68,1,0,1.08Z"/><path class="l" d="M221.64,343.36a15.08,15.08,0,0,0,2.05.64q1.5.57,3,1.08c1.88.64,3.77,1.21,5.68,1.74.58.16,1-.7.42-1a128.33,128.33,0,0,0-13-5.74c-.65-.25-.93.8-.29,1a125.78,125.78,0,0,1,12.71,5.63l.42-1A103.08,103.08,0,0,1,221.43,342a.54.54,0,0,0-.53.14,1.29,1.29,0,0,0,.19,2.2c.58.39,1.12-.54.55-.93Z"/><path class="l" d="M212.32,363.15a3.39,3.39,0,0,0,5-.77.55.55,0,0,0-.61-.79,11.65,11.65,0,0,0-6.29,5.48c-.33.61.61,1.16.93.55a10.52,10.52,0,0,1,5.65-5l-.61-.79a2.29,2.29,0,0,1-3.33.55c-.53-.44-1.3.32-.76.76Z"/><path class="l" d="M228.62,311.85a55.28,55.28,0,0,0,6.48-9.66.54.54,0,0,0-.85-.65,25.25,25.25,0,0,0-6.54,7.71.54.54,0,0,0,.93.55,58.5,58.5,0,0,1,7.65-8.42.54.54,0,0,0-.65-.85A18.52,18.52,0,0,0,228,310.68a.54.54,0,0,0,1,.42l6.68-10.76a.54.54,0,0,0-.74-.74,15,15,0,0,1-4.59,1.85c-.61.14-.45,1,.14,1.06l1.62.06-.38-.92-1.16.9a.55.55,0,0,0,0,.93c1.39,1-1.86,5.94-2.52,7.35l1,.42c2.25-6.33,7.48-10.57,12.6-14.59.48-.37-.17-1.22-.65-.85a39.67,39.67,0,0,1-10.5,5.79.55.55,0,0,0-.38.66,11.92,11.92,0,0,1-1.92,10.16l1,.42a49.35,49.35,0,0,1,2.66-9.59c.25-.65-.79-.93-1-.29a49.35,49.35,0,0,0-2.66,9.59.54.54,0,0,0,1,.42,13.15,13.15,0,0,0,2.2-4.68c.38-1.64,0-3.22.16-4.82s2.57-2.11,4-2.84a39.8,39.8,0,0,0,6.05-3.88l-.65-.85C235.53,300,230.28,304.43,228,311c-.2.57.72,1,1,.42l3.44-7.29a.56.56,0,0,0-.19-.74l-1.12-.8v.93a2.55,2.55,0,0,0,1.38-1.07.55.55,0,0,0-.38-.92l-1.62-.06.14,1.06a15.69,15.69,0,0,0,4.85-2l-.74-.74L228,310.55l1,.42a17.33,17.33,0,0,1,7.17-9.51l-.65-.85a59.88,59.88,0,0,0-7.82,8.64l.93.55a24.64,24.64,0,0,1,6.37-7.49l-.85-.65a53.94,53.94,0,0,1-6.32,9.44c-.44.53.32,1.3.76.76Z"/><path class="l" d="M333.71,201.29c-5.09,1.77-6.91,6.34-8.05,11.26-1,4.26-1.79,9.68-6,12-3.87,2.15-10.55.28-14.62-.19-.69-.08-.68,1,0,1.08,6,.69,13.46,3.1,17.87-2.35,5-6.24,2.22-17.7,11.14-20.8.65-.23.37-1.27-.29-1Z"/><path class="l" d="M337.55,200.68c-5.65.42-8,5.26-9.56,10.12s-3,9.2-7.81,11.89c-4.64,2.6-10,2.57-15.18,2-.69-.08-.68,1,0,1.08,6.29.68,13.13.39,18.21-3.85,6.25-5.22,4.78-19.46,14.33-20.17.69-.05.69-1.13,0-1.08Z"/><path class="l" d="M327.52,201l-1.86.54a.56.56,0,0,0-.52.4c-1.67,7.27.27,20.57-9.87,22a.54.54,0,0,0-.24.9c2.94,2.62,7.21-1.79,8.91-4a15.93,15.93,0,0,0,3-7.19c.55-3.63-.79-8,2.35-10.75l-.9-.53-.88,2.13a.54.54,0,0,0,.52.68,2.94,2.94,0,0,0,1.93-.49l-.79-.61L324,217l1,.29,2.2-12.62-1-.29a16,16,0,0,0,0,5.76l1-.29c-.25-1.3-.2-3.18-1.21-4.18a.53.53,0,0,0-.53-.14l-.4.16c-.2.08-.43.27-.4.52l0,.35a.54.54,0,0,0,1.06.14l.86-2.69-1.06-.14-.14,2,1-.27-1-1.39a.54.54,0,0,0-1,.27,34,34,0,0,1-3.63,16.18c-.22.43.27,1.09.74.74,6.26-4.72,4.14-13.32,8.3-19.31l-1-.42-2,5.23c-.17.44.42.85.79.61a4.28,4.28,0,0,0,1.85-1.65.54.54,0,0,0-.76-.76l-1.34,1.2.76.76,5.06-5a.54.54,0,0,0-.65-.85,19.24,19.24,0,0,0-8.2,9.18l1,.27a8.61,8.61,0,0,1,3.45-7.18.54.54,0,0,0-.24-.9l-2.91-.43a.57.57,0,0,0-.61.25,2,2,0,0,0,.31,2.93.55.55,0,0,0,.65.08l5-3.43-.74-.74-4.13,7.67c-.28.52.44,1.14.85.65a54.08,54.08,0,0,1,7.35-7.25c.47-.39-.15-1.18-.65-.85a20.67,20.67,0,0,0-6,6.06l.93.55,3.06-4.77c.33-.51-.44-1.12-.85-.65-.89,1-3.2,4.7-4.51,4.5-.34-.05-2.53-4-3.1-4.69l-.76.76a7.58,7.58,0,0,0,7.75,1.36l-.61-.79-2.32,4.9a.54.54,0,0,0,.93.55,22,22,0,0,1,3.35-4l-.9-.53-1.19,2.49c-.41.57.53,1.11.93.55a4.66,4.66,0,0,0,1.3-2.75.54.54,0,0,0-.9-.53,22.64,22.64,0,0,0-3.52,4.23l.93.55,2.32-4.9c.18-.39-.13-1-.61-.79a6.12,6.12,0,0,1-6.7-1.08.54.54,0,0,0-.76.76,18.62,18.62,0,0,1,3.36,5.53.55.55,0,0,0,.9.24l4.87-5.58-.85-.65-3.06,4.77c-.38.59.55,1.12.93.55a18.64,18.64,0,0,1,5.66-5.67l-.65-.85a54.08,54.08,0,0,0-7.35,7.25l.85.65,4.13-7.67c.24-.45-.27-1.06-.74-.74-3.54,2.43-6.19,4.24-6.2,9.61,0,.5.78.78,1,.27a18.31,18.31,0,0,1,7.81-8.8l-.65-.85-5.06,5c-.5.49.25,1.23.76.76l1.34-1.2-.76-.76-1.63,1.48.79.61,2-5.23c.23-.6-.66-.89-1-.42-4,5.74-1.95,14.43-7.91,18.92l.74.74a35.1,35.1,0,0,0,3.78-16.72l-1,.27,1,1.39a.55.55,0,0,0,1-.27l.14-2c0-.63-.88-.7-1.06-.14l-.86,2.69,1.06.14c.13,1,.14,2.4.36,3.58.13.68,1.16.39,1-.29a11.41,11.41,0,0,1,0-5.19c.12-.68-.92-1-1-.29L324,217a.54.54,0,0,0,1,.29l5.17-13c.19-.48-.42-.8-.79-.61q-1.08.12,0-1.1c.22-.54-.54-.85-.9-.53-2.86,2.54-2.29,6-2.5,9.51a15.24,15.24,0,0,1-3.74,9.48,16.75,16.75,0,0,1-4.63,3.4c-2,1.12-.11.15.28-.07a12.74,12.74,0,0,0,6.15-7.71c1.32-4.31-.42-12.69,3.93-14.75.63-.3.08-1.23-.55-.93Z"/><path class="l" d="M328.54,205a10.11,10.11,0,0,0-3.49,8.88.54.54,0,0,0,1.06.14l1.32-4.58a24.16,24.16,0,0,0,1.15-4.07,1.22,1.22,0,0,0-.87-1.65,10.33,10.33,0,0,0-1.4.1c.58.38,1.13-.55.55-.93l-.17-.11a.55.55,0,0,0-.65.08c-.72.73-.25,1.41.44,1.81.95.55.94.15.8,1.43a15,15,0,0,1-.66,2.29l-1.54,5.34,1.06.14a9.12,9.12,0,0,1,3.17-8.11c.53-.46-.24-1.22-.76-.76Z"/><path class="l" d="M327.22,207.3l-2,5.72c-.2.57.74,1,1,.42l3.67-8.29-1-.42a46.25,46.25,0,0,1-5.67,11.82c-.39.58.55,1.12.93.55A47.35,47.35,0,0,0,329.91,205c.18-.57-.74-1-1-.42l-3.67,8.29,1,.42,2-5.72c.23-.66-.81-.94-1-.29Z"/></g><path class="n" d="M40,285.9s9.52,1.34,27.29-4.2,74.69-28.6,88.51-30.45,101.62-45,103-50.24-2.8-9.15-16.09-14.38-68.1-23-68.1-23-17.24-4.58-20-3.27-65.95,1.88-68.74,7.11-8.72,13.39-9.42,17.31-2.37,6.84-1.67.3,8-13,5.16-16.25-10.2-4.19-15.8-2.89-10.48.44-10.48-1.52.92-1.33,12.81-.67,20.9.66,27.89-1.3S153.62,155,153.62,155s-25.28-26.28-28.35-31c-1.87-2.85-8-7.59-15.85-17.3-3.36-4.17-9.27-10-12.07-15.26s-6.18-9.91-4.94-10.9c.9-.72,4.85,6.66,9,11.24s20.41,20.78,25.31,26.66,28.55,33.47,35.55,35.44,85.33,24.84,87.43,25.49-50.81-75.74-56.41-99.28-5.38-48-5.38-48-.5-11,1.59-10.36,2,13.15,2,13.15-.61,4.72,3.59,33.48,61,115.69,79.1,114.3c9.15-.7,15.39,3.27,21-3.92s17.87-62.24,25.56-74S345.12,57.84,353.51,52s5-3.71,5-3.71-20.84,19.3-39.72,73.55c-13.49,38.77-17.62,55.6-18.88,62.06a2.87,2.87,0,0,0,2.89,3.42c13.67-.31,64.25-1.49,80.53-2.61,18.89-1.31,32.17.59,33.57-4.64s1.15-9,6.85-24.43c3-8.14,9.24-16,14.14-21.27s26.91-50.23,31.56-59.05a35.9,35.9,0,0,1,8.79-10.72S465.93,82.7,463.83,92.51,436.94,140,436.94,140s-11.19,16.33-10.49,23.52-9.58,20-5.39,23.29,154.48-.53,154.48-.53,19.46-1,20.86-19.3,42.17-61,57.69-65.9l7.5-1.9s-13.12,6.41-20.81,16.21-21,19.07-38.51,53c-8.74,17-.7,17-.7,17s158.65,5.12,223.72,13.49c13.05,1.68,2.63,2.63,2.63,2.63S692.71,192.58,678.79,192c-26.6-1.13-61.54,1.06-61.54,5s4.83,18.69,10.21,28.87c8.9,16.88,57.5,48.38,62.19,53.41,3.37,3.61-2.51,2-11.9-4.36-13.53-9.18-50.93-35.87-53.29-44.24-2.18-7.71-9.57-28.41-13.07-31.67s-11-10.28-52.27-5.71-113.92,3.66-113.92,3.66-14.2,4.22-7.9,25.14,18.29,31,18.29,32.92,39,64.62,46.56,71.83c3,2.85-4.78-4-7.65-6.65-12.7-11.81-27.93-42.57-27.93-42.57s-23.76-37.38-26.56-40-12-24.21-8.34-34.38c2.74-7.7-46.58-4.44-46.58-4.44l-72.16,1.66s-15.6-2.78-9.3,20.1,11.41,62,11.41,62l11.88,46.35s10.3,34.7,26.38,42.55,7.13,9,7.13,9,1.15,2-12.83-9.74-24.4-39-26.5-47.53S306.4,267.68,305,257.88s-7.69-40.53-9.79-48.37-27.42-4.3-34.42,14.66S242,247,230.76,297.36s-23.83,73.38-23.83,73.38-10.3,23.3-14.08,27.21c-4.71,4.88-.75-3.75-.75-3.75s9.37-17.15,14.26-32.84,16.65-44.72,16-55.17,19.74-62.81,25.34-70S260.24,216,260.24,216l-83.12,35c-.51.21-10,4.7-10.43,5-3.7,2.72-6.42-2-9.52,11.58-4.31,18.93-34.72,90.93-34.72,90.93s-8.85,19.32-4.65.36S135.3,319.9,137,317c2-3.24,20.65-53.31,15.75-55.27s-77,17-83.25,26.12-10.93,29.45-13,38.35c-2.33,9.84-2.13,2.91-2.13,2.91s8.35-33,8.35-37S40,285.9,40,285.9Z"/><path class="j" d="M853.15,208.81c-27-28.7-61.77-45.93-97.95-60.19-19.07-7.51-39.51-13.22-56.28-25.44C683.52,112,673.26,94.77,655.37,86.88c-17.14-7.57-36.6-6.06-54.7-3.76-20.18,2.57-40.79,6.81-61.13,3.33a92.53,92.53,0,0,1-30.35-10.91A92.64,92.64,0,0,1,496.84,67c-3.57-2.91-6.79-6.44-10.87-8.66-16.13-8.76-34.5,11.79-46.16,20.27-8,5.84-17.53,10.52-27.75,9.56-11.24-1.05-15.95-9.49-21.2-18.27a105.33,105.33,0,0,0-89.06-50.55c-22.12-.15-43.81,5.52-65.91,5.47-11.51,0-22.11-2.44-33.06-5.77-8.71-2.65-17.7-4.85-26.79-2.85C159.8,19.8,149.12,33.73,137.13,44,123.9,55.42,107.24,58.4,92.4,66.78c-6.12,3.45-11.67,7.95-15.29,14.06-5,8.49-5.14,18.63-8.67,27.67-6.57,16.82-24.11,25.9-33.31,41C27.39,162.22,27.78,178.15,35,191a40.47,40.47,0,0,0,15.07,15.47c4.88,2.77,11.84,5.42,17,1.76,3.25-2.3,2.39-5.2,3.91-8.39,2.53-5.33,12.19-2.62,16.72-2.18l35.43,3.41,35.43,3.41-1.27-1.07c-1.13,11.16-13.91,16.72-22.38,21.69l-32.43,19-64,37.58c-6.62,3.89-14.63,8-17.07,15.92C18.83,306.06,24,314,29.63,319.76c8,8.3,18.28,14.71,27.48,21.61l30.32,22.75c9.47,7.11,18.72,14.87,28.65,21.33,6.07,4,14,7.55,21.16,4.14,8.32-4,8.53-17.09,19.75-15.17,10.67,1.83,15.93,11.39,18.73,20.87,2.25,7.6,2.8,21.87,10.74,26.07,7.39,3.91,17-3,23.29-6.29,19.2-10.06,38.41-21.38,59.73-26.31a81.71,81.71,0,0,1,34.07-.68c11.09,2.13,22,5.78,33.41,5.55,17.32-.35,32.26-10.64,42.83-23.75,6-7.45,10.15-15.77,14.76-24.09,5.7-10.31,13.45-17.36,25.67-17.86,20.13-.81,37.55,11.71,56.47,16.42,15.46,3.85,33.31,3.24,43.61-10.67,5.31-7.17,7.36-16,11.1-23.92,5-10.7,13.6-15.79,24.54-19.32,22.9-7.4,47.65-14.94,72-11.85,21,2.66,40.83,13.59,62.34,11.83a39.24,39.24,0,0,0,23.09-9.54c6.73-5.75,12.42-12.85,21.22-15.41a170.35,170.35,0,0,0,45.76-21.39c12.1-7.91,23.17-17.15,34.64-25.91,6.55-5,15.63-13.08,24.57-12.19,4,.4,7.14,2.88,9.73,5.79,1.31,1.47,5.5-1.15,3.91-2.94-14.13-15.89-34.26,2.07-46.32,11.55-11.89,9.35-23.78,18.75-36.86,26.41a155.93,155.93,0,0,1-23.71,11.47c-7.94,3-16.31,4.38-23.22,9.58s-12.17,12.61-20,16.25c-10.49,4.87-23.34,3-34.17.41-10.42-2.46-20.56-6-31.06-8.17a102.82,102.82,0,0,0-33.94-1.08c-11.34,1.44-22.47,4.3-33.43,7.47-9.53,2.76-19.74,5.14-28.39,10.16-7.39,4.29-12.19,10.55-15.6,18.27-3.8,8.6-6,18.66-13.17,25.26-15,13.84-39.38,3.41-55.26-3.28-15.5-6.52-34.81-13.24-51-5.22-8.1,4-13.2,11.18-17.36,18.94-4.78,8.91-9.4,17.61-16.22,25.19-6.55,7.28-14.61,13.47-24.08,16.33-11.41,3.43-23.06.75-34.33-1.84-10.05-2.31-20-4.08-30.33-3.42a106.88,106.88,0,0,0-29.82,6.75c-19.77,7.26-37.23,18.94-56.37,27.46-3.91,1.74-8.17,2.33-11.07-1.55a21.5,21.5,0,0,1-3-6.61c-1.67-5.3-2.68-10.79-4.25-16.12-2.4-8.15-6.21-15.72-14-19.8-5.76-3-12.86-3.75-18.58-.25-3.11,1.91-4.93,4.74-6.73,7.83-2,3.47-3.92,6.6-8.55,6.55a19.6,19.6,0,0,1-8-2.34c-5-2.42-9.41-6.13-13.85-9.47L95.33,364.18,65.81,342c-9.58-7.19-19.8-14-28.78-21.89-7.59-6.7-16.9-18.6-7.94-28.11,3.65-3.88,8.85-6.31,13.38-9l16.22-9.52L90.26,255l32.43-19c9.18-5.39,18.92-10.31,27.56-16.56,6-4.34,10.95-9.79,11.72-17.4.07-.67-.75-1-1.27-1.07l-68.9-6.63c-6.73-.65-16.11-3.12-22.11,1.36-2.8,2.09-2.78,4.51-3.77,7.59-1.92,5.95-9.47,1.85-13-.31C39.61,194.88,32,178.07,34.47,162.76c2.72-17.18,18.28-27.28,28.92-39.53A51.6,51.6,0,0,0,74.79,102.3c2.45-9.25,3.45-19,10.41-26.25,11.18-11.58,29-13.8,42.65-21.47,14.4-8.1,23.78-22.49,37.89-30.86,19-11.25,39.26,2.6,59,4.33,21,1.84,41.81-3,62.66-4.59C306.78,22,325.59,24.54,343.21,33a102.7,102.7,0,0,1,40.4,34.73c4.8,7.13,8,16.13,15.76,20.71,6.07,3.6,13.45,4.05,20.27,2.81C438,87.92,449.54,72.85,465,63.91c4.88-2.81,10.5-5.39,16.09-3,4.77,2,8.48,6.43,12.45,9.61a95.57,95.57,0,0,0,24.1,14c17.44,7,35.81,7.73,54.3,5.79,19.5-2,39.13-6.68,58.83-5.15,9.91.77,19.63,3.38,28.14,8.63,7.8,4.81,14.11,11.6,20.44,18.13,6.88,7.1,14,13.64,22.51,18.76a161.1,161.1,0,0,0,24.39,11.57c35.56,13.93,71.86,26.48,102.24,50.43a190.05,190.05,0,0,1,20.72,19.08c1.36,1.44,5.54-1.2,3.91-2.94Z"/></g></svg>