<svg xmlns="http://www.w3.org/2000/svg" xmlns:xlink="http://www.w3.org/1999/xlink" viewBox="0 0 165.26 288.73"><defs><style>.cls-1,.cls-2{fill:none;}.cls-2{stroke:#76c370;stroke-width:1.47px;}.cls-10,.cls-11,.cls-2,.cls-6,.cls-7,.cls-8,.cls-9{stroke-miterlimit:10;}.cls-3{fill:#202516;}.cls-4{fill:#e2ddd5;}.cls-5{fill:#231f20;}.cls-6{fill:url(#New_Pattern);stroke:url(#New_Pattern);}.cls-7,.cls-8,.cls-9{stroke-width:1.38px;}.cls-7{fill:url(#New_Pattern-17);stroke:url(#New_Pattern-17);}.cls-8{fill:url(#New_Pattern-25);stroke:url(#New_Pattern-25);}.cls-9{fill:url(#New_Pattern-29);stroke:url(#New_Pattern-29);}.cls-10{fill:url(#New_Pattern-33);stroke:url(#New_Pattern-33);}.cls-11{fill:url(#New_Pattern-37);stroke:url(#New_Pattern-37);}.cls-12{fill:#c2bbb2;}</style><pattern id="New_Pattern" data-name="New Pattern" width="36.12" height="27.88" patternTransform="translate(-73.64 -17.48)" patternUnits="userSpaceOnUse" viewBox="0 0 36.12 27.88"><rect class="cls-1" width="36.12" height="27.88"/><path class="cls-2" d="M-36.47-1.43s23.64,6.37,36.69,0"/><path class="cls-2" d="M-36.47,3.4S-12.83,9.77.22,3.4"/><path class="cls-2" d="M-.35-1.43s23.64,6.37,36.69,0"/><path class="cls-2" d="M-.35,3.4s23.64,6.37,36.69,0"/><path class="cls-2" d="M35.77-1.43s23.64,6.37,36.69,0"/><path class="cls-2" d="M35.77,3.4s23.64,6.37,36.69,0"/><path class="cls-2" d="M-36.47,7.68s23.64,6.37,36.69,0"/><path class="cls-2" d="M-36.47,12.51s23.64,6.37,36.69,0"/><path class="cls-2" d="M-36.47,17.34s23.64,6.37,36.69,0"/><path class="cls-2" d="M-.35,7.68s23.64,6.37,36.69,0"/><path class="cls-2" d="M-.35,12.51s23.64,6.37,36.69,0"/><path class="cls-2" d="M-.35,17.34s23.64,6.37,36.69,0"/><path class="cls-2" d="M35.77,7.68s23.64,6.37,36.69,0"/><path class="cls-2" d="M35.77,12.51s23.64,6.37,36.69,0"/><path class="cls-2" d="M35.77,17.34s23.64,6.37,36.69,0"/><path class="cls-2" d="M-36.47,21.62s23.64,6.37,36.69,0"/><path class="cls-2" d="M-36.47,26.45s23.64,6.37,36.69,0"/><path class="cls-2" d="M-.35,21.62s23.64,6.37,36.69,0"/><path class="cls-2" d="M-.35,26.45s23.64,6.37,36.69,0"/><path class="cls-2" d="M35.77,21.62s23.64,6.37,36.69,0"/><path class="cls-2" d="M35.77,26.45s23.64,6.37,36.69,0"/></pattern><pattern id="New_Pattern-17" data-name="New Pattern" width="36.12" height="27.88" patternTransform="translate(-11.35 0.41) scale(1.22 1.56)" patternUnits="userSpaceOnUse" viewBox="0 0 36.12 27.88"><rect class="cls-1" width="36.12" height="27.88"/><path class="cls-2" d="M-36.47-1.43s23.64,6.37,36.69,0"/><path class="cls-2" d="M-36.47,3.4S-12.83,9.77.22,3.4"/><path class="cls-2" d="M-.35-1.43s23.64,6.37,36.69,0"/><path class="cls-2" d="M-.35,3.4s23.64,6.37,36.69,0"/><path class="cls-2" d="M35.77-1.43s23.64,6.37,36.69,0"/><path class="cls-2" d="M35.77,3.4s23.64,6.37,36.69,0"/><path class="cls-2" d="M-36.47,7.68s23.64,6.37,36.69,0"/><path class="cls-2" d="M-36.47,12.51s23.64,6.37,36.69,0"/><path class="cls-2" d="M-36.47,17.34s23.64,6.37,36.69,0"/><path class="cls-2" d="M-.35,7.68s23.64,6.37,36.69,0"/><path class="cls-2" d="M-.35,12.51s23.64,6.37,36.69,0"/><path class="cls-2" d="M-.35,17.34s23.64,6.37,36.69,0"/><path class="cls-2" d="M35.77,7.68s23.64,6.37,36.69,0"/><path class="cls-2" d="M35.77,12.51s23.64,6.37,36.69,0"/><path class="cls-2" d="M35.77,17.34s23.64,6.37,36.69,0"/><path class="cls-2" d="M-36.47,21.62s23.64,6.37,36.69,0"/><path class="cls-2" d="M-36.47,26.45s23.64,6.37,36.69,0"/><path class="cls-2" d="M-.35,21.62s23.64,6.37,36.69,0"/><path class="cls-2" d="M-.35,26.45s23.64,6.37,36.69,0"/><path class="cls-2" d="M35.77,21.62s23.64,6.37,36.69,0"/><path class="cls-2" d="M35.77,26.45s23.64,6.37,36.69,0"/></pattern><pattern id="New_Pattern-25" data-name="New Pattern" width="36.12" height="27.88" patternTransform="translate(-21.36 0.41) scale(1.22 1.56)" patternUnits="userSpaceOnUse" viewBox="0 0 36.12 27.88"><rect class="cls-1" width="36.12" height="27.88"/><path class="cls-2" d="M-36.47-1.43s23.64,6.37,36.69,0"/><path class="cls-2" d="M-36.47,3.4S-12.83,9.77.22,3.4"/><path class="cls-2" d="M-.35-1.43s23.64,6.37,36.69,0"/><path class="cls-2" d="M-.35,3.4s23.64,6.37,36.69,0"/><path class="cls-2" d="M35.77-1.43s23.64,6.37,36.69,0"/><path class="cls-2" d="M35.77,3.4s23.64,6.37,36.69,0"/><path class="cls-2" d="M-36.47,7.68s23.64,6.37,36.69,0"/><path class="cls-2" d="M-36.47,12.51s23.64,6.37,36.69,0"/><path class="cls-2" d="M-36.47,17.34s23.64,6.37,36.69,0"/><path class="cls-2" d="M-.35,7.68s23.64,6.37,36.69,0"/><path class="cls-2" d="M-.35,12.51s23.64,6.37,36.69,0"/><path class="cls-2" d="M-.35,17.34s23.64,6.37,36.69,0"/><path class="cls-2" d="M35.77,7.68s23.64,6.37,36.69,0"/><path class="cls-2" d="M35.77,12.51s23.64,6.37,36.69,0"/><path class="cls-2" d="M35.77,17.34s23.64,6.37,36.69,0"/><path class="cls-2" d="M-36.47,21.62s23.64,6.37,36.69,0"/><path class="cls-2" d="M-36.47,26.45s23.64,6.37,36.69,0"/><path class="cls-2" d="M-.35,21.62s23.64,6.37,36.69,0"/><path class="cls-2" d="M-.35,26.45s23.64,6.37,36.69,0"/><path class="cls-2" d="M35.77,21.62s23.64,6.37,36.69,0"/><path class="cls-2" d="M35.77,26.45s23.64,6.37,36.69,0"/></pattern><pattern id="New_Pattern-29" data-name="New Pattern" width="36.12" height="27.88" patternTransform="translate(-26.08 -2.55) scale(1.22 1.56)" patternUnits="userSpaceOnUse" viewBox="0 0 36.12 27.88"><rect class="cls-1" width="36.12" height="27.88"/><path class="cls-2" d="M-36.47-1.43s23.64,6.37,36.69,0"/><path class="cls-2" d="M-36.47,3.4S-12.83,9.77.22,3.4"/><path class="cls-2" d="M-.35-1.43s23.64,6.37,36.69,0"/><path class="cls-2" d="M-.35,3.4s23.64,6.37,36.69,0"/><path class="cls-2" d="M35.77-1.43s23.64,6.37,36.69,0"/><path class="cls-2" d="M35.77,3.4s23.64,6.37,36.69,0"/><path class="cls-2" d="M-36.47,7.68s23.64,6.37,36.69,0"/><path class="cls-2" d="M-36.47,12.51s23.64,6.37,36.69,0"/><path class="cls-2" d="M-36.47,17.34s23.64,6.37,36.69,0"/><path class="cls-2" d="M-.35,7.68s23.64,6.37,36.69,0"/><path class="cls-2" d="M-.35,12.51s23.64,6.37,36.69,0"/><path class="cls-2" d="M-.35,17.34s23.64,6.37,36.69,0"/><path class="cls-2" d="M35.77,7.68s23.64,6.37,36.69,0"/><path class="cls-2" d="M35.77,12.51s23.64,6.37,36.69,0"/><path class="cls-2" d="M35.77,17.34s23.64,6.37,36.69,0"/><path class="cls-2" d="M-36.47,21.62s23.64,6.37,36.69,0"/><path class="cls-2" d="M-36.47,26.45s23.64,6.37,36.69,0"/><path class="cls-2" d="M-.35,21.62s23.64,6.37,36.69,0"/><path class="cls-2" d="M-.35,26.45s23.64,6.37,36.69,0"/><path class="cls-2" d="M35.77,21.62s23.64,6.37,36.69,0"/><path class="cls-2" d="M35.77,26.45s23.64,6.37,36.69,0"/></pattern><pattern id="New_Pattern-33" data-name="New Pattern" width="36.12" height="27.88" patternTransform="matrix(-1, 0, 0, 1, -77.04, -17.48)" patternUnits="userSpaceOnUse" viewBox="0 0 36.12 27.88"><rect class="cls-1" width="36.12" height="27.88"/><path class="cls-2" d="M-36.47-1.43s23.64,6.37,36.69,0"/><path class="cls-2" d="M-36.47,3.4S-12.83,9.77.22,3.4"/><path class="cls-2" d="M-.35-1.43s23.64,6.37,36.69,0"/><path class="cls-2" d="M-.35,3.4s23.64,6.37,36.69,0"/><path class="cls-2" d="M35.77-1.43s23.64,6.37,36.69,0"/><path class="cls-2" d="M35.77,3.4s23.64,6.37,36.69,0"/><path class="cls-2" d="M-36.47,7.68s23.64,6.37,36.69,0"/><path class="cls-2" d="M-36.47,12.51s23.64,6.37,36.69,0"/><path class="cls-2" d="M-36.47,17.34s23.64,6.37,36.69,0"/><path class="cls-2" d="M-.35,7.68s23.64,6.37,36.69,0"/><path class="cls-2" d="M-.35,12.51s23.64,6.37,36.69,0"/><path class="cls-2" d="M-.35,17.34s23.64,6.37,36.69,0"/><path class="cls-2" d="M35.77,7.68s23.64,6.37,36.69,0"/><path class="cls-2" d="M35.77,12.51s23.64,6.37,36.69,0"/><path class="cls-2" d="M35.77,17.34s23.64,6.37,36.69,0"/><path class="cls-2" d="M-36.47,21.62s23.64,6.37,36.69,0"/><path class="cls-2" d="M-36.47,26.45s23.64,6.37,36.69,0"/><path class="cls-2" d="M-.35,21.62s23.64,6.37,36.69,0"/><path class="cls-2" d="M-.35,26.45s23.64,6.37,36.69,0"/><path class="cls-2" d="M35.77,21.62s23.64,6.37,36.69,0"/><path class="cls-2" d="M35.77,26.45s23.64,6.37,36.69,0"/></pattern><pattern id="New_Pattern-37" data-name="New Pattern" width="36.12" height="27.88" patternTransform="matrix(-1, 0, 0, 1, -78.04, -17.48)" patternUnits="userSpaceOnUse" viewBox="0 0 36.12 27.88"><rect class="cls-1" width="36.12" height="27.88"/><path class="cls-2" d="M-36.47-1.43s23.64,6.37,36.69,0"/><path class="cls-2" d="M-36.47,3.4S-12.83,9.77.22,3.4"/><path class="cls-2" d="M-.35-1.43s23.64,6.37,36.69,0"/><path class="cls-2" d="M-.35,3.4s23.64,6.37,36.69,0"/><path class="cls-2" d="M35.77-1.43s23.64,6.37,36.69,0"/><path class="cls-2" d="M35.77,3.4s23.64,6.37,36.69,0"/><path class="cls-2" d="M-36.47,7.68s23.64,6.37,36.69,0"/><path class="cls-2" d="M-36.47,12.51s23.64,6.37,36.69,0"/><path class="cls-2" d="M-36.47,17.34s23.64,6.37,36.69,0"/><path class="cls-2" d="M-.35,7.68s23.64,6.37,36.69,0"/><path class="cls-2" d="M-.35,12.51s23.64,6.37,36.69,0"/><path class="cls-2" d="M-.35,17.34s23.64,6.37,36.69,0"/><path class="cls-2" d="M35.77,7.68s23.64,6.37,36.69,0"/><path class="cls-2" d="M35.77,12.51s23.64,6.37,36.69,0"/><path class="cls-2" d="M35.77,17.34s23.64,6.37,36.69,0"/><path class="cls-2" d="M-36.47,21.62s23.64,6.37,36.69,0"/><path class="cls-2" d="M-36.47,26.45s23.64,6.37,36.69,0"/><path class="cls-2" d="M-.35,21.62s23.64,6.37,36.69,0"/><path class="cls-2" d="M-.35,26.45s23.64,6.37,36.69,0"/><path class="cls-2" d="M35.77,21.62s23.64,6.37,36.69,0"/><path class="cls-2" d="M35.77,26.45s23.64,6.37,36.69,0"/></pattern></defs><title>pointplant</title><g id="medium_leaves" data-name="medium leaves"><path class="cls-3" d="M53.87,179.6s-6.72-56.53-40.3-84.23c0,0,27.42,34.42,33.58,84.23Z"/><path class="cls-3" d="M45.48,59S57.79,70.74,62.83,179.6H56.39S55.27,94.81,45.48,59Z"/><path class="cls-3" d="M84.67,179.6h5.84s-.83-77.74-5.84-82.74C84.67,96.85,87.45,165.32,84.67,179.6Z"/><path class="cls-3" d="M105.24,179.6s.28-101.65-1.95-104.15L99.41,179.6S100.52,180.89,105.24,179.6Z"/><path class="cls-3" d="M74.38,179.28h7.1s-1-121.51-7.1-129.34C74.38,49.94,77.76,157,74.38,179.28Z"/><path class="cls-3" d="M99.39,179.28S99.73,20.39,97,16.48l-4.73,162.8S93.65,181.29,99.39,179.28Z"/><path class="cls-3" d="M64.37,179.28h7.1s-1-121.51-7.1-129.34C64.37,49.94,67.75,157,64.37,179.28Z"/><path class="cls-3" d="M84.66,176.32S85,17.43,82.29,13.52l-4.73,162.8S78.91,178.33,84.66,176.32Z"/><path class="cls-4" d="M26.36,177.13s37.08,8.58,110.28-.3c0,0,10.24,49.82-15.64,94.2l-8.87,8.13-7.39,5.18H54.46S12.31,265.86,26.36,177.13Z"/><ellipse class="cls-5" cx="81.5" cy="176.84" rx="55.14" ry="4.14"/><path class="cls-6" d="M53.87,179.6s-6.72-56.53-40.3-84.23c0,0,27.42,34.42,33.58,84.23Z"/><path class="cls-6" d="M45.48,59S57.79,70.74,62.83,179.6H56.39S55.27,94.81,45.48,59Z"/><path class="cls-6" d="M84.67,179.6h5.84s-.83-77.74-5.84-82.74C84.67,96.85,87.45,165.32,84.67,179.6Z"/><path class="cls-6" d="M105.24,179.6s.28-101.65-1.95-104.15L99.41,179.6S100.52,180.89,105.24,179.6Z"/><path class="cls-7" d="M74.38,179.28h7.1s-1-121.51-7.1-129.34C74.38,49.94,77.76,157,74.38,179.28Z"/><path class="cls-7" d="M99.39,179.28S99.73,20.39,97,16.48l-4.73,162.8S93.65,181.29,99.39,179.28Z"/><path class="cls-8" d="M64.37,179.28h7.1s-1-121.51-7.1-129.34C64.37,49.94,67.75,157,64.37,179.28Z"/><path class="cls-9" d="M84.66,176.32S85,17.43,82.29,13.52l-4.73,162.8S78.91,178.33,84.66,176.32Z"/><path class="cls-3" d="M118.5,178.63s6.72-56.53,40.3-84.23c0,0-27.42,34.42-33.58,84.23Z"/><path class="cls-3" d="M125.14,59S112.83,70.74,107.79,179.6h6.44S115.34,94.81,125.14,59Z"/><path class="cls-10" d="M117.74,179.6s6.72-56.53,40.3-84.23c0,0-27.42,34.42-33.58,84.23Z"/><path class="cls-11" d="M125.14,59S112.83,70.74,107.79,179.6h6.44S115.34,94.81,125.14,59Z"/><path class="cls-12" d="M94.33,237.75l-1.31.34a1.66,1.66,0,0,0,.81,1.82A3,3,0,0,0,94.33,237.75Z"/><path class="cls-12" d="M102.33,251.66c0,.07.07.16.11.25l.35-.25c-.12-.1-.21-.22-.26-.21A.35.35,0,0,0,102.33,251.66Z"/><path class="cls-12" d="M75.31,275.48l-1.37-.42C74.38,276.3,74.88,275.62,75.31,275.48Z"/><path class="cls-12" d="M102.61,245.24l-1,.67C102.08,246,102.55,246.06,102.61,245.24Z"/><path class="cls-12" d="M93.84,239.91l0,0h0s0,0,0,0Z"/><path class="cls-12" d="M101.61,245.91h-.06v0h0Z"/><path class="cls-12" d="M105.82,187.32a3.53,3.53,0,0,0,.11,1l.59-1.1-.26-.24C106.1,187.1,105.86,187.18,105.82,187.32Z"/><path class="cls-12" d="M75.31,275.48l0,0h0v0h0Z"/><path class="cls-12" d="M114.33,186c-.66-.25-.91,0-1.05.56C114,186.86,114.21,186.62,114.33,186Z"/><path class="cls-12" d="M109.38,182.78c.24.15.72-.08,1.08-.13l.28-.54-1.16-1.17C108.79,181.94,108.87,182.47,109.38,182.78Z"/><path class="cls-12" d="M110.85,184.11c1.1.68,1.1.68,2.13.43A1.39,1.39,0,0,0,110.85,184.11Z"/><path class="cls-12" d="M111.63,189.55l.92.71,1.23-1.68C113,188.1,112.86,188.16,111.63,189.55Z"/><path class="cls-12" d="M111.25,187l.22-.13-.28-.58-.32.16Z"/><path class="cls-12" d="M107.92,179.74c.37.16.92-.12,1.4-.2a17.27,17.27,0,0,0,1.53,1.38c.15.11.54-.09.82-.15-.08-.24-.09-.54-.25-.7s-.63-.27-.8-.51l-.09-.14-3,.21A2.63,2.63,0,0,1,107.92,179.74Z"/><path class="cls-12" d="M96.12,241.34a1.75,1.75,0,0,0,.35.2l.11-.3-.37-.15C96.18,241.18,96.1,241.32,96.12,241.34Z"/><path class="cls-12" d="M102.3,230.35a13.1,13.1,0,0,0-.08-1.92c0-.22-.41-.39-.64-.59a5.81,5.81,0,0,0-.55.66c-.18.29-.22.7-.45.9-1.05.88-1.39.82-2.57-.27-.7.46-.74,1-.41,1.75.44,1.07,1,2.25-.2,3.31-.18.16-.1.7,0,1a3.89,3.89,0,0,0,.34.85c-.63.57-1.47-.43-2,.73l1,.18c1.34.22,1.64.59,1.52,1.92a2.51,2.51,0,0,0-.08.64c.07.39.1.9.35,1.12a1.05,1.05,0,0,0,1.45-.21,3,3,0,0,0,1-2.54l-1.4-.77.07-.24h1.14c.08-.85.19-1.62.22-2.4s0-1.56,0-2.43l1.44.1C102.3,231.51,102.31,230.93,102.3,230.35Z"/><path class="cls-12" d="M99,242.87a2.89,2.89,0,0,0,.24.57c.18-.21.33-.31.33-.41a.42.42,0,0,0-.24-.31A.45.45,0,0,0,99,242.87Z"/><path class="cls-12" d="M104.54,230.94c0,.11.17.2.26.3l.36-.38c-.17-.1-.29-.23-.42-.23S104.52,230.84,104.54,230.94Z"/><path class="cls-12" d="M103.89,226.54c1.32.12,1.2-.86,1.51-1.51C104.16,224.55,104,224.71,103.89,226.54Z"/><path class="cls-12" d="M106.06,223.61c.07.1.19.25.28.23s.17-.17.32-.34a1.53,1.53,0,0,0-.44-.1C106.16,223.41,106,223.58,106.06,223.61Z"/><path class="cls-12" d="M76.31,241.34c-.82.86-2.75.67-2.19,3l-1.42-1.16a4.38,4.38,0,0,0,.27,4.58,1.38,1.38,0,0,0,2.28.22,3.67,3.67,0,0,0,.76-2.19,3,3,0,0,1,.72-2.44C77.37,242.5,77.26,242.17,76.31,241.34Z"/><path class="cls-12" d="M70.86,244.64l-.18-.31-.55.44.14.2Z"/><path class="cls-12" d="M108,228.75a1.44,1.44,0,0,0-.2.17l.23.13a1.43,1.43,0,0,0,.08-.23S108,228.74,108,228.75Z"/><path class="cls-12" d="M53.26,249a1.74,1.74,0,0,0,.07-.54l-.22-.06-.46,1C53,249.11,53.21,249.07,53.26,249Z"/><path class="cls-12" d="M68.59,247.06c.72.89,1,1,1.43.58a18.92,18.92,0,0,0,1.32-1.72C70,245.38,70,245.39,68.59,247.06Z"/><path class="cls-12" d="M71.75,249.84c.07.1.46,0,.87-.06l-1.51-1.43C70.55,249.23,71.46,249.42,71.75,249.84Z"/><path class="cls-12" d="M107.18,231.83c0-.07.14-.15.13-.22s-.11-.13-.16-.2l-.19.29Z"/><path class="cls-12" d="M97.1,244.07a1.23,1.23,0,0,0-.28-.28s-.17.09-.26.14l.23.33Z"/><path class="cls-12" d="M136.65,176.84c-8.7,1.05-16.88,1.86-24.56,2.46,0,0,0,.06,0,.1a17,17,0,0,1,6.95,2.78c-1.51.22-2.63-.65-3.88-1-.94-.26-1.21-.09-1.56,1.16h1.29l.51,1.26-1.29-.18a2.24,2.24,0,0,0,2.77,1.3c.34,1.32-.74.92-1.28,1-.07.2-.17.34-.13.39.8,1.09.5,2-.24,3a16.19,16.19,0,0,0-.87,2.23,1.94,1.94,0,0,1-1,.91c-.54.19-.93-.16-1.31-.64-.73-.93-1.78-1.6-2.31-2.8a7.07,7.07,0,0,0-.21,1.34,1.08,1.08,0,0,0,.39.82c1.82,1,2.75,2.75,4.15,4.27l1.67-1.62c0,.58.13.87,0,1-.58,1-1.21,2-1.82,3-.11.18-.36.34-.36.52-.06,1.45-1.09,2.19-2,3.07a8,8,0,0,0-1.14,1.9,4.7,4.7,0,0,1-.78,1.32,1.83,1.83,0,0,0-.61,2.3c.57,1.27.5,2.78,1.71,3.83a1.36,1.36,0,0,1,.1,2.13c-.19.18-.18.58-.31,1.07l-1.7-.69.44,1.3a2.71,2.71,0,0,0-.88.28c-.25.19-.61.61-.55.79.18.51.62.48,1,.18.16-.12.35-.21.52-.31.55.79.55.79,0,2,.58.37.58.37,2.61.09-.79,1.39-1.12,1.53-2.43,1a4.39,4.39,0,0,0-1.05-.38c-.3,0-.84.1-.89.27-.13.45.22.65.67.64.2,0,.41,0,.77,0a6.52,6.52,0,0,0-1.39,1.28,7.55,7.55,0,0,0-.42,2l1.4,1.23-.62.5-.43,3.33,1.17.1c.05,1,.16,1.87.12,2.76a3.46,3.46,0,0,1-.42,1.66,2.94,2.94,0,0,0-.18,2.62c.17.56.32,1.12.5,1.77l1.62.78-.21.52a9.33,9.33,0,0,0-1,.11c-.78.14-.87.47-.38,1.35l1-.39q-.56,1.37-1.15,2.75l-.22,0,.08.27q-1.22,2.83-2.55,5.65a7.49,7.49,0,0,0-.73-.88.68.68,0,0,0-1.19.23,1.47,1.47,0,0,1-1.92,1.06l-.25.77-2.48.25c.37-.44.59-.71.81-1,.54-.62,1.39-1,1.33-2-1.08-.22-.71-1.42-1.12-1.8l-2.74-.38a6.32,6.32,0,0,0,.79,1c1.16.86,1.24,1.38.37,2.71l-1.21-1.74-3.15,1.15.23-6.53-.88-.29a3,3,0,0,1-.19,1,1.9,1.9,0,0,1-2.6.27c-.89-.72.17-1,.36-1.54,0-.09,0-.21,0-.07l-1.62-2.45A11.13,11.13,0,0,1,84.5,240a10.49,10.49,0,0,0-5.27,2.61c.34.86.42,1.9-.55,2.31s-1.24,1.22-1.63,2a4.56,4.56,0,0,1-2,2.2,10.72,10.72,0,0,0-1.44,1,1.42,1.42,0,0,0-.56,1.55c.11.56,0,1.14.1,1.71a6.25,6.25,0,0,0,.26,1.21c.17.54.42,1.06.57,1.6a8.23,8.23,0,0,0,.58,2.16c.85,1.3.64,2.78,1,4.16a6.14,6.14,0,0,1,0,1.49c-1.2-1.64-1-3.88-2.7-5.22l-2.07,1.09.34.8c-1,.37-.37,1.36-.75,1.93-.87,1.28-.57,2.54,0,3.94l1.8.43c-.41,1.15-.35,1.1.57,2a7.23,7.23,0,0,1,1.54,2.21,2.14,2.14,0,0,0,1.7,1.38,2.12,2.12,0,0,0-.65,2.87c.26.08.63.1.72.27a3.15,3.15,0,0,1,.17,1l1,.21-.89,1.27,1.19,1.06-3.72,2.6H71.18a4.78,4.78,0,0,0-1.55-3.56,7.15,7.15,0,0,0-.65-3.83c-.49-1.29-.64-2.72-1.53-3.86a.78.78,0,0,1-.05-.47A5.21,5.21,0,0,0,66,266.46a1.51,1.51,0,0,1-.29-.87,8.48,8.48,0,0,1,2.21-6s0-.1.08-.23l-.6-1.3c1.4.45,1.19-1.32,2.28-1.19a4.49,4.49,0,0,0-.85-3.25,20,20,0,0,1-1.13-2.28,8.67,8.67,0,0,0-3-3,4,4,0,0,1-1.79-2.88,5.2,5.2,0,0,0-1.43-2.9l-1.86.67-2.05-1.35c-.7.41-1.24.74-1.8,1a1.52,1.52,0,0,0-.84,2.24c.25.63.46,1.27.72,2l-1.12.09a6.12,6.12,0,0,1-.33.89,1.61,1.61,0,0,0,.41,2.27c1,.92.93,2.3,1.31,3.55-1.27.34-1.24-1.12-2.11-1.27a17.23,17.23,0,0,1-2.35-.77c-.41,1.16-1.42,1.43-2.32,2a14.88,14.88,0,0,1-4.84,1.9,14.75,14.75,0,0,0-3.17,1.11,5.89,5.89,0,0,0-1.23,1c-.73-1.1.69-2.17,0-3.3a1.83,1.83,0,0,0,2.65.52,6.44,6.44,0,0,1,2.49-.59,5.2,5.2,0,0,0,2.59-1.16,20,20,0,0,1,1.94-1.16,10.42,10.42,0,0,0,1.24-2.05,44.06,44.06,0,0,0,1.05-4.34.8.8,0,0,0-.33-.66c-.88-.48-.86-1.24-.81-2.09a15.31,15.31,0,0,0-.13-2.06c.43,0,1.17.17.88-.58s.07-1.35.11-2c.05-.92.29-2.05-.5-2.93-.19-.21-.19-.58-.34-1.13l1,.65a11.89,11.89,0,0,0-1.11-5.45,2.56,2.56,0,0,1,.27-3.14,1.65,1.65,0,0,1,.44-.24c.88.69.15,1.51.23,2.35l2,.34a24.83,24.83,0,0,0-2.41-7.76,10.26,10.26,0,0,1-.82-6.23,8,8,0,0,0-.85-4.76c-.53-1.09-.86-2.17-.11-3.27-.8-1.06-.8-1.06-2.13-1.06,0,.14-.07.29-.11.44s-.08.29-.14.51c-.17-.13-.35-.19-.39-.3a2,2,0,0,1-.16-.78,1,1,0,0,1,1.42-.92c.44.16.87.36,1.39.58a4.54,4.54,0,0,1,.56-1.05,2.08,2.08,0,0,0,.31-2.88,2.13,2.13,0,0,1,.1-2.44,1.24,1.24,0,0,0-.14-1.74c-.83-.95-1.63-1.92-2.48-2.85a1.26,1.26,0,0,0-.71-.23,1.56,1.56,0,0,1-1.37-1.38c.07-1.17-.73-1.73-1.34-2.64l1.13-2a13.63,13.63,0,0,0-1.23-1.09,1.42,1.42,0,0,0-.84-.18,1,1,0,0,1-1.08-1c-.2-1.41-.16-1.42-1.34-1.62a3.61,3.61,0,0,0-.48-.05c-.79,0-1.1-.49-1.25-1.21-.55-2.62-.88-2.85-3.87-2.84,0-.49.17-.87.71-.76,1.14.25,2.28.55,3.39.9a1.09,1.09,0,0,1,.78,1.25,8.22,8.22,0,0,0,.08,1.28c1.12.48,2.41.26,3.31,1.29l.86-1.29a3,3,0,0,0,1.5,2.89,1.42,1.42,0,0,0,.86.26c1.45-.28,2.16.75,3.06,1.51-.46,1.67-2.71,2.11-2.44,4.1a17.74,17.74,0,0,0,3.52,4.21,4.7,4.7,0,0,1,1.52,2.55,5.18,5.18,0,0,0,1.7,2.66,3.57,3.57,0,0,0,3.18.52,1.69,1.69,0,0,1,2,.47c-.16.12-.33.34-.46.33-2-.23-4.21.39-6-1.13-.21-.18-.64-.1-1-.14,0,.28-.08.4,0,.48.59,1.34,1.28,2.58.55,4.2a2.55,2.55,0,0,0,.84,2.68c-.78.8-1.18,1.65-.41,2.68.13.17.05.53,0,.78-.23,1-.87,2-.15,3.14.25.39-.18.78-1,.35.19,1,.34,1.88.51,2.75a3.59,3.59,0,0,1,.18.77c0,.88,0,1.62.94,2.17a1.32,1.32,0,0,1,.52,1.77,1.32,1.32,0,0,0,.14,1.06c.55,1,.21,2.29,1.23,3.07a.34.34,0,0,1,.07.3c-.33,1,.4,1.57.88,2.29-.72.49-1.38.92-2,1.37-1,.7-1,1.11.17,1.79a2.25,2.25,0,0,1,.27.23,5,5,0,0,0,.26,5.86l.77-.82c1.27.61,2.59,1.22,4.06.5a2.52,2.52,0,0,0,2.47,1.24c1.49.09,1.88.57,1.76,2a5.11,5.11,0,0,0,.26,1.3l1.29-.53c-.5,1.43-.61,2.65.92,3.55.73-.54,1.49-1.11,2.26-1.67a18.18,18.18,0,0,1,1.71-1.17c1.4-.78,2.82-1.51,4.23-2.26.09-.05.24-.07.28-.14a2,2,0,0,1,2.72-.84c.24.08.61-.15.89-.28.78-.36,1.55-.73,2.3-1.14a5,5,0,0,0,.85-.69l1.58-1.43,1.52.87a3.28,3.28,0,0,1,1.72-1.75,16.56,16.56,0,0,0,2.68-2.26c.23-.21.43-.46.66-.67.39-.35,1.05-.22,1.31-.85a6.89,6.89,0,0,0,.79-3.57c-.19-1.33-.42-2.6.38-3.88a4.33,4.33,0,0,0,.28-2c0-1.27,0-2.54,0-3.89l1,.06a25.49,25.49,0,0,1,1.25,6.32c0,.46.6.9,1.07,1.56l.75-1.75a8.56,8.56,0,0,1,1.41,1,1.62,1.62,0,0,0,2,.46,10,10,0,0,1,1.73-.4,3.15,3.15,0,0,0,0-.66c-.27-1.44-.22-1.51,1.05-2.21.23-.13.35-.44.52-.69,1.15-.14,1.44-1.18,1.92-2,.13-.21-.05-.72-.24-1a3.69,3.69,0,0,0-.89-.67c-.52-.38-.52-.38-.31-1.43-1.48.63-2-.24-2.49-1.4-.26-.61-1-1-1.42-1.43a22.79,22.79,0,0,0-2.91.82,10.75,10.75,0,0,0-2.44,1.48c-1,.77-1.8,1.67-3.21,1.53a3.11,3.11,0,0,0-1.1.35v2.94c-2.25-1.59-2.78-4-3.41-6.34-.22-.8-.07-1.74-.94-2.29-.13-.08-.15-.38-.17-.58-.07-.66-.12-1.32-.18-2.06,0,0,.27-.06.32,0A11.64,11.64,0,0,1,88.08,215a11.46,11.46,0,0,0,1.55,4.34L89.49,218a17.63,17.63,0,0,1,1.77-.54,3.19,3.19,0,0,0,2.1-1.36,3.91,3.91,0,0,1,2.22-1.93c.33-.08.57-.58.9-.95l.94.73c.49-.16,1-.3,1.5-.49,1.41-.54,2.08-.49,2.61.77.63,1.51,1.85,1.55,3.08,1.83.37-1.35.14-2.86,1.54-4-.3-.93.12-1.74,1.5-2.29l.69,1.14c.14-.25.25-.38.23-.42a4.59,4.59,0,0,1-.88-3.91,2.66,2.66,0,0,0-.56-2.42,2.39,2.39,0,0,1-.41-1c-.19-.76-.35-1.53-.57-2.53l2.44.6-.92,1.35c.18.66.68.8,1.09.4a27.71,27.71,0,0,0,2.86-3.2c.43-.59-.53-1.6-1.36-1.4a10.28,10.28,0,0,0-1.87.87c-.85-.67-.89-.86-.21-1.47a6,6,0,0,1,.91-.66c1.14-.7,1.22-1.84,1.22-3,0-.74-.65-.68-1.29-.81l.24,1.32c-.13.08-.26.19-.3.17-.29-.17-.74-.33-.8-.58a20.8,20.8,0,0,0-.51-2.74,3.25,3.25,0,0,0-2.34-2,10.21,10.21,0,0,0-1.34-.09l1.05-1.49-1.35-.57c.82-1.35.91-3,2.24-4.26l-2-.36c1.18-.58,2.21-.89,2.17-2.2l-2.07.27,0-.37a15.32,15.32,0,0,0,1.78-.64c-52.67,3.52-79.31-2.64-79.31-2.64-14,88.73,28.1,107.21,28.1,107.21h50.28l7.39-5.18L121,271C146.89,226.66,136.65,176.84,136.65,176.84ZM71.33,263.7l-.21.15h0l.21-.15a.61.61,0,0,0,.17-.17A.61.61,0,0,1,71.33,263.7ZM48.76,223.18h0l-.21-.2Zm5.57,12.89h0s0,.1.06.15S54.35,236.11,54.33,236.07Zm44.44-11.32h0l-.15.1Zm-.17-.2h0l-.13.07ZM38.88,206.33h0l.27-.11ZM79.68,274.7l-.07-.13a.18.18,0,0,0-.08-.09.18.18,0,0,1,.08.09l.07.13ZM85,274l-1.84,1.29h0a2.07,2.07,0,0,0-.84-1.93,2.07,2.07,0,0,1-.67-1.4c-.09-1.49,0-3,0-4.49l.39,0c.93,1.34,1.8,2.69,1.39,4.53l1.07.22.58,1.81Zm17.38-19.38a2.55,2.55,0,0,0-.41-1.18,6.78,6.78,0,0,0-1.46-.81,2.82,2.82,0,0,1,.22-.39,4.57,4.57,0,0,1,.4-.39c-1.53-.59-1.53-.59-1.85-1.35.5-.05,1-.08,1.51-.16s.89-.26,1.35-.3a12.77,12.77,0,0,1,1.6.07l-.37-.93c.52-.55,1.24-.36,1.9-.33Q103.94,251.76,102.42,254.65ZM113.6,216c.12-.08.16-.28.22-.49h0c0-.07,0-.14.06-.21s0,.14-.06.21h0C113.76,215.72,113.72,215.92,113.6,216Z"/></g></svg>