<svg xmlns="http://www.w3.org/2000/svg" viewBox="0 0 326 478.33"><defs><style>.cls-1{fill:#83aa40;}.cls-2{fill:#7fb871;}.cls-3{fill:#8c8a90;}.cls-4{fill:#231f20;}.cls-5{fill:#505051;}.cls-6{fill:#b89a8c;}.cls-7{fill:#496048;}</style></defs><title>tallplant</title><g id="big_pot" data-name="big pot"><path class="cls-1" d="M201.14,197.65l-1.08,3.79c.43-7.92.72-17.31.6-27.51,1.91-.26,5.55-1.57,10.67-7,7.79-8.33,26.08-3.75,26.08-3.75l2.73-6.61c-24.14-13.63-39.43,10.36-39.43,10.36l-.17.76c-.26-9.18-.89-18.85-2-28.55,2.06-.54,5.36-2.18,9.73-6.86,7.79-8.33,26.08-3.75,26.08-3.75l2.73-6.61c-24.14-13.63-39.43,10.36-39.43,10.36a85.52,85.52,0,0,0-3.9-15.44c1-3.68,3.26-8.71,8.13-9.94a90.14,90.14,0,0,0,12.08-3.77l-2-3.87s-14.17,2.48-16.14,5.72a76.71,76.71,0,0,0-3.83,7.16,115.22,115.22,0,0,0-7-14.39c.48-3,2.35-11.25,8.76-12.87a90.14,90.14,0,0,0,12.08-3.77l-2-3.87s-14.17,2.48-16.14,5.72c-1.5,2.48-4.25,7.44-5.2,10.67Q180,89.66,177.2,86c.6-3.36,2.6-10.8,8.67-12.32A90.14,90.14,0,0,0,198,69.87l-2-3.87s-14.17,2.48-16.14,5.72c-1.53,2.53-4.36,7.63-5.25,10.85a97.85,97.85,0,0,0-8.63-9.36,10.25,10.25,0,0,0-.46-1.72c-1.33-3.74-11.82-18.23-16.54-24.55s-21-15.59-21-15.59l1.28,6s5.7,4.56,15.3,10.78c6.33,4.1,13.35,14.71,17.4,21.47-11.1-9.21-23.44-14.22-35.11-11.53,0,0,25,2.47,45.25,24.59-4.81-1.91-18.21-4.72-24.54-5.93-7.08-1.36-25.91,3.4-25.91,3.4l3.83,3.61s7.17-.67,18.61-2.9,31,5.67,31,5.67a1,1,0,0,0,.13-.21,4.23,4.23,0,0,0,.35.4,84.28,84.28,0,0,1,6.13,8.76c-3-1.87-18.77-5.18-25.79-6.53s-25.91,3.4-25.91,3.4l3.83,3.61s7.17-.67,18.61-2.9,31,5.67,31,5.67a.85.85,0,0,0,.09-.14,96.11,96.11,0,0,1,6.19,13.53c-5.39-2.22-17.59-4.39-23.58-5.28-7.15-1.06-27.59,10-27.59,10l3.38,5.36a179.74,179.74,0,0,0,19.9-8c9.43-4.33,22.8.44,28.55,2.91a2.56,2.56,0,0,0,0,.82,4.14,4.14,0,0,0,2,2.61q1.32,4.73,2.32,9.95c-5.35-2.66-17.51-4.26-23.52-4.78-7.26-.62-30.13,20-30.13,20l2.72,8s8.23-4.82,21.83-15.6c11.34-9,25.92-1.61,30.47,1.1.2,1.58.39,3.19.54,4.83.56,5.95,1,12.3,1.25,18.73-3.7-3.36-18.47-5.34-25.3-5.93-7.26-.62-30.13,20-30.13,20l2.72,8s8.23-4.82,21.83-15.6c12-9.52,27.7-.66,31.19,1.54.31,9.85.38,19.57.35,28a7.48,7.48,0,0,0-.5-.95c-2.38-3.75-18.6-5.95-25.86-6.57s-30.13,20-30.13,20l2.72,8s8.23-4.82,21.83-15.6,31.65,1.83,31.9,2c-.13,11.81-.43,19.84-.43,19.84s1-7.27,1.75-18.86c0-.65.09-1.34.13-2,1.8.05,7-.5,14.82-7.1,9.93-8.33,33.27-3.75,33.27-3.75l3.48-6.61C220.65,173.67,201.14,197.65,201.14,197.65Z"/><path class="cls-2" d="M196.76,139.86s8.82-20.18,37.53-16.43c0,0-11.93.76-14.36,2S209.4,123.47,196.76,139.86Z"/><path class="cls-3" d="M109.16,369.94s35.48,8.21,105.53-.28c0,0,9.8,47.68-15,90.14l-8.49,7.78-7.08,5H136S95.72,454.85,109.16,369.94Z"/><ellipse class="cls-4" cx="161.93" cy="369.66" rx="52.76" ry="3.96"/><path class="cls-3" d="M109.16,369.94s35.48,8.21,105.53-.28c0,0,9.8,47.68-15,90.14l-8.49,7.78-7.08,5H136S95.72,454.85,109.16,369.94Z"/><ellipse class="cls-4" cx="161.93" cy="369.66" rx="52.76" ry="3.96"/><path class="cls-5" d="M139,418.66l-.09-.15.09.15Z"/><path class="cls-5" d="M137.23,422.59h0c-.45.34-.9.66-1.46.19h0C136.33,423.24,136.78,422.93,137.23,422.59Z"/><path class="cls-5" d="M138.28,421.16l-.08,0,.08,0a1.45,1.45,0,0,0,.07-.15A1.45,1.45,0,0,1,138.28,421.16Z"/><path class="cls-5" d="M138.31,421l-.05,0a1.45,1.45,0,0,0-.07.16,1.39,1.39,0,0,1,.07-.15Z"/><path class="cls-5" d="M134.42,421h0a.82.82,0,0,0-.13-.08A.78.78,0,0,1,134.42,421Z"/><path class="cls-5" d="M174.43,409.07v0Z"/><path class="cls-5" d="M124.58,467l-.11.08a1.37,1.37,0,0,1-.12-.25,1.37,1.37,0,0,0,.12.25Z"/><path class="cls-5" d="M169.61,401.3h0l.07-.36Z"/><path class="cls-5" d="M109.87,409.59l.16.16,0,0,0,0Z"/><path class="cls-5" d="M170.43,380.74s0,.1,0,.15h0C170.47,380.84,170.47,380.76,170.43,380.74Z"/><path class="cls-5" d="M186.48,381.65l-.23.26.23-.26Z"/><path class="cls-5" d="M169.62,401.36l.72.33-.72-.33Z"/><path class="cls-5" d="M132.3,388.14s.11-.14.16-.21h0C132.4,388,132.28,388.1,132.3,388.14Z"/><path class="cls-5" d="M106.68,429.11h0l0-.16Z"/><path class="cls-5" d="M186.49,381.83a.43.43,0,0,0,0,.19A.43.43,0,0,1,186.49,381.83Z"/><path class="cls-5" d="M186.49,381.82c0-.05,0-.11,0-.16h0C186.5,381.71,186.49,381.77,186.49,381.82Z"/><path class="cls-5" d="M110,409.5s.08.07.11.11h0S110.05,409.51,110,409.5Z"/><path class="cls-5" d="M176.45,460.53a.91.91,0,0,1-.24.2h0A.91.91,0,0,0,176.45,460.53Z"/><path class="cls-5" d="M208.72,379.37a1.45,1.45,0,0,1-.86,1.53c-.23.12-.37.4-.6.52a2.64,2.64,0,0,0-1.29,2c0,.19-.16.44-.08.58a2,2,0,0,1-.17,1.84,1.59,1.59,0,0,0,.34,1.75c.31.34.64.68,1,1.07a4.84,4.84,0,0,1-.26.91q-.93,1.89-1.91,3.75c-.27.5-.64.95-.9,1.45-.46.89-.58.93-1.56.7a1.31,1.31,0,0,1-.94-.82,2,2,0,0,0-1.25-1.09,8.22,8.22,0,0,1-.92-.42,6.8,6.8,0,0,0-2.13-1.08,4.65,4.65,0,0,1-2.24-1,1.8,1.8,0,0,0-1.6-.31,5.62,5.62,0,0,1-1.8,0c-.51,0-1-.13-1.53-.2l-.08.21a3.8,3.8,0,0,0,.61.42,4,4,0,0,0,2.48.08,2.15,2.15,0,0,1,2.26.75,10.41,10.41,0,0,0,1.18,1.11,2,2,0,0,0,.69.37c.37.11.79.1,1.14.24s.8.49,1.22.67.89.28,1.34.43c0,0,.06.14.09.21l-.89-.07a4.31,4.31,0,0,0,3.54,1.67v2.2l-1.41.1,0,.28a7,7,0,0,1,1,.26c.42.18,1,.15,1.14.7s-.42,1-.84,1.26a4.44,4.44,0,0,0-1.17,1.08c-.37.39-.67.84-1,1.22s-.89.66-.15,1.16c.06,0,0,.25,0,.37-.11.59-.26,1.17-.32,1.76a1.18,1.18,0,0,0,.27.71c.11.15.37.18.5.32s.11.29.16.44c-.18,0-.42.16-.51.09a10.84,10.84,0,0,1-1-.87c-.3.05-.65.23-.88.13-1-.42-1.7.23-2.53.42l0,.23,1.3-.17c0,.82-.63,1-1.36,1.38L198,410c-.83.8-.89,1.82-1.4,2.67l.85.36-.66.93a6.41,6.41,0,0,1,.84.06,2,2,0,0,1,1.47,1.25,13.06,13.06,0,0,1,.32,1.72c0,.16.32.26.5.37,0,0,.11-.06.19-.11l-.15-.83c.4.08.81,0,.81.51a1.91,1.91,0,0,1-.76,1.87,3.75,3.75,0,0,0-.57.42c-.42.39-.4.5.13.92a6.45,6.45,0,0,1,1.17-.55c.52-.13,1.13.51.86.88a17.4,17.4,0,0,1-1.79,2c-.26.25-.57.17-.68-.25l.58-.85-1.53-.37c.14.63.24,1.11.36,1.59a1.5,1.5,0,0,0,.26.65,1.67,1.67,0,0,1,.35,1.52,2.88,2.88,0,0,0,.55,2.46s-.06.11-.14.26l-.43-.71c-.86.35-1.13.85-.94,1.44-.88.7-.74,1.64-1,2.49-.78-.18-1.54-.2-1.94-1.15-.33-.79-.75-.82-1.64-.49-.31.12-.63.21-.94.31l-.59-.46c-.21.23-.35.54-.56.59a2.46,2.46,0,0,0-1.4,1.21,2,2,0,0,1-1.32.85,11.07,11.07,0,0,0-1.11.34l.09.89a7.2,7.2,0,0,1-1-2.73,7.31,7.31,0,0,0-1.41-3.07s-.17,0-.2,0c0,.46.07.88.12,1.29,0,.13,0,.32.11.37.55.35.45.93.59,1.44.4,1.47.73,3,2.14,4v-1.84a2,2,0,0,1,.69-.22c.88.09,1.41-.47,2-1a6.75,6.75,0,0,1,1.53-.93,14.31,14.31,0,0,1,1.83-.52c.27.26.72.51.89.9.32.72.63,1.27,1.56.88-.13.66-.14.66.19.9a2.31,2.31,0,0,1,.56.42c.12.17.23.49.15.62-.31.49-.48,1.14-1.21,1.23-.1.15-.18.35-.33.43-.8.44-.83.49-.66,1.39a2,2,0,0,1,0,.41,6.28,6.28,0,0,0-1.09.25,1,1,0,0,1-1.27-.29,5.37,5.37,0,0,0-.89-.61l-.47,1.1c-.3-.41-.66-.69-.67-1a16,16,0,0,0-.79-4l-.61,0c0,.85,0,1.65,0,2.44a2.72,2.72,0,0,1-.18,1.28,3.33,3.33,0,0,0-.24,2.43,4.33,4.33,0,0,1-.5,2.24c-.16.4-.58.32-.82.54s-.27.29-.41.42a10.4,10.4,0,0,1-1.69,1.42,2.06,2.06,0,0,0-1.08,1.1l-1-.55-1,.9a3.11,3.11,0,0,1-.53.43c-.47.26-1,.49-1.44.72-.18.08-.41.23-.56.18a1.26,1.26,0,0,0-1.71.53s-.12.06-.18.09c-.89.47-1.78.93-2.66,1.42a11.41,11.41,0,0,0-1.07.73l-1.42,1c-1-.56-.89-1.33-.58-2.23l-.81.33a3.21,3.21,0,0,1-.16-.81c.07-.93-.17-1.23-1.11-1.29a1.58,1.58,0,0,1-1.55-.78,2.78,2.78,0,0,1-2.55-.32L166,445a3.11,3.11,0,0,1-.16-3.68,1.41,1.41,0,0,0-.17-.15c-.71-.42-.73-.68-.11-1.12.4-.28.82-.55,1.27-.86-.3-.45-.76-.83-.55-1.44a.21.21,0,0,0,0-.19c-.64-.49-.43-1.32-.77-1.93a.83.83,0,0,1-.09-.66.83.83,0,0,0-.33-1.11c-.61-.34-.62-.81-.59-1.36a2.26,2.26,0,0,0-.11-.48c-.1-.54-.2-1.09-.32-1.73.49.27.76,0,.6-.22-.45-.72-.05-1.32.1-2,0-.16.08-.39,0-.49-.49-.64-.23-1.18.26-1.68a1.6,1.6,0,0,1-.53-1.68,3,3,0,0,0-.34-2.64c0-.05,0-.13,0-.3.21,0,.48,0,.61.09,1.13,1,2.5.57,3.77.71.09,0,.19-.13.29-.21a1.06,1.06,0,0,0-1.24-.29,2.24,2.24,0,0,1-2-.33,3.25,3.25,0,0,1-1.06-1.67,3,3,0,0,0-1-1.6,11.14,11.14,0,0,1-2.21-2.64c-.17-1.25,1.25-1.52,1.53-2.57-.57-.48-1-1.13-1.92-.95a.89.89,0,0,1-.54-.16,1.85,1.85,0,0,1-.94-1.81l-.54.81c-.57-.65-1.38-.51-2.08-.81a5.16,5.16,0,0,1-.05-.8.68.68,0,0,0-.49-.79c-.7-.22-1.41-.41-2.13-.56-.34-.08-.45.16-.45.47,1.87,0,2.08.14,2.43,1.78.09.45.29.75.78.76l.3,0c.74.13.72.13.84,1a.62.62,0,0,0,.68.6.89.89,0,0,1,.53.11,8.56,8.56,0,0,1,.77.69l-.71,1.24c.39.57.89.92.84,1.66a1,1,0,0,0,.86.86.79.79,0,0,1,.45.15c.53.58,1,1.19,1.56,1.79a.78.78,0,0,1,.09,1.09,1.34,1.34,0,0,0-.06,1.53,1.31,1.31,0,0,1-.19,1.81,2.85,2.85,0,0,0-.35.66c-.33-.14-.59-.26-.87-.36a.59.59,0,0,0-.89.57,1.24,1.24,0,0,0,.1.49c0,.07.14.11.25.19l.09-.32.07-.27c.84,0,.84,0,1.34.66a1.9,1.9,0,0,0,.07,2.05,5,5,0,0,1,.54,3,6.44,6.44,0,0,0,.52,3.91,15.59,15.59,0,0,1,1.52,4.87l-1.27-.21c-.05-.53.41-1-.15-1.48a1,1,0,0,0-.28.15,1.61,1.61,0,0,0-.17,2,7.46,7.46,0,0,1,.7,3.42l-.64-.41c.1.35.1.58.22.71a2.3,2.3,0,0,1,.31,1.84c0,.41-.25.77-.07,1.26s-.28.36-.55.37a9.61,9.61,0,0,1,.08,1.29c0,.53,0,1,.51,1.31a.5.5,0,0,1,.21.42,27.67,27.67,0,0,1-.66,2.72,6.54,6.54,0,0,1-.78,1.29,12.55,12.55,0,0,0-1.22.73,3.26,3.26,0,0,1-1.63.73,4,4,0,0,0-1.56.37,1.15,1.15,0,0,1-1.66-.33c.43.71-.46,1.38,0,2.07a3.7,3.7,0,0,1,.77-.65,9.26,9.26,0,0,1,2-.7,9.35,9.35,0,0,0,3-1.19c.57-.33,1.2-.5,1.46-1.23a10.82,10.82,0,0,0,1.48.48c.54.1.52,1,1.32.8-.24-.78-.17-1.65-.82-2.23a1,1,0,0,1-.26-1.42,3.84,3.84,0,0,0,.21-.56l.7-.06c-.17-.47-.3-.87-.45-1.27a1,1,0,0,1,.52-1.41c.35-.19.69-.4,1.13-.65l1.29.85,1.17-.42a3.27,3.27,0,0,1,.9,1.82,2.53,2.53,0,0,0,1.13,1.81,5.45,5.45,0,0,1,1.88,1.89,12.57,12.57,0,0,0,.71,1.43,2.82,2.82,0,0,1,.53,2c-.69-.08-.55,1-1.43.75l.38.82c0,.08,0,.12,0,.14a5.33,5.33,0,0,0-1.38,3.77,1,1,0,0,0,.18.55,3.27,3.27,0,0,1,.9,2.34.49.49,0,0,0,0,.3,8.44,8.44,0,0,1,1,2.42,4.49,4.49,0,0,1,.41,2.41,3,3,0,0,1,1,2.23h1.63l2.33-1.63-.75-.67L180,469l-.6-.13a2,2,0,0,0-.11-.65c-.06-.11-.29-.12-.45-.17h0c-.27.09-.58.52-.86-.27l.86.27h0a1.33,1.33,0,0,1,.41-1.8,1.34,1.34,0,0,1-1.07-.87,4.54,4.54,0,0,0-1-1.39c-.58-.6-.62-.56-.36-1.29l-1.13-.27a2.43,2.43,0,0,1,0-2.47c.24-.36-.14-1,.47-1.21l-.21-.5,1.3-.68c1.08.84.94,2.25,1.7,3.28a3.86,3.86,0,0,0,0-.93,7.77,7.77,0,0,0-.62-2.61,5.16,5.16,0,0,1-.37-1.36c-.1-.34-.25-.67-.36-1a3.93,3.93,0,0,1-.16-.76c0-.36,0-.73-.06-1.08a.89.89,0,0,1,.35-1,6.73,6.73,0,0,1,.91-.63,2.86,2.86,0,0,0,1.25-1.38c.24-.49.39-1,1-1.26s.56-.91.35-1.45a6.59,6.59,0,0,1,3.31-1.64,7,7,0,0,0,3.33-1.75l1,1.54c0-.09,0,0,0,0-.12.32-.79.52-.23,1a1.19,1.19,0,0,0,1.63-.17,1.85,1.85,0,0,0,.12-.65h0v0a1,1,0,0,1-.51-1.14l.82-.21a1.85,1.85,0,0,1-.31,1.36h0v0l.55.18-.15,4.1,2-.72.76,1.09c.55-.83.5-1.16-.23-1.7a4,4,0,0,1-.5-.6l1.72.24c.26.24,0,1,.7,1.13h0L196,449c0,.52-.33.46-.63.42h0c0,.63-.49.89-.83,1.28l-.51.6,1.56-.16.16-.48a.92.92,0,0,0,1.21-.67.43.43,0,0,1,.74-.15,4.71,4.71,0,0,1,.46.55q.83-1.77,1.6-3.55l-.05-.17.14,0q.37-.86.72-1.73l-.61.24c-.31-.55-.25-.76.24-.85a5.86,5.86,0,0,1,.64-.07l.13-.32-1-.49c-.11-.41-.21-.76-.31-1.11a1.84,1.84,0,0,1,.11-1.64,2.17,2.17,0,0,0,.27-1c0-.56,0-1.13-.08-1.73l-.74-.07.27-2.09.39-.31-.88-.77a4.74,4.74,0,0,1,.27-1.27,4.09,4.09,0,0,1,.88-.8c-.23,0-.35,0-.48,0-.28,0-.51-.12-.42-.4,0-.11.37-.19.56-.17a2.76,2.76,0,0,1,.66.24c.82.3,1,.22,1.53-.66-1.28.17-1.28.17-1.64-.06.33-.74.33-.74,0-1.24-.11.06-.22.12-.32.19-.26.19-.54.21-.65-.11,0-.12.18-.38.34-.5a1.7,1.7,0,0,1,.55-.17l-.27-.82,1.07.44c.08-.31.08-.56.2-.67a.85.85,0,0,0-.06-1.34c-.76-.66-.72-1.61-1.08-2.41a1.15,1.15,0,0,1,.38-1.44,3,3,0,0,0,.49-.83,5,5,0,0,1,.71-1.19c.58-.55,1.24-1,1.27-1.93,0-.11.16-.21.23-.33.39-.62.78-1.24,1.14-1.87.06-.11,0-.29,0-.66l-1,1c-.88-1-1.46-2.08-2.6-2.68a.68.68,0,0,1-.24-.51,4.44,4.44,0,0,1,.13-.84,8.31,8.31,0,0,0,1.45,1.76c.24.31.48.53.82.4a1.22,1.22,0,0,0,.61-.57,10.16,10.16,0,0,1,.55-1.4A1.46,1.46,0,0,0,204,412s0-.12.08-.24c.34-.07,1,.17.8-.65a1.4,1.4,0,0,1-1.74-.82l.81.11-.32-.79h-.81c.22-.79.39-.89,1-.73a5.53,5.53,0,0,0,2.44.62,10.71,10.71,0,0,0-4.36-1.75c.09-.84.74-.45,1.22-.66l-.32-1.86-1,.3c.12-.38.21-.62.27-.87.26-1.13.53-2.25,1.76-2.76.14-.06.23-.25.37-.34a3.72,3.72,0,0,1,.68-.36,4.16,4.16,0,0,0,1.86-1.37,4.32,4.32,0,0,0-.74.1,1.13,1.13,0,0,1-1.43-.44,1.75,1.75,0,0,1-.08-1.83,1.22,1.22,0,0,1,1.28-.78,3.61,3.61,0,0,0,1.28-.18,5.34,5.34,0,0,0,1.4-.58,1.64,1.64,0,0,1,1.83-.12q0-.61,0-1.21a3,3,0,0,0-1.75.4,5.57,5.57,0,0,1-2.81.66c-.69,0-.93-.44-.6-1,.66-1.13,1.32-2.27,2-3.35a4.47,4.47,0,0,1,1.07-.87.6.6,0,0,1,.18-.08l.05-.86-.4-.12c.29-.65.3-.62.87-.87a3.93,3.93,0,0,0,1-.64.91.91,0,0,0,.27-.45q-.06-1.79-.15-3.45a5.36,5.36,0,0,0-.31-.54,1.3,1.3,0,0,1-.2-1.54,2,2,0,0,1,.34-.52q-.14-1.9-.3-3.54A1.46,1.46,0,0,0,208.72,379.37Zm-10.66,34a2.21,2.21,0,0,1-.07-.64c0-.09.18-.14.27-.2l.16.15ZM165,451.39c0,.06-.14.09-.38.22l.29-.6.14,0A1.09,1.09,0,0,1,165,451.39Zm10.94-2.91.11.19-.37.21-.09-.13Zm-.41,2.08c-.27.29-.45.2-.9-.36.86-1,.87-1.05,1.73-.72A11.88,11.88,0,0,1,175.52,450.55Zm1.09,1.38c-.18-.26-.75-.38-.4-.93l.95.9C176.89,451.92,176.65,452,176.61,451.93Zm3.13-4.09a1.86,1.86,0,0,0-.45,1.53,2.3,2.3,0,0,1-.48,1.38.87.87,0,0,1-1.43-.14,2.75,2.75,0,0,1-.17-2.88l.89.73c-.35-1.46.86-1.34,1.37-1.88C180.07,447.12,180.14,447.33,179.74,447.85Zm12.17-1.25s0-.1.05-.16l.23.09-.07.19A1.09,1.09,0,0,1,191.91,446.6Zm.42,1.83-.14-.21c.06,0,.13-.1.16-.09a.78.78,0,0,1,.18.18Zm1.52-.52a1.81,1.81,0,0,1-.15-.36.28.28,0,0,1,.2-.09.26.26,0,0,1,.15.19C194.06,447.72,194,447.78,193.85,447.91Zm1.94-7.06-.9-.06c0,.54,0,1,0,1.52s-.09,1-.14,1.51H194l0,.15.88.48a1.86,1.86,0,0,1-.61,1.59.66.66,0,0,1-.91.13c-.16-.14-.17-.46-.22-.7a1.58,1.58,0,0,1,0-.4c.08-.83-.11-1.07-1-1.2l-.61-.11c.36-.73.89-.1,1.29-.46a2.44,2.44,0,0,1-.21-.54c0-.22-.09-.56,0-.66.78-.66.4-1.4.13-2.08-.21-.5-.19-.81.26-1.1.74.69,1,.72,1.61.17.15-.12.17-.38.28-.56a3.65,3.65,0,0,1,.35-.42c.14.12.38.23.4.37a8.23,8.23,0,0,1,.05,1.21C195.79,440.06,195.79,440.42,195.79,440.85Zm1.57-.59c-.06-.06-.16-.12-.16-.19s.08-.19.13-.19.15.08.26.15Zm-.57-3c.07-1.15.17-1.25.95-.95C197.54,436.77,197.62,437.38,196.79,437.31Zm1.54-1.69c-.05,0-.13-.08-.17-.15s.06-.13.1-.13a1,1,0,0,1,.28.07C198.43,435.5,198.39,435.6,198.33,435.61Zm1,3.08s.07,0,.07,0a.9.9,0,0,1-.05.15l-.14-.08A.91.91,0,0,1,199.36,438.69Zm-.43,1.8s-.05.09-.08.14l-.14-.08.12-.18S198.93,440.44,198.94,440.49Zm2-30.75c-.23,0-.53.18-.68.08-.32-.19-.37-.53.13-1.16l.73.74Zm.5,2.76-.24-.34.2-.1.17.37Zm1.93-.66c-.08.4-.24.54-.66.35C202.77,411.83,202.93,411.69,203.34,411.84Zm-.35,1.63-.77,1.05-.58-.44C202.42,413.21,202.51,413.17,203,413.47Zm-.5-2.54c-.65.16-.65.16-1.34-.27A.87.87,0,0,1,202.5,410.93Z"/><path class="cls-5" d="M193.39,436.09l.08,0h0Z"/><path class="cls-5" d="M184,404.48l0,0h0Z"/><path class="cls-5" d="M183.83,404.58l.08-.15h0Z"/><path class="cls-5" d="M162.17,435.19h0l-.13-.12Z"/><path class="cls-5" d="M193.58,436.18h0l-.1.06Z"/><path class="cls-5" d="M165.71,443.38l0-.09h0Z"/><path class="cls-5" d="M192.94,375l-.15.1.15-.1Z"/><path class="cls-5" d="M207.18,401.8a2.43,2.43,0,0,0,.32.28,2.43,2.43,0,0,1-.32-.28l.1-.12Z"/><path class="cls-5" d="M113.91,440.11,114,440h0Z"/><path class="cls-5" d="M203.06,430.24c-.06.17-.07.38-.18.45C203,430.62,203,430.41,203.06,430.24Z"/><path class="cls-5" d="M196.5,451.54l.23.58a8,8,0,0,0-1,0c-.28,0-.56.14-.85.19s-.63.07-.95.1c.2.47.2.47,1.16.85a2.87,2.87,0,0,0-.25.24,1.77,1.77,0,0,0-.14.25,4.26,4.26,0,0,1,.92.51,1.6,1.6,0,0,1,.26.74q.95-1.81,1.83-3.62C197.27,451.31,196.82,451.19,196.5,451.54Zm-.62,1.69c0-.05-.08-.11-.07-.15a.22.22,0,0,1,.13-.13s.09.07.16.13Z"/><path class="cls-5" d="M181.49,467.4s.06.09.09.14h0S181.53,467.42,181.49,467.4Z"/><path class="cls-5" d="M156,424.62l.17-.07-.17.07Z"/><path class="cls-5" d="M185,467.1l-.36-1.14-.67-.14a3.44,3.44,0,0,0-.87-2.85l-.24,0c0,.94,0,1.88,0,2.82a1.3,1.3,0,0,0,.42.88,1.3,1.3,0,0,1,.53,1.21h0l1.15-.81Z"/><path class="cls-6" d="M181.49,369.66s14.28-177.95,47.16-212.27c0,0-23.87,27.32-35.86,91.73s-16.58,120.54-16.58,120.54Z"/><path class="cls-6" d="M166.24,370.4s6.56-159.68,10.29-165.56c1-1.57,2.19,1.34,2.19,1.34L168.39,370.23Z"/><path class="cls-6" d="M172.48,370.4S181,261,184.42,256.9c.91-1.09,1.93.88,1.93.88l-12,112.48Z"/><path class="cls-6" d="M151.06,369.66s-14.28-177.95-47.16-212.27c0,0,23.87,27.32,35.86,91.73s16.58,120.54,16.58,120.54Z"/><path class="cls-6" d="M161.48,370.44s-5.14-159.73-8.82-165.65c-1-1.57-2.2,1.32-2.2,1.32l8.87,164.14Z"/><path class="cls-6" d="M170.82,370.44s-.72-210.41-4.24-218.1c-.94-2-2.24,1.8-2.24,1.8l4.33,216.12Z"/><path class="cls-1" d="M271,224l2-3.14s-13.54,2.83-18.14,5.66-14.89,9.35-16.54,11.23a5.64,5.64,0,0,0-.65.88,78.81,78.81,0,0,0-8,4,25.11,25.11,0,0,0-1.81-6.72c-.83-2.07-10.66-5.42-10.66-5.42l-2.17,1.85a73.29,73.29,0,0,0,8.08,3.77c4.13,1.7,4.21,6.08,4,8q-2.68,1.65-5.21,3.47a25.81,25.81,0,0,0-1.81-6.62c-.83-2.07-10.66-5.42-10.66-5.42l-2.17,1.85a73.3,73.3,0,0,0,8.08,3.77c4.36,1.79,4.2,6.59,4,8.33a74.31,74.31,0,0,0-7.74,7,35.37,35.37,0,0,0-1.46-4.49c-.83-2.07-10.66-5.42-10.66-5.42l-2.17,1.85a73.29,73.29,0,0,0,8.08,3.77c3.31,1.36,4,4.45,4.07,6.63a46.57,46.57,0,0,0-5.68,8c-.2.36-.39.73-.58,1.09a4.07,4.07,0,0,0-.65,1.22,173.83,173.83,0,0,0-14.07,38.52c-1.57,6.51-2.21,10.66-2.21,10.66s1.26-4.47,3.35-11c.21-.06,15.69-4.43,23.53,3.37a139.31,139.31,0,0,0,13,11.67l3.45-4s-12.8-14.6-18.18-15.27-17.57-1.73-20,0a5,5,0,0,0-.54.45c1.54-4.68,3.38-10,5.42-15.43,2.94-.72,16-3.42,22.93,3.52a139.3,139.3,0,0,0,13,11.67l3.45-4s-12.8-14.6-18.18-15.27c-5.07-.63-16.16-1.61-19.46-.28,1.4-3.51,2.86-7,4.36-10.16.42-.89.85-1.75,1.28-2.59,3.81-.86,15.76-2.88,22.33,3.67a139.31,139.31,0,0,0,13,11.67l3.45-4s-12.8-14.6-18.18-15.27c-4.46-.56-13.58-1.38-18-.66q1.69-2.74,3.52-5.16a3.17,3.17,0,0,0,2-1.16,1.22,1.22,0,0,0,.18-.44c4.63-.56,15.22-1.31,21.26,2.4a140.54,140.54,0,0,0,13,7.19l3.45-2.49s-12.8-9-18.18-9.41c-4.51-.35-13.77-.86-18.09-.39a60.79,60.79,0,0,1,7-6.6.42.42,0,0,0,0,.09s15.65-1.62,23.54,1.21,13,4.21,13,4.21l3.45-1.45s-12.8-5.26-18.18-5.51-17.37-.62-19.93,0a61.69,61.69,0,0,1,6.07-4l.33-.17a.49.49,0,0,0,.06.13s15.65-1.62,23.54,1.21,13,4.21,13,4.21l3.45-1.45s-12.8-5.26-18.18-5.51c-4.82-.22-15.06-.55-18.91-.17A73.63,73.63,0,0,1,269,235.76c-8-3.12-17.87-2.09-27.62,1.44,4.19-3.16,11.24-8,16.59-9.41C266.07,225.7,271,224,271,224Z"/><path class="cls-7" d="M303.2,120.78l2.72-5.51s-18.08,5-24.21,9.93-19.87,16.42-22.08,19.72a10.24,10.24,0,0,0-.87,1.55,97.85,97.85,0,0,0-10.67,6.95c-.07-3.34-1.55-9-2.42-11.81-1.11-3.63-14.23-9.52-14.23-9.52l-2.89,3.26A90.14,90.14,0,0,0,239.32,142c5.51,3,5.61,10.67,5.37,14.08q-3.58,2.89-7,6.1c-.13-3.36-1.57-8.85-2.41-11.62-1.11-3.63-14.23-9.52-14.23-9.52l-2.89,3.26A90.15,90.15,0,0,0,229,150.9c5.82,3.14,5.61,11.57,5.33,14.63A115.22,115.22,0,0,0,224,177.75a76.71,76.71,0,0,0-1.95-7.88c-1.11-3.63-14.23-9.52-14.23-9.52l-2.89,3.26a90.14,90.14,0,0,0,10.78,6.63c4.42,2.39,5.36,7.82,5.43,11.64a85.51,85.51,0,0,0-7.58,14c-.27.64-.52,1.28-.77,1.91a8.12,8.12,0,0,0-.87,2.15c-9.84,24.79-15.68,50.74-18.79,67.64-2.1,11.42-3,18.71-3,18.71s1.69-7.85,4.47-19.33c.28-.1,20.94-7.79,31.41,5.92s17.32,20.5,17.32,20.5l4.6-7.08s-17.08-25.64-24.27-26.82-23.45-3-26.69,0a7.48,7.48,0,0,0-.72.79c2.05-8.21,4.52-17.62,7.24-27.09,3.93-1.27,21.3-6,30.61,6.19,10.53,13.8,17.32,20.5,17.32,20.5l4.6-7.08S238.94,227.15,231.75,226c-6.77-1.11-21.57-2.83-26-.49,1.87-6.16,3.82-12.22,5.83-17.85.55-1.56,1.13-3.06,1.71-4.55,5.08-1.51,21-5.06,29.81,6.44,10.53,13.8,17.32,20.5,17.32,20.5l4.6-7.08S248,197.3,240.76,196.12c-6-1-18.13-2.42-24-1.16q2.25-4.81,4.7-9.07a4.14,4.14,0,0,0,2.63-2,2.56,2.56,0,0,0,.24-.78c6.17-1,20.31-2.31,28.38,4.21a179.74,179.74,0,0,0,17.32,12.63l4.6-4.36s-17.08-15.8-24.27-16.52c-6-.61-18.38-1.51-24.15-.69a96.11,96.11,0,0,1,9.33-11.59.85.85,0,0,0,.06.16S256.5,164.06,267,169s17.32,7.39,17.32,7.39l4.6-2.55s-17.08-9.24-24.27-9.67-23.19-1.09-26.6,0a84.27,84.27,0,0,1,8.1-7,4.23,4.23,0,0,0,.44-.3,1,1,0,0,0,.08.24s20.89-2.84,31.42,2.13,17.32,7.39,17.32,7.39l4.6-2.55s-17.08-9.24-24.27-9.67c-6.43-.38-20.11-1-25.24-.29,25.06-16.45,49.91-12.69,49.91-12.69-10.65-5.48-23.85-3.67-36.87,2.53,5.59-5.55,15-14.1,22.15-16.52C296.55,123.8,303.2,120.78,303.2,120.78Z"/><path class="cls-7" d="M32.23,146.19l-2.72-5.51s18.08,5,24.21,9.93S73.6,167,75.81,170.33a10.24,10.24,0,0,1,.87,1.55,97.85,97.85,0,0,1,10.67,6.95c.07-3.34,1.55-9,2.42-11.81,1.11-3.63,14.23-9.52,14.23-9.52l2.89,3.26a90.14,90.14,0,0,1-10.78,6.63c-5.51,3-5.61,10.67-5.37,14.08q3.58,2.89,7,6.1c.13-3.36,1.57-8.85,2.41-11.62,1.11-3.63,14.23-9.52,14.23-9.52l2.89,3.26a90.15,90.15,0,0,1-10.78,6.63c-5.82,3.14-5.61,11.57-5.33,14.63a115.22,115.22,0,0,1,10.33,12.22,76.71,76.71,0,0,1,1.95-7.88c1.11-3.63,14.23-9.52,14.23-9.52l2.89,3.26a90.14,90.14,0,0,1-10.78,6.63c-4.42,2.39-5.36,7.82-5.43,11.64a85.51,85.51,0,0,1,7.58,14c.27.64.52,1.28.77,1.91a8.12,8.12,0,0,1,.87,2.15c9.84,24.79,15.68,50.74,18.79,67.64,2.1,11.42,3,18.71,3,18.71s-1.69-7.85-4.47-19.33c-.28-.1-20.94-7.79-31.41,5.92s-17.32,20.5-17.32,20.5l-4.6-7.08s17.08-25.64,24.27-26.82,23.45-3,26.69,0a7.48,7.48,0,0,1,.72.79c-2.05-8.21-4.52-17.62-7.24-27.09-3.93-1.27-21.3-6-30.61,6.19C90.79,278.57,84,285.28,84,285.28l-4.6-7.08s17.08-25.64,24.27-26.82c6.77-1.11,21.57-2.83,26-.49-1.87-6.16-3.82-12.22-5.83-17.85-.55-1.56-1.13-3.06-1.71-4.55-5.08-1.51-21-5.06-29.81,6.44C81.78,248.72,75,255.42,75,255.42l-4.6-7.08s17.08-25.64,24.27-26.82c6-1,18.13-2.42,24-1.16q-2.25-4.81-4.7-9.07a4.14,4.14,0,0,1-2.63-2,2.56,2.56,0,0,1-.24-.78c-6.17-1-20.31-2.31-28.38,4.21a179.74,179.74,0,0,1-17.32,12.63L60.77,221S77.86,205.16,85,204.43c6-.61,18.38-1.51,24.15-.69a96.11,96.11,0,0,0-9.33-11.59.85.85,0,0,1-.06.16s-20.89-2.84-31.42,2.13-17.32,7.39-17.32,7.39l-4.6-2.55s17.08-9.24,24.27-9.67,23.19-1.09,26.6,0a84.27,84.27,0,0,0-8.1-7,4.23,4.23,0,0,1-.44-.3,1,1,0,0,1-.08.24s-20.89-2.84-31.42,2.13S40,192.07,40,192.07l-4.6-2.55s17.08-9.24,24.27-9.67c6.43-.38,20.11-1,25.24-.29C59.85,163.1,35,166.86,35,166.86c10.65-5.48,23.85-3.67,36.87,2.53-5.59-5.55-15-14.1-22.15-16.52C38.88,149.2,32.23,146.19,32.23,146.19Z"/><path class="cls-1" d="M39.85,83.74l-2.72-5.51s18.08,5,24.21,9.93,19.87,16.42,22.08,19.72a10.24,10.24,0,0,1,.87,1.55A97.85,97.85,0,0,1,95,116.37c.07-3.34,1.55-9,2.42-11.81C98.5,100.93,111.62,95,111.62,95l2.89,3.26a90.14,90.14,0,0,1-10.78,6.63c-5.51,3-5.61,10.67-5.37,14.08q3.58,2.89,7,6.1c.13-3.36,1.57-8.85,2.41-11.62C108.85,109.86,122,104,122,104l2.89,3.26a90.15,90.15,0,0,1-10.78,6.63c-5.82,3.14-5.61,11.57-5.33,14.63a115.22,115.22,0,0,1,10.33,12.22,76.71,76.71,0,0,1,1.95-7.88c1.11-3.63,14.23-9.52,14.23-9.52l2.89,3.26a90.14,90.14,0,0,1-10.78,6.63c-4.42,2.39-5.36,7.82-5.43,11.64a85.51,85.51,0,0,1,7.58,14c.27.64.52,1.28.77,1.91a8.12,8.12,0,0,1,.87,2.15c9.84,24.79,15.68,50.74,18.79,67.64,2.1,11.42,3,18.71,3,18.71s-1.69-7.85-4.47-19.33c-.28-.1-20.94-7.79-31.41,5.92s-17.32,20.5-17.32,20.5l-4.6-7.08s17.08-25.64,24.27-26.82,23.45-3,26.69,0a7.48,7.48,0,0,1,.72.79c-2.05-8.21-4.52-17.62-7.24-27.09-3.93-1.27-21.3-6-30.61,6.19-10.53,13.8-17.32,20.5-17.32,20.5L87,215.74s17.08-25.64,24.27-26.82c6.77-1.11,21.57-2.83,26-.49-1.87-6.16-3.82-12.22-5.83-17.85-.55-1.56-1.13-3.06-1.71-4.55-5.08-1.51-21-5.06-29.81,6.44C89.4,186.27,82.62,193,82.62,193L78,185.89s17.08-25.64,24.27-26.82c6-1,18.13-2.42,24-1.16q-2.25-4.81-4.7-9.07a4.14,4.14,0,0,1-2.63-2,2.56,2.56,0,0,1-.24-.78c-6.17-1-20.31-2.31-28.38,4.21A179.74,179.74,0,0,1,73,162.87l-4.6-4.36S85.48,142.71,92.67,142c6-.61,18.38-1.51,24.15-.69a96.11,96.11,0,0,0-9.33-11.59.85.85,0,0,1-.06.16S86.55,127,76,132s-17.32,7.39-17.32,7.39l-4.6-2.55s17.08-9.24,24.27-9.67,23.19-1.09,26.6,0a84.27,84.27,0,0,0-8.1-7,4.23,4.23,0,0,1-.44-.3,1,1,0,0,1-.08.24s-20.89-2.84-31.42,2.13-17.32,7.39-17.32,7.39L43,127.06s17.08-9.24,24.27-9.67c6.43-.38,20.11-1,25.24-.29-25.06-16.45-49.91-12.69-49.91-12.69,10.65-5.48,23.85-3.67,36.87,2.53-5.59-5.55-15-14.1-22.15-16.52C46.5,86.75,39.85,83.74,39.85,83.74Z"/><path class="cls-7" d="M159.93,241.07l-1.08,3.79c.43-7.92.72-17.31.6-27.51,1.91-.26,5.55-1.57,10.67-7,7.79-8.33,26.08-3.75,26.08-3.75l2.73-6.61c-24.14-13.63-39.43,10.36-39.43,10.36l-.17.76c-.26-9.18-.89-18.85-2-28.55,2.06-.54,5.36-2.18,9.73-6.86,7.79-8.33,26.08-3.75,26.08-3.75l2.73-6.61c-24.14-13.63-39.43,10.36-39.43,10.36a85.52,85.52,0,0,0-3.9-15.44c1-3.68,3.26-8.71,8.13-9.94a90.14,90.14,0,0,0,12.08-3.77l-2-3.87s-14.17,2.48-16.14,5.72a76.71,76.71,0,0,0-3.83,7.16,115.22,115.22,0,0,0-7-14.39c.48-3,2.35-11.25,8.76-12.87a90.14,90.14,0,0,0,12.08-3.77l-2-3.87s-14.17,2.48-16.14,5.72c-1.5,2.48-4.25,7.44-5.2,10.67q-2.48-3.93-5.24-7.62c.6-3.36,2.6-10.8,8.67-12.32a90.14,90.14,0,0,0,12.08-3.77l-2-3.87s-14.17,2.48-16.14,5.72c-1.53,2.53-4.36,7.63-5.25,10.85a97.85,97.85,0,0,0-8.63-9.36,10.25,10.25,0,0,0-.46-1.72c-1.33-3.74-11.82-18.23-16.54-24.55s-21-15.59-21-15.59l1.28,6s5.7,4.56,15.3,10.78c6.33,4.1,13.35,14.71,17.4,21.47-11.1-9.21-23.44-14.22-35.11-11.53,0,0,25,2.47,45.25,24.59-4.81-1.91-18.21-4.72-24.54-5.93-7.08-1.36-25.91,3.4-25.91,3.4l3.83,3.61s7.17-.67,18.61-2.9,31,5.67,31,5.67a1,1,0,0,0,.13-.21,4.23,4.23,0,0,0,.35.4,84.28,84.28,0,0,1,6.13,8.76c-3-1.87-18.77-5.18-25.79-6.53s-25.91,3.4-25.91,3.4l3.83,3.61s7.17-.67,18.61-2.9,31,5.67,31,5.67a.85.85,0,0,0,.09-.14,96.11,96.11,0,0,1,6.19,13.53c-5.39-2.22-17.59-4.39-23.58-5.28-7.15-1.06-27.59,10-27.59,10l3.38,5.36a179.74,179.74,0,0,0,19.9-8c9.43-4.33,22.8.44,28.55,2.91a2.56,2.56,0,0,0,0,.82,4.14,4.14,0,0,0,2,2.61q1.32,4.73,2.32,9.95c-5.35-2.66-17.51-4.26-23.52-4.78-7.26-.62-30.13,20-30.13,20l2.72,8s8.23-4.82,21.83-15.6c11.34-9,25.92-1.61,30.47,1.1.2,1.58.39,3.19.54,4.83.56,5.95,1,12.3,1.25,18.73-3.7-3.36-18.47-5.34-25.3-5.93-7.26-.62-30.13,20-30.13,20l2.72,8s8.23-4.82,21.83-15.6c12-9.52,27.7-.66,31.19,1.54.31,9.85.38,19.57.35,28a7.48,7.48,0,0,0-.5-.95c-2.38-3.75-18.6-5.95-25.86-6.57s-30.13,20-30.13,20l2.72,8s8.23-4.82,21.83-15.6,31.65,1.83,31.9,2c-.13,11.81-.43,19.84-.43,19.84s1-7.27,1.75-18.86c0-.65.09-1.34.13-2,1.8.05,7-.5,14.82-7.1,9.93-8.33,33.27-3.75,33.27-3.75l3.48-6.61C179.44,217.09,159.93,241.07,159.93,241.07Z"/><path class="cls-7" d="M175.5,330.25l1.08,3.79c-.43-7.92-.72-17.31-.6-27.51-1.91-.26-5.55-1.57-10.67-7-7.79-8.33-26.08-3.75-26.08-3.75l-2.73-6.61c24.14-13.63,39.43,10.36,39.43,10.36l.17.76c.26-9.18.89-18.85,2-28.55-2.06-.54-5.36-2.18-9.73-6.86-7.79-8.33-26.08-3.75-26.08-3.75l-2.73-6.61C163.75,240.86,179,264.84,179,264.84a85.52,85.52,0,0,1,3.9-15.44c-1-3.68-3.26-8.71-8.13-9.94a90.14,90.14,0,0,1-12.08-3.77l2-3.87s14.17,2.48,16.14,5.72a76.71,76.71,0,0,1,3.83,7.16,115.22,115.22,0,0,1,7-14.39c-.48-3-2.35-11.25-8.76-12.87a90.14,90.14,0,0,1-12.08-3.77l2-3.87S187,212.28,189,215.52c1.5,2.48,4.25,7.44,5.2,10.67q2.48-3.93,5.24-7.62c-.6-3.36-2.6-10.8-8.67-12.32a90.14,90.14,0,0,1-12.08-3.77l2-3.87s14.17,2.48,16.14,5.72c1.53,2.53,4.36,7.63,5.25,10.85a97.85,97.85,0,0,1,8.63-9.36,10.25,10.25,0,0,1,.46-1.72c1.33-3.74,11.82-18.23,16.54-24.55s21-15.59,21-15.59l-1.28,6s-5.7,4.56-15.3,10.78c-6.33,4.1-13.35,14.71-17.4,21.47,11.1-9.21,23.44-14.22,35.11-11.53,0,0-25,2.47-45.25,24.59,4.81-1.91,18.21-4.72,24.54-5.93,7.08-1.36,25.91,3.4,25.91,3.4l-3.83,3.61s-7.17-.67-18.61-2.9-31,5.67-31,5.67a1,1,0,0,1-.13-.21,4.23,4.23,0,0,1-.35.4,84.28,84.28,0,0,0-6.13,8.76c3-1.87,18.77-5.18,25.79-6.53s25.91,3.4,25.91,3.4l-3.83,3.61s-7.17-.67-18.61-2.9-31,5.67-31,5.67a.85.85,0,0,1-.09-.14A96.11,96.11,0,0,0,187,244.7c5.39-2.22,17.59-4.39,23.58-5.28,7.15-1.06,27.59,10,27.59,10l-3.38,5.36a179.74,179.74,0,0,1-19.9-8c-9.43-4.33-22.8.44-28.55,2.91a2.56,2.56,0,0,1,0,.82,4.14,4.14,0,0,1-2,2.61q-1.32,4.73-2.32,9.95c5.35-2.66,17.51-4.26,23.52-4.78,7.26-.62,30.13,20,30.13,20l-2.72,8s-8.23-4.82-21.83-15.6c-11.34-9-25.92-1.61-30.47,1.1-.2,1.58-.39,3.19-.54,4.83-.56,5.95-1,12.3-1.25,18.73,3.7-3.36,18.47-5.34,25.3-5.93,7.26-.62,30.13,20,30.13,20l-2.72,8s-8.23-4.82-21.83-15.6c-12-9.52-27.7-.66-31.19,1.54-.31,9.85-.38,19.57-.35,28a7.48,7.48,0,0,1,.5-.95c2.38-3.75,18.6-5.95,25.86-6.57s30.13,20,30.13,20l-2.72,8s-8.23-4.82-21.83-15.6-31.65,1.83-31.9,2c.13,11.81.43,19.84.43,19.84s-1-7.27-1.75-18.86c0-.65-.09-1.34-.13-2-1.8.05-7-.5-14.82-7.1-9.93-8.33-33.27-3.75-33.27-3.75l-3.48-6.61C156,306.26,175.5,330.25,175.5,330.25Z"/><path class="cls-7" d="M149.36,334.55l-.15,2.11c-.8-4.11-1.9-8.94-3.35-14.12,1.15-.45,3.23-1.71,5.65-5.35,3.7-5.53,15.65-6.21,15.65-6.21l.79-3.82c-16.8-3-23,11.78-23,11.78v.41a137.82,137.82,0,0,0-5.14-14.22c1.2-.62,3-2,5.1-5.1,3.7-5.53,15.65-6.21,15.65-6.21l.79-3.82c-16.8-3-23,11.78-23,11.78a38.75,38.75,0,0,0-4.51-7.23c.13-2,.84-5,3.69-6.41a67,67,0,0,0,7-3.91l-1.76-1.64s-8.44,3.6-9.22,5.57a38.78,38.78,0,0,0-1.4,4.28,57,57,0,0,0-6.29-6.18c-.12-1.63-.07-6.12,3.69-8a67,67,0,0,0,7-3.91l-1.76-1.64s-8.44,3.6-9.22,5.57a28.21,28.21,0,0,0-1.78,6.3q-2.07-1.6-4.28-3c-.08-1.81.14-5.93,3.7-7.71a67,67,0,0,0,7-3.91l-1.76-1.64s-8.44,3.6-9.22,5.57a27.43,27.43,0,0,0-1.78,6.4,57.18,57.18,0,0,0-6.61-3.35,4.67,4.67,0,0,0-.52-.8c-1.33-1.69-9.8-7.35-13.58-9.79s-15.14-4.49-15.14-4.49L83,264.69s4.15,1.39,10.94,3c4.48,1,10.27,5.3,13.69,8.08-8.12-2.87-16.45-3.39-23.32-.09a54.56,54.56,0,0,1,31.37,5.08c-3.24-.18-11.92.59-16,1-4.57.47-15.59,6-15.59,6L87,289s4.35-1.52,11.14-4.54,20-2.21,20-2.21a.54.54,0,0,0,.05-.13l.27.14a45.54,45.54,0,0,1,5,3.45c-2.14-.45-12.33.45-16.86.92s-15.59,6-15.59,6l2.86,1.21s4.35-1.52,11.14-4.54,20-2.21,20-2.21a.46.46,0,0,0,0-.09,47,47,0,0,1,5.67,5.88c-3.64-.24-11.5.66-15.32,1.19-4.57.63-15.74,9.66-15.74,9.66l2.82,2.18a131.14,131.14,0,0,0,11.25-7.34c5.25-3.76,14.19-3.53,18.08-3.22a1.12,1.12,0,0,0,.13.41,2.34,2.34,0,0,0,1.62,1q1.46,2.19,2.78,4.69c-3.68-.48-11.42.71-15.22,1.44-4.58.88-16,15.17-16,15.17l2.77,3.63a141.06,141.06,0,0,0,11.41-11.55c5.81-6.45,15.84-5.09,19-4.46.34.77.67,1.56,1,2.37,1.15,2.94,2.26,6.11,3.31,9.35-2.75-1.1-12.17.32-16.48,1.15-4.58.88-16,15.17-16,15.17l2.77,3.63a141.06,141.06,0,0,0,11.41-11.55c6.16-6.84,17.07-4.9,19.53-4.35,1.53,5,2.89,9.92,4,14.24a3.77,3.77,0,0,0-.44-.4c-2-1.52-12.33,0-16.92.91s-16,15.17-16,15.17l2.77,3.63a141.06,141.06,0,0,0,11.41-11.55c6.92-7.68,19.86-4.28,20-4.23,1.52,6,2.42,10.19,2.42,10.19s-.39-3.87-1.47-9.91l-.19-1c1.12-.27,4.24-1.4,8.22-6.06,5-5.88,20.1-7.39,20.1-7.39l1.26-3.94C158.19,319.11,149.36,334.55,149.36,334.55Z"/><path class="cls-2" d="M182.22,267.45s22.9-18.13,49.93,10.75c0,0-12.82-9.07-16.19-9.49S206.46,257.33,182.22,267.45Z"/><path class="cls-2" d="M160.86,244.45s15.22-24.93,50.57-7.16c0,0-15.16-4.08-18.47-3.31S180.12,226.57,160.86,244.45Z"/><path class="cls-2" d="M179.42,298.1s22.9-18.13,49.93,10.75c0,0-12.82-9.07-16.19-9.49S203.66,288,179.42,298.1Z"/><path class="cls-2" d="M177.45,270s-3.89-24.17-36.08-11.18c0,0,12.72-2.34,15-1.33S168.36,251.85,177.45,270Z"/><path class="cls-2" d="M175.07,304.4s-3.89-24.17-36.08-11.18c0,0,12.72-2.34,15-1.33S166,286.3,175.07,304.4Z"/><path class="cls-2" d="M180.89,331.64s22.9-18.13,49.93,10.75c0,0-12.82-9.07-16.19-9.49S205.14,321.52,180.89,331.64Z"/><path class="cls-7" d="M164.07,192.87l1.08,3.79c-.43-7.92-.72-17.31-.6-27.51-1.91-.26-5.55-1.57-10.67-7-7.79-8.33-26.08-3.75-26.08-3.75l-2.73-6.61c24.14-13.63,39.43,10.36,39.43,10.36l.17.76c.26-9.18.89-18.85,2-28.55-2.06-.54-5.36-2.18-9.73-6.86-7.79-8.33-26.08-3.75-26.08-3.75l-2.73-6.61c24.14-13.63,39.43,10.36,39.43,10.36a85.52,85.52,0,0,1,3.9-15.44c-1-3.68-3.26-8.71-8.13-9.94a90.14,90.14,0,0,1-12.08-3.77l2-3.87s14.17,2.48,16.14,5.72a76.71,76.71,0,0,1,3.83,7.16,115.22,115.22,0,0,1,7-14.39c-.48-3-2.35-11.25-8.76-12.87a90.14,90.14,0,0,1-12.08-3.77l2-3.87s14.17,2.48,16.14,5.72c1.5,2.48,4.25,7.44,5.2,10.67q2.48-3.93,5.24-7.62c-.6-3.36-2.6-10.8-8.67-12.32a90.14,90.14,0,0,1-12.08-3.77l2-3.87s14.17,2.48,16.14,5.72c1.53,2.53,4.36,7.63,5.25,10.85a97.85,97.85,0,0,1,8.63-9.36,10.25,10.25,0,0,1,.46-1.72c1.33-3.74,11.82-18.23,16.54-24.55s21-15.59,21-15.59l-1.28,6s-5.7,4.56-15.3,10.78c-6.33,4.1-13.35,14.71-17.4,21.47,11.1-9.21,23.44-14.22,35.11-11.53,0,0-25,2.47-45.25,24.59C198,76,211.41,73.17,217.74,72c7.08-1.36,25.91,3.4,25.91,3.4L239.82,79s-7.17-.67-18.61-2.9-31,5.67-31,5.67a1,1,0,0,1-.13-.21,4.23,4.23,0,0,1-.35.4,84.28,84.28,0,0,0-6.13,8.76c3-1.87,18.77-5.18,25.79-6.53s25.91,3.4,25.91,3.4l-3.83,3.61s-7.17-.67-18.61-2.9-31,5.67-31,5.67a.85.85,0,0,1-.09-.14,96.11,96.11,0,0,0-6.19,13.53c5.39-2.22,17.59-4.39,23.58-5.28,7.15-1.06,27.59,10,27.59,10l-3.38,5.36a179.74,179.74,0,0,1-19.9-8c-9.43-4.33-22.8.44-28.55,2.91a2.56,2.56,0,0,1,0,.82,4.14,4.14,0,0,1-2,2.61q-1.32,4.73-2.32,9.95c5.35-2.66,17.51-4.26,23.52-4.78,7.26-.62,30.13,20,30.13,20l-2.72,8s-8.23-4.82-21.83-15.6c-11.34-9-25.92-1.61-30.47,1.1-.2,1.58-.39,3.19-.54,4.83-.56,5.95-1,12.3-1.25,18.73,3.7-3.36,18.47-5.34,25.3-5.93,7.26-.62,30.13,20,30.13,20l-2.72,8s-8.23-4.82-21.83-15.6c-12-9.52-27.7-.66-31.19,1.54-.31,9.85-.38,19.57-.35,28a7.48,7.48,0,0,1,.5-.95c2.38-3.75,18.6-5.95,25.86-6.57s30.13,20,30.13,20l-2.72,8s-8.23-4.82-21.83-15.6-31.65,1.83-31.9,2c.13,11.81.43,19.84.43,19.84s-1-7.27-1.75-18.86c0-.65-.09-1.34-.13-2-1.8.05-7-.5-14.82-7.1-9.93-8.33-33.27-3.75-33.27-3.75l-3.48-6.61C144.57,168.88,164.07,192.87,164.07,192.87Z"/><path class="cls-2" d="M189.8,81.54S209.91,67,239.71,75.68c0,0-13.58-1.74-16.91-1.19S212.19,70.8,189.8,81.54Z"/><path class="cls-2" d="M192.45,75.87S206.23,55.21,237.19,53c0,0-13.33,3.1-16.26,4.78S209.69,58,192.45,75.87Z"/><path class="cls-2" d="M167.58,196.75s22-21.47,51.07,10c0,0-10.8-8.27-16.22-10.51C199.36,195,187.67,183.94,167.58,196.75Z"/><path class="cls-2" d="M167.58,162.53s22-21.47,51.07,10c0,0-14.91-10.51-18.23-10.44S187.67,149.73,167.58,162.53Z"/><path class="cls-2" d="M169.36,131.3s22-21.47,51.07,10c0,0-14.91-10.51-18.23-10.44S189.45,118.5,169.36,131.3Z"/><path class="cls-2" d="M163.33,166.75s-3.89-24.17-36.08-11.18c0,0,12.72-2.34,15-1.33S154.23,148.66,163.33,166.75Z"/><path class="cls-2" d="M166.35,134.6s-3.89-24.17-36.08-11.18c0,0,12.72-2.34,15-1.33S157.25,116.51,166.35,134.6Z"/><path class="cls-2" d="M165.54,198.94s-13.75-24.61-40.5-14.12c0,0,8.72-1.22,11.56-1.14C139.27,183.75,152.91,182.51,165.54,198.94Z"/><path class="cls-2" d="M136.14,190s-27.5-6.19-37.56,20.72c0,0,4.91-7.3,6.87-9.36S115.48,188.43,136.14,190Z"/><path class="cls-2" d="M147.47,225.25s-28.68-8.23-42.21,17.92c0,0,6-6.94,8.3-8.85S125.6,222.14,147.47,225.25Z"/><path class="cls-2" d="M126.77,161.86s-27.5-6.19-37.56,20.72c0,0,4.91-7.3,6.87-9.36S106.1,160.29,126.77,161.86Z"/><path class="cls-2" d="M119,144.49S91.57,132.84,75,157.16c0,0,6.78-6.16,9.28-7.78S97.69,138.76,119,144.49Z"/></g></svg>